<svg t="1619432583905" class="icon" viewBox="0 0 1024 1024" version="1.1" xmlns="http://www.w3.org/2000/svg" p-id="20182" width="200" height="200"><path d="M884.886 271.246a45.22 45.22 0 0 1 16.454 16.89c13.93 17.62 12.8 43.262-3.42 59.584l-159 160c-17.52 17.628-46.012 17.718-63.64 0.2-17.628-17.52-17.718-46.012-0.2-63.64l88.722-89.28H712c-85.604 0-155 69.396-155 155v134c0 24.852-20.148 45-45 45s-45-20.148-45-45v-134c0-135.31 109.69-245 245-245h39.36l-77.18-77.18c-17.574-17.574-17.574-46.066 0-63.64 17.574-17.574 46.066-17.574 63.64 0l147.066 147.066zM753.546 673c-24.852 0-45-20.148-45-45s20.148-45 45-45H836c41.42 0 75 33.58 75 75v180c0 41.42-33.58 75-75 75H186c-41.42 0-75-33.58-75-75v-180c0-41.42 33.58-75 75-75h80.276c24.852 0 45 20.148 45 45s-20.148 45-45 45H201v150h620v-150h-67.454z" p-id="20183"></path></svg>