<svg t="1619432466760" class="icon" viewBox="0 0 1024 1024" version="1.1" xmlns="http://www.w3.org/2000/svg" p-id="16099" width="200" height="200"><path d="M890.500043 217.142857q16 16 27.428571 43.428572t11.428572 50.285714v658.285714q0 22.857143-16 38.857143t-38.857143 16H106.500043q-22.857143 0-38.857143-16t-16-38.857143V54.857143q0-22.857143 16-38.857143T106.500043 0h512q22.857143 0 50.285714 11.428571t43.428572 27.428572z m-253.714286-139.428571v214.857143h214.857143q-5.714286-16.571429-12.571429-23.428572l-178.857142-178.857143q-6.857143-6.857143-23.428572-12.571428z m219.428572 873.142857V365.714286H618.500043q-22.857143 0-38.857143-16t-16-38.857143V73.142857H124.785757v877.714286h731.428572zM184.785757 438.857143v61.142857h40l93.714286 377.714286h90.857143l73.142857-277.142857q4-11.428571 5.714286-26.285715 1.142857-9.142857 1.142857-13.714285h2.285714l1.714286 13.714285q0.571429 1.714286 2 11.428572t3.142857 14.857143l73.142857 277.142857h90.857143l93.714286-377.714286h40V438.857143h-171.428572v61.142857h51.428572l-56.571429 250.285714q-2.857143 11.428571-4 26.285715l-1.142857 12h-2.285714q0-1.714286-0.285715-3.714286t-0.857143-4.571429-0.571428-3.714285q-0.571429-2.857143-2.285714-12t-2.857143-14.285715L523.071471 438.857143H457.928614l-82.285714 311.428571q-1.142857 5.142857-2.571429 14T371.071471 776.571429l-2.285714 12h-2.285714l-1.142857-12q-1.142857-14.857143-4-26.285715l-56.571429-250.285714h51.428572V438.857143H184.785757z" p-id="16100"></path></svg>