<svg width="196" height="225" viewBox="0 0 196 225" fill="none" xmlns="http://www.w3.org/2000/svg">
<mask id="path-1-inside-1" fill="white">
<path fill-rule="evenodd" clip-rule="evenodd" d="M161.296 5.82247C161.296 1.88796 156.962 -0.505018 153.632 1.59114L98.3362 36.4025C96.8822 37.3179 96.0001 38.9157 96.0001 40.6339V42.363C95.9868 40.6645 95.1119 39.0877 93.6753 38.1779L37.5529 2.63599C34.2238 0.527703 29.8778 2.91963 29.8778 6.86016V23.4904L96.4136 43.1818L161.296 23.5838V5.82247ZM27.8344 26.7946C21.4268 24.9008 15 29.7029 15 36.3845V157.122C15 161.868 18.3367 165.961 22.986 166.917L81.5064 178.949C87.7092 180.224 93.5204 175.486 93.5204 169.154V53.681C93.5204 49.2498 90.6043 45.347 86.3548 44.0911L27.8344 26.7946ZM164.166 26.7946C170.573 24.9008 177 29.7029 177 36.3845V157.122C177 161.868 173.663 165.961 169.014 166.917L110.494 178.949C104.291 180.224 98.4796 175.486 98.4796 169.154V53.681C98.4796 49.2498 101.396 45.347 105.645 44.0911L164.166 26.7946ZM20 180.41C8.9543 180.41 0 189.364 0 200.41V204.808C0 215.853 8.95431 224.808 20 224.808H196V214.717H181V204H30V201H181V190.5H196V180.41H20Z"/>
</mask>
<path d="M153.632 1.59114L150.968 -2.64018V-2.64018L153.632 1.59114ZM98.3362 36.4025L95.6724 32.1712L95.6724 32.1712L98.3362 36.4025ZM96.0001 42.363L91.0002 42.402L101 42.363H96.0001ZM93.6753 38.1779L91.0002 42.4021L91.0002 42.4021L93.6753 38.1779ZM37.5529 2.63599L40.228 -1.58818V-1.58818L37.5529 2.63599ZM29.8778 23.4904H24.8778V27.225L28.4588 28.2848L29.8778 23.4904ZM96.4136 43.1818L94.9946 47.9762L96.4282 48.4005L97.8593 47.9682L96.4136 43.1818ZM161.296 23.5838L162.742 28.3702L166.296 27.2966V23.5838H161.296ZM27.8344 26.7946L29.2516 21.9997L27.8344 26.7946ZM22.986 166.917L23.993 162.019H23.993L22.986 166.917ZM81.5064 178.949L82.5134 174.051H82.5134L81.5064 178.949ZM86.3548 44.0911L84.9376 48.886L86.3548 44.0911ZM164.166 26.7946L165.583 31.5896L164.166 26.7946ZM169.014 166.917L168.007 162.019L169.014 166.917ZM110.494 178.949L111.501 183.847L110.494 178.949ZM105.645 44.0911L107.062 48.886L105.645 44.0911ZM196 224.808V229.808H201V224.808H196ZM196 214.717H201V209.717H196V214.717ZM181 214.717H176V219.717H181V214.717ZM181 204H186V199H181V204ZM30 204H25V209H30V204ZM30 201V196H25V201H30ZM181 201V206H186V201H181ZM181 190.5V185.5H176V190.5H181ZM196 190.5V195.5H201V190.5H196ZM196 180.41H201V175.41H196V180.41ZM156.296 5.82246C156.31 5.81394 156.318 5.81016 156.32 5.80907C156.322 5.80797 156.321 5.8086 156.317 5.8098C156.313 5.81098 156.308 5.81221 156.302 5.8131C156.296 5.81399 156.29 5.81437 156.286 5.81442C156.276 5.81451 156.273 5.81327 156.276 5.81408C156.28 5.81502 156.287 5.81751 156.296 5.82247C156.305 5.82742 156.311 5.83233 156.314 5.83491C156.316 5.83716 156.313 5.83511 156.308 5.82703C156.306 5.82302 156.303 5.81811 156.301 5.81254C156.298 5.8069 156.297 5.80175 156.295 5.7977C156.294 5.79358 156.294 5.79239 156.295 5.79505C156.295 5.79766 156.296 5.80647 156.296 5.82247H166.296C166.296 -2.04654 157.628 -6.8325 150.968 -2.64018L156.296 5.82246ZM101 40.6339L156.296 5.82246L150.968 -2.64018L95.6724 32.1712L101 40.6339ZM101 40.6339L101 40.6338L95.6724 32.1712C92.7644 34.0019 91.0001 37.1975 91.0001 40.6339H101ZM101 42.363V40.6339H91.0001V42.363H101ZM91.0002 42.4021L91.0002 42.402L101 42.324C100.973 38.9268 99.2235 35.7732 96.3505 33.9538L91.0002 42.4021ZM34.8778 6.86017L91.0002 42.4021L96.3505 33.9538L40.228 -1.58818L34.8778 6.86017ZM34.8778 6.86016C34.8778 6.84407 34.8788 6.8352 34.8792 6.83257C34.8796 6.8299 34.8796 6.83109 34.8784 6.83524C34.8772 6.83931 34.8754 6.84449 34.8729 6.85017C34.8704 6.85577 34.8678 6.8607 34.8653 6.86475C34.8603 6.87287 34.8575 6.87492 34.8599 6.87267C34.8626 6.87007 34.8687 6.86514 34.8778 6.86017C34.8868 6.85519 34.8942 6.8527 34.8979 6.85176C34.9011 6.85095 34.8978 6.85219 34.8883 6.85208C34.8836 6.85202 34.878 6.85162 34.8719 6.85072C34.8658 6.84981 34.8604 6.84856 34.8564 6.84737C34.8522 6.84615 34.8512 6.84551 34.8537 6.84663C34.8561 6.84773 34.8642 6.85156 34.8778 6.86017L40.228 -1.58818C33.5699 -5.80476 24.8778 -1.0209 24.8778 6.86016H34.8778ZM34.8778 23.4904V6.86016H24.8778V23.4904H34.8778ZM97.8325 38.3873L31.2967 18.6959L28.4588 28.2848L94.9946 47.9762L97.8325 38.3873ZM159.85 18.7973L94.9678 38.3954L97.8593 47.9682L162.742 28.3702L159.85 18.7973ZM156.296 5.82247V23.5838H166.296V5.82247H156.296ZM20 36.3845C20 33.0437 23.2134 30.6426 26.4172 31.5896L29.2516 21.9997C19.6402 19.1589 10 26.3621 10 36.3845H20ZM20 157.122V36.3845H10V157.122H20ZM23.993 162.019C21.6684 161.541 20 159.495 20 157.122H10C10 164.241 15.0051 170.38 21.9791 171.814L23.993 162.019ZM82.5134 174.051L23.993 162.019L21.9791 171.814L80.4995 183.847L82.5134 174.051ZM88.5204 169.154C88.5204 172.32 85.6148 174.689 82.5134 174.051L80.4995 183.847C89.8035 185.76 98.5204 178.653 98.5204 169.154H88.5204ZM88.5204 53.681V169.154H98.5204V53.681H88.5204ZM84.9376 48.886C87.0623 49.514 88.5204 51.4654 88.5204 53.681H98.5204C98.5204 47.0342 94.1462 41.1801 87.772 39.2961L84.9376 48.886ZM26.4172 31.5896L84.9376 48.886L87.772 39.2961L29.2516 21.9997L26.4172 31.5896ZM182 36.3845C182 26.3621 172.36 19.1589 162.748 21.9997L165.583 31.5896C168.787 30.6426 172 33.0437 172 36.3845H182ZM182 157.122V36.3845H172V157.122H182ZM170.021 171.814C176.995 170.38 182 164.241 182 157.122H172C172 159.495 170.332 161.541 168.007 162.019L170.021 171.814ZM111.501 183.847L170.021 171.814L168.007 162.019L109.487 174.051L111.501 183.847ZM93.4796 169.154C93.4796 178.653 102.196 185.76 111.501 183.847L109.487 174.051C106.385 174.689 103.48 172.32 103.48 169.154H93.4796ZM93.4796 53.681V169.154H103.48V53.681H93.4796ZM104.228 39.2961C97.8538 41.1801 93.4796 47.0342 93.4796 53.681H103.48C103.48 51.4654 104.938 49.514 107.062 48.886L104.228 39.2961ZM162.748 21.9997L104.228 39.2961L107.062 48.886L165.583 31.5896L162.748 21.9997ZM5 200.41C5 192.126 11.7157 185.41 20 185.41V175.41C6.19288 175.41 -5 186.603 -5 200.41H5ZM5 204.808V200.41H-5V204.808H5ZM20 219.808C11.7157 219.808 5 213.092 5 204.808H-5C-5 218.615 6.19288 229.808 20 229.808V219.808ZM196 219.808H20V229.808H196V219.808ZM191 214.717V224.808H201V214.717H191ZM181 219.717H196V209.717H181V219.717ZM176 204V214.717H186V204H176ZM30 209H181V199H30V209ZM25 201V204H35V201H25ZM181 196H30V206H181V196ZM176 190.5V201H186V190.5H176ZM196 185.5H181V195.5H196V185.5ZM191 180.41V190.5H201V180.41H191ZM20 185.41H196V175.41H20V185.41Z" fill="black" mask="url(#path-1-inside-1)"/>
</svg>
