<svg width="196" height="224" viewBox="0 0 196 224" fill="none" xmlns="http://www.w3.org/2000/svg">
<path fill-rule="evenodd" clip-rule="evenodd" d="M48 0C25.9086 0 8 17.9086 8 40V133.6L8.21827 133.458C8.07449 134.425 8 135.415 8 136.423V147C8 158.046 16.9543 167 28 167H168C179.046 167 188 158.046 188 147V142V116.423V31.8061C188 27.4949 184.505 24 180.194 24C175.883 24 172.388 27.4949 172.388 31.8061V116.423H172.659V119.286H157.169C159.05 118.568 160.386 116.746 160.386 114.613V10C160.386 4.47715 155.909 0 150.386 0H48ZM157.169 119.286L172.659 119.286V143.64C172.659 149.163 168.182 153.64 162.659 153.64H39.4952C30.0086 153.64 22.3181 145.95 22.3181 136.463C22.3181 129.151 26.8871 122.906 33.326 120.427C35.9553 119.888 38.6444 119.613 41.3539 119.613H155.386C156.014 119.613 156.616 119.497 157.169 119.286ZM47.8864 137.68C47.8864 133.991 50.8772 131 54.5664 131H160.386V144.36H54.5664C50.8772 144.36 47.8864 141.369 47.8864 137.68ZM20 176C8.9543 176 0 184.954 0 196V204C0 215.046 8.95431 224 20 224H196V212.293H184V202.927H30.3415C29.0483 202.927 28 201.879 28 200.585C28 199.292 29.0483 198.244 30.3415 198.244H184V187.707H196V176H20Z" fill="black"/>
</svg>
