<svg width="196" height="223" viewBox="0 0 196 223" fill="none" xmlns="http://www.w3.org/2000/svg">
<mask id="path-1-inside-1" fill="white">
<path fill-rule="evenodd" clip-rule="evenodd" d="M48 0C25.9086 0 8 17.9086 8 40V135V136V136.323L8.00168 136.321C8.17373 152.742 21.5385 166 38 166H168C179.046 166 188 157.046 188 146V116V115V31.5C188 27.3579 184.642 24 180.5 24C176.358 24 173 27.3579 173 31.5V115V119V140C173 145.523 168.523 150 163 150H42.5C33.9396 150 27 143.06 27 134.5C27 125.94 33.9396 119 42.5 119H143.459L155.205 119.425C158.036 119.528 160.386 117.261 160.386 114.429V10C160.386 4.47715 155.909 0 150.386 0H48ZM47.8865 135.68C47.8865 131.991 50.8772 129 54.5665 129H160.386V142.36H54.5665C50.8772 142.36 47.8865 139.369 47.8865 135.68ZM20 175C8.9543 175 0 183.954 0 195V203C0 214.046 8.95431 223 20 223H196V211.293H184V201.927H30.3415C29.0483 201.927 28 200.879 28 199.585C28 198.292 29.0483 197.244 30.3415 197.244H184V186.707H196V175H20Z"/>
</mask>
<path d="M8 136.323H3V148.617L11.5808 139.812L8 136.323ZM8.00168 136.321L13.0014 136.268L12.8745 124.157L4.42089 132.831L8.00168 136.321ZM143.459 119L143.64 114.003L143.549 114H143.459V119ZM155.205 119.425L155.386 114.429L155.205 119.425ZM160.386 129H165.386V124H160.386V129ZM160.386 142.36V147.36H165.386V142.36H160.386ZM196 223V228H201V223H196ZM196 211.293H201V206.293H196V211.293ZM184 211.293H179V216.293H184V211.293ZM184 201.927H189V196.927H184V201.927ZM184 197.244V202.244H189V197.244H184ZM184 186.707V181.707H179V186.707H184ZM196 186.707V191.707H201V186.707H196ZM196 175H201V170H196V175ZM13 40C13 20.67 28.67 5 48 5V-5C23.1472 -5 3 15.1472 3 40H13ZM13 135V40H3V135H13ZM13 136V135H3V136H13ZM13 136.323V136H3V136.323H13ZM4.42089 132.831L4.41921 132.833L11.5808 139.812L11.5825 139.811L4.42089 132.831ZM38 161C24.2824 161 13.1448 149.951 13.0014 136.268L3.00195 136.373C3.2027 155.532 18.7947 171 38 171V161ZM168 161H38V171H168V161ZM183 146C183 154.284 176.284 161 168 161V171C181.807 171 193 159.807 193 146H183ZM183 116V146H193V116H183ZM183 115V116H193V115H183ZM183 31.5V115H193V31.5H183ZM180.5 29C181.881 29 183 30.1193 183 31.5H193C193 24.5964 187.404 19 180.5 19V29ZM178 31.5C178 30.1193 179.119 29 180.5 29V19C173.596 19 168 24.5964 168 31.5H178ZM178 115V31.5H168V115H178ZM178 119V115H168V119H178ZM178 140V119H168V140H178ZM163 155C171.284 155 178 148.284 178 140H168C168 142.761 165.761 145 163 145V155ZM42.5 155H163V145H42.5V155ZM22 134.5C22 145.822 31.1782 155 42.5 155V145C36.701 145 32 140.299 32 134.5H22ZM42.5 114C31.1782 114 22 123.178 22 134.5H32C32 128.701 36.701 124 42.5 124V114ZM143.459 114H42.5V124H143.459V114ZM155.386 114.429L143.64 114.003L143.278 123.997L155.024 124.422L155.386 114.429ZM155.386 114.429V114.429L155.024 124.422C160.686 124.627 165.386 120.093 165.386 114.429H155.386ZM155.386 10V114.429H165.386V10H155.386ZM150.386 5C153.148 5 155.386 7.23858 155.386 10H165.386C165.386 1.71572 158.671 -5 150.386 -5V5ZM48 5H150.386V-5H48V5ZM54.5665 124C48.1158 124 42.8865 129.229 42.8865 135.68H52.8865C52.8865 134.752 53.6386 134 54.5665 134V124ZM160.386 124H54.5665V134H160.386V124ZM165.386 142.36V129H155.386V142.36H165.386ZM54.5665 147.36H160.386V137.36H54.5665V147.36ZM42.8865 135.68C42.8865 142.131 48.1158 147.36 54.5665 147.36V137.36C53.6386 137.36 52.8865 136.608 52.8865 135.68H42.8865ZM5 195C5 186.716 11.7157 180 20 180V170C6.19288 170 -5 181.193 -5 195H5ZM5 203V195H-5V203H5ZM20 218C11.7157 218 5 211.284 5 203H-5C-5 216.807 6.19289 228 20 228V218ZM196 218H20V228H196V218ZM191 211.293V223H201V211.293H191ZM184 216.293H196V206.293H184V216.293ZM179 201.927V211.293H189V201.927H179ZM30.3415 206.927H184V196.927H30.3415V206.927ZM23 199.585C23 203.64 26.2868 206.927 30.3415 206.927V196.927C31.8098 196.927 33 198.117 33 199.585H23ZM30.3415 192.244C26.2869 192.244 23 195.531 23 199.585H33C33 201.054 31.8097 202.244 30.3415 202.244V192.244ZM184 192.244H30.3415V202.244H184V192.244ZM179 186.707V197.244H189V186.707H179ZM196 181.707H184V191.707H196V181.707ZM191 175V186.707H201V175H191ZM20 180H196V170H20V180Z" fill="black" mask="url(#path-1-inside-1)"/>
</svg>
