<svg width="196" height="225" viewBox="0 0 196 225" fill="none" xmlns="http://www.w3.org/2000/svg">
<path fill-rule="evenodd" clip-rule="evenodd" d="M161.296 5.82247C161.296 1.88796 156.962 -0.505018 153.632 1.59114L98.3362 36.4025C96.8822 37.3179 96.0001 38.9157 96.0001 40.6339V42.363C95.9868 40.6645 95.1119 39.0877 93.6753 38.1779L37.5529 2.63599C34.2238 0.527703 29.8778 2.91963 29.8778 6.86016V23.4904L96.4136 43.1818L161.296 23.5838V5.82247ZM27.8344 26.7946C21.4268 24.9008 15 29.7029 15 36.3845V157.122C15 161.868 18.3367 165.961 22.986 166.917L81.5064 178.949C87.7092 180.224 93.5204 175.486 93.5204 169.154V53.681C93.5204 49.2498 90.6043 45.347 86.3548 44.0911L27.8344 26.7946ZM164.166 26.7946C170.573 24.9008 177 29.7029 177 36.3845V157.122C177 161.868 173.663 165.961 169.014 166.917L110.494 178.949C104.291 180.224 98.4796 175.486 98.4796 169.154V53.681C98.4796 49.2498 101.396 45.347 105.645 44.0911L164.166 26.7946ZM20 180.41C8.9543 180.41 0 189.364 0 200.41V204.808C0 215.853 8.95431 224.808 20 224.808H196V214.717H181V206H26V201H181V190.5H196V180.41H20Z" fill="black"/>
</svg>
