<svg width="196" height="224" viewBox="0 0 196 224" fill="none" xmlns="http://www.w3.org/2000/svg">
<mask id="path-1-inside-1" fill="white">
<path fill-rule="evenodd" clip-rule="evenodd" d="M7.03898 31.9936C-1.79762 35.163 -1.79764 47.5027 7.03896 50.6721L15.0001 53.5275V106.95C15.0001 107.999 15.4614 108.94 16.1921 109.581C14.879 112.168 13.9999 116.896 13.9999 122.299C13.9999 130.479 16.0146 137.11 18.4999 137.11C20.9852 137.11 22.9999 130.479 22.9999 122.299C22.9999 116.896 22.1209 112.169 20.8078 109.582C21.5387 108.94 22.0001 107.999 22.0001 106.95V56.0382L94.5644 82.0646C96.784 82.8607 99.2164 82.8607 101.436 82.0646L188.961 50.6721C197.798 47.5027 197.798 35.1629 188.961 31.9935L101.436 0.601096C99.2164 -0.194995 96.784 -0.194994 94.5644 0.601096L7.03898 31.9936ZM42.9719 72.1287L31.7543 146.893C31.2575 148.372 31 149.886 31 151.427C31 151.576 31.0024 151.724 31.0072 151.872L31 151.92H31.0088C31.5952 168.325 61.3636 181.542 98 181.542C134.636 181.542 164.405 168.325 164.991 151.92H165L164.993 151.871C164.998 151.723 165 151.575 165 151.427C165 149.945 164.762 148.487 164.301 147.062L153.502 71.9586L101.436 90.6332C99.2163 91.4293 96.7839 91.4293 94.5643 90.6332L42.9719 72.1287ZM16.2919 191.416C7.29415 191.416 0 198.71 0 207.708C0 216.706 7.29414 224 16.2919 224H179.708C188.706 224 196 216.706 196 207.708C196 198.71 188.706 191.416 179.708 191.416H16.2919ZM31.4811 207.214C30.6631 207.214 30 207.877 30 208.695C30 209.513 30.6631 210.177 31.4811 210.177H162.519C163.337 210.177 164 209.513 164 208.695C164 207.877 163.337 207.214 162.519 207.214H31.4811Z"/>
</mask>
<path d="M7.03896 50.6721L5.35092 55.3786L7.03896 50.6721ZM7.03898 31.9936L8.72702 36.7H8.72702L7.03898 31.9936ZM15.0001 53.5275H20.0001V50.009L16.6882 48.8211L15.0001 53.5275ZM16.1921 109.581L20.6506 111.845L22.4071 108.384L19.4907 105.824L16.1921 109.581ZM20.8078 109.582L17.5097 105.824L14.5927 108.384L16.3493 111.845L20.8078 109.582ZM22.0001 56.0382L23.6882 51.3318L17.0001 48.933V56.0382H22.0001ZM94.5644 82.0646L92.8764 86.7711L94.5644 82.0646ZM101.436 82.0646L99.748 77.3582L101.436 82.0646ZM188.961 50.6721L190.649 55.3785L188.961 50.6721ZM188.961 31.9935L190.649 27.2871L188.961 31.9935ZM101.436 0.601096L103.124 -4.10534L101.436 0.601096ZM94.5644 0.601096L96.2524 5.30753L96.2524 5.30753L94.5644 0.601096ZM31.7543 146.893L36.494 148.485L36.6338 148.069L36.699 147.635L31.7543 146.893ZM42.9719 72.1287L44.66 67.4223L38.9305 65.3673L38.0273 71.3868L42.9719 72.1287ZM31.0072 151.872L35.9518 152.614L36.0192 152.165L36.0046 151.711L31.0072 151.872ZM31 151.92L26.0554 151.178L25.1937 156.92H31V151.92ZM31.0088 151.92L36.0056 151.742L35.8333 146.92H31.0088V151.92ZM164.991 151.92V146.92H160.167L159.994 151.742L164.991 151.92ZM165 151.92V156.92H170.77L169.949 151.209L165 151.92ZM164.993 151.871L159.995 151.71L159.981 152.148L160.044 152.582L164.993 151.871ZM164.301 147.062L159.352 147.774L159.413 148.195L159.543 148.599L164.301 147.062ZM153.502 71.9586L158.452 71.247L157.58 65.1843L151.814 67.2522L153.502 71.9586ZM101.436 90.6332L103.124 95.3397L103.124 95.3397L101.436 90.6332ZM94.5643 90.6332L96.2524 85.9268L96.2524 85.9268L94.5643 90.6332ZM8.72701 45.9657C4.30637 44.3801 4.30635 38.2855 8.72702 36.7L5.35094 27.2871C-7.90158 32.0404 -7.90164 50.6253 5.35092 55.3786L8.72701 45.9657ZM16.6882 48.8211L8.72701 45.9657L5.35092 55.3786L13.3121 58.234L16.6882 48.8211ZM20.0001 106.95V53.5275H10.0001V106.95H20.0001ZM19.4907 105.824C19.7955 106.091 20.0001 106.5 20.0001 106.95H10.0001C10.0001 109.498 11.1273 111.788 12.8934 113.339L19.4907 105.824ZM18.9999 122.299C18.9999 117.214 19.8575 113.407 20.6506 111.845L11.7336 107.318C9.90041 110.93 8.99988 116.577 8.99988 122.299H18.9999ZM18.4999 132.11C20.2735 132.11 20.9863 133.275 20.8091 133.029C20.7178 132.902 20.429 132.395 20.102 131.318C19.4668 129.228 18.9999 126.038 18.9999 122.299H8.99988C8.99988 126.74 9.54033 130.955 10.5338 134.225C11.0211 135.829 11.702 137.491 12.6874 138.863C13.587 140.115 15.4836 142.11 18.4999 142.11V132.11ZM17.9999 122.299C17.9999 126.038 17.533 129.228 16.8978 131.318C16.5707 132.395 16.2819 132.902 16.1906 133.029C16.0135 133.275 16.7262 132.11 18.4999 132.11V142.11C21.5162 142.11 23.4127 140.115 24.3124 138.863C25.2978 137.491 25.9786 135.829 26.4659 134.225C27.4594 130.955 27.9999 126.74 27.9999 122.299H17.9999ZM16.3493 111.845C17.1423 113.407 17.9999 117.215 17.9999 122.299H27.9999C27.9999 116.577 27.0994 110.93 25.2664 107.319L16.3493 111.845ZM17.0001 106.95C17.0001 106.5 17.2048 106.091 17.5097 105.824L24.106 113.34C25.8726 111.789 27.0001 109.498 27.0001 106.95H17.0001ZM17.0001 56.0382V106.95H27.0001V56.0382H17.0001ZM96.2524 77.3582L23.6882 51.3318L20.3121 60.7446L92.8764 86.7711L96.2524 77.3582ZM99.748 77.3582C98.6197 77.7629 97.3807 77.7629 96.2524 77.3582L92.8764 86.7711C96.1873 87.9586 99.8131 87.9586 103.124 86.771L99.748 77.3582ZM187.273 45.9657L99.748 77.3582L103.124 86.771L190.649 55.3785L187.273 45.9657ZM187.273 36.7C191.694 38.2855 191.694 44.3801 187.273 45.9657L190.649 55.3785C203.902 50.6253 203.902 32.0404 190.649 27.2871L187.273 36.7ZM99.7479 5.30753L187.273 36.7L190.649 27.2871L103.124 -4.10534L99.7479 5.30753ZM96.2524 5.30753C97.3807 4.90286 98.6197 4.90286 99.7479 5.30753L103.124 -4.10534C99.8131 -5.29285 96.1872 -5.29285 92.8763 -4.10534L96.2524 5.30753ZM8.72702 36.7L96.2524 5.30753L92.8763 -4.10534L5.35094 27.2871L8.72702 36.7ZM36.699 147.635L47.9166 72.8706L38.0273 71.3868L26.8097 146.151L36.699 147.635ZM36 151.427C36 150.452 36.1615 149.475 36.494 148.485L27.0146 145.301C26.3535 147.268 26 149.32 26 151.427H36ZM36.0046 151.711C36.0015 151.617 36 151.522 36 151.427H26C26 151.629 26.0033 151.832 26.0098 152.034L36.0046 151.711ZM35.9446 152.662L35.9518 152.614L26.0625 151.131L26.0554 151.178L35.9446 152.662ZM31.0088 146.92H31V156.92H31.0088V146.92ZM98 176.542C80.2174 176.542 64.3345 173.325 53.0098 168.311C41.2266 163.094 36.1881 156.848 36.0056 151.742L26.012 152.099C26.4158 163.397 36.5548 171.962 48.9615 177.455C61.8267 183.151 79.1461 186.542 98 186.542V176.542ZM159.994 151.742C159.812 156.848 154.773 163.094 142.99 168.311C131.666 173.325 115.783 176.542 98 176.542V186.542C116.854 186.542 134.173 183.151 147.039 177.455C159.445 171.962 169.584 163.397 169.988 152.099L159.994 151.742ZM165 146.92H164.991V156.92H165V146.92ZM160.044 152.582L160.051 152.632L169.949 151.209L169.942 151.16L160.044 152.582ZM160 151.427C160 151.522 159.998 151.616 159.995 151.71L169.99 152.031C169.997 151.83 170 151.629 170 151.427H160ZM159.543 148.599C159.85 149.549 160 150.489 160 151.427H170C170 149.401 169.673 147.425 169.059 145.525L159.543 148.599ZM148.553 72.6703L159.352 147.774L169.251 146.351L158.452 71.247L148.553 72.6703ZM103.124 95.3397L155.19 76.6651L151.814 67.2522L99.7479 85.9268L103.124 95.3397ZM92.8763 95.3397C96.1872 96.5272 99.8131 96.5272 103.124 95.3397L99.7479 85.9268C98.6196 86.3315 97.3806 86.3315 96.2524 85.9268L92.8763 95.3397ZM41.2839 76.8352L92.8763 95.3397L96.2524 85.9268L44.66 67.4223L41.2839 76.8352ZM5 207.708C5 201.472 10.0556 196.416 16.2919 196.416V186.416C4.53272 186.416 -5 195.949 -5 207.708H5ZM16.2919 219C10.0556 219 5 213.944 5 207.708H-5C-5 219.467 4.53271 229 16.2919 229V219ZM179.708 219H16.2919V229H179.708V219ZM191 207.708C191 213.944 185.944 219 179.708 219V229C191.467 229 201 219.467 201 207.708H191ZM179.708 196.416C185.944 196.416 191 201.472 191 207.708H201C201 195.949 191.467 186.416 179.708 186.416V196.416ZM16.2919 196.416H179.708V186.416H16.2919V196.416ZM35 208.695C35 210.639 33.4245 212.214 31.4811 212.214V202.214C27.9017 202.214 25 205.116 25 208.695H35ZM31.4811 205.177C33.4246 205.177 35 206.752 35 208.695H25C25 212.275 27.9016 215.177 31.4811 215.177V205.177ZM162.519 205.177H31.4811V215.177H162.519V205.177ZM159 208.695C159 206.752 160.575 205.177 162.519 205.177V215.177C166.098 215.177 169 212.275 169 208.695H159ZM162.519 212.214C160.575 212.214 159 210.639 159 208.695H169C169 205.116 166.098 202.214 162.519 202.214V212.214ZM31.4811 212.214H162.519V202.214H31.4811V212.214Z" fill="black" mask="url(#path-1-inside-1)"/>
</svg>
