<svg width="196" height="224" viewBox="0 0 196 224" fill="none" xmlns="http://www.w3.org/2000/svg">
<mask id="path-1-inside-1" fill="white">
<path fill-rule="evenodd" clip-rule="evenodd" d="M10 0C4.47715 0 0 4.47715 0 10V12C0 17.5228 4.47715 22 10 22H17V70.5328C14.651 73.5468 13 80.6802 13 89C13 100.046 15.9101 109 19.5 109C23.0899 109 26 100.046 26 89C26 80.6802 24.349 73.5468 22 70.5328V22H186C191.523 22 196 17.5228 196 12V10C196 4.47715 191.523 0 186 0H10ZM148 26H47L32.8649 85.3676C29.8726 97.9351 39.4022 110 52.321 110H144.087C157.191 110 166.755 97.6091 163.435 84.9328L148 26ZM20 181C8.9543 181 0 189.954 0 201V204C0 215.046 8.95431 224 20 224H176V215H164.327V205H26V202H164.327V192H176V181H20ZM22 147C22 135.954 30.9543 127 42 127H187V138.628H176.056V152H46V155H176.056V165.372H187V177H42C30.9543 177 22 168.046 22 157V147Z"/>
</mask>
<path d="M17 22H22V17H17V22ZM17 70.5328L20.9438 73.6064L22 72.2511V70.5328H17ZM22 70.5328H17V72.2511L18.0562 73.6064L22 70.5328ZM22 22V17H17V22H22ZM47 26V21H43.0507L42.136 24.8419L47 26ZM148 26L152.837 24.7332L151.859 21H148V26ZM32.8649 85.3676L37.7289 86.5257L32.8649 85.3676ZM163.435 84.9328L158.598 86.1996L163.435 84.9328ZM176 224V229H181V224H176ZM176 215H181V210H176V215ZM164.327 215H159.327V220H164.327V215ZM164.327 205H169.327V200H164.327V205ZM26 205H21V210H26V205ZM26 202V197H21V202H26ZM164.327 202V207H169.327V202H164.327ZM164.327 192V187H159.327V192H164.327ZM176 192V197H181V192H176ZM176 181H181V176H176V181ZM187 127H192V122H187V127ZM187 138.628V143.628H192V138.628H187ZM176.056 138.628V133.628H171.056V138.628H176.056ZM176.056 152V157H181.056V152H176.056ZM46 152V147H41V152H46ZM46 155H41V160H46V155ZM176.056 155H181.056V150H176.056V155ZM176.056 165.372H171.056V170.372H176.056V165.372ZM187 165.372H192V160.372H187V165.372ZM187 177V182H192V177H187ZM5 10C5 7.23858 7.23858 5 10 5V-5C1.71573 -5 -5 1.71573 -5 10H5ZM5 12V10H-5V12H5ZM10 17C7.23858 17 5 14.7614 5 12H-5C-5 20.2843 1.71572 27 10 27V17ZM17 17H10V27H17V17ZM22 70.5328V22H12V70.5328H22ZM18 89C18 85.151 18.3837 81.6536 19.0016 78.8545C19.6512 75.9118 20.4512 74.2384 20.9438 73.6064L13.0562 67.4593C11.1999 69.8412 9.99988 73.2415 9.23668 76.699C8.44179 80.3 8 84.5292 8 89H18ZM19.5 104C20.8465 104 21.2862 104.839 20.9346 104.382C20.6379 103.996 20.155 103.123 19.659 101.597C18.6849 98.5996 18 94.1454 18 89H8C8 94.9003 8.77014 100.446 10.1486 104.688C10.8289 106.781 11.7466 108.837 13.0052 110.475C14.2089 112.041 16.3586 114 19.5 114V104ZM21 89C21 94.1454 20.3151 98.5996 19.341 101.597C18.845 103.123 18.3621 103.996 18.0654 104.382C17.7138 104.839 18.1535 104 19.5 104V114C22.6414 114 24.7911 112.041 25.9948 110.475C27.2534 108.837 28.1711 106.781 28.8514 104.688C30.2299 100.446 31 94.9003 31 89H21ZM18.0562 73.6064C18.5488 74.2384 19.3488 75.9118 19.9984 78.8545C20.6163 81.6536 21 85.151 21 89H31C31 84.5292 30.5582 80.3 29.7633 76.699C29.0001 73.2415 27.8001 69.8412 25.9438 67.4593L18.0562 73.6064ZM17 22V70.5328H27V22H17ZM186 17H22V27H186V17ZM191 12C191 14.7614 188.761 17 186 17V27C194.284 27 201 20.2843 201 12H191ZM191 10V12H201V10H191ZM186 5C188.761 5 191 7.23857 191 10H201C201 1.71573 194.284 -5 186 -5V5ZM10 5H186V-5H10V5ZM47 31H148V21H47V31ZM37.7289 86.5257L51.864 27.1581L42.136 24.8419L28.0008 84.2095L37.7289 86.5257ZM52.321 105C42.6319 105 35.4847 95.9513 37.7289 86.5257L28.0008 84.2095C24.2605 99.9189 36.1725 115 52.321 115V105ZM144.087 105H52.321V115H144.087V105ZM158.598 86.1996C161.088 95.7068 153.915 105 144.087 105V115C160.467 115 172.422 99.5113 168.272 83.666L158.598 86.1996ZM143.163 27.2668L158.598 86.1996L168.272 83.666L152.837 24.7332L143.163 27.2668ZM5 201C5 192.716 11.7157 186 20 186V176C6.19288 176 -5 187.193 -5 201H5ZM5 204V201H-5V204H5ZM20 219C11.7157 219 5 212.284 5 204H-5C-5 217.807 6.19288 229 20 229V219ZM176 219H20V229H176V219ZM171 215V224H181V215H171ZM164.327 220H176V210H164.327V220ZM159.327 205V215H169.327V205H159.327ZM26 210H164.327V200H26V210ZM21 202V205H31V202H21ZM164.327 197H26V207H164.327V197ZM159.327 192V202H169.327V192H159.327ZM176 187H164.327V197H176V187ZM171 181V192H181V181H171ZM20 186H176V176H20V186ZM42 122C28.1929 122 17 133.193 17 147H27C27 138.716 33.7157 132 42 132V122ZM187 122H42V132H187V122ZM192 138.628V127H182V138.628H192ZM176.056 143.628H187V133.628H176.056V143.628ZM181.056 152V138.628H171.056V152H181.056ZM46 157H176.056V147H46V157ZM51 155V152H41V155H51ZM176.056 150H46V160H176.056V150ZM181.056 165.372V155H171.056V165.372H181.056ZM187 160.372H176.056V170.372H187V160.372ZM192 177V165.372H182V177H192ZM42 182H187V172H42V182ZM17 157C17 170.807 28.1929 182 42 182V172C33.7157 172 27 165.284 27 157H17ZM17 147V157H27V147H17Z" fill="black" mask="url(#path-1-inside-1)"/>
</svg>
