<svg width="196" height="224" viewBox="0 0 196 224" fill="none" xmlns="http://www.w3.org/2000/svg">
<mask id="path-1-inside-1" fill="white">
<path fill-rule="evenodd" clip-rule="evenodd" d="M7.12301 27.0827C-2.1905 29.8806 -2.4349 42.9798 6.76778 46.1231L13.775 48.5165V76.0494C13.775 77.9824 15.342 79.5494 17.275 79.5494C19.208 79.5494 20.775 77.9824 20.775 76.0494V50.9074L95.5087 76.4338C97.625 77.1566 99.9224 77.1493 102.034 76.4129L188.952 46.101C198.076 42.9192 197.83 29.9317 188.592 27.0983L101.677 0.439613C99.785 -0.14077 97.7631 -0.14663 95.8677 0.422828L7.12301 27.0827ZM20.775 97.5494C20.775 105.281 19.208 111.549 17.275 111.549C15.342 111.549 13.775 105.281 13.775 97.5494C13.775 89.8174 15.342 83.5494 17.275 83.5494C19.208 83.5494 20.775 89.8174 20.775 97.5494ZM97.275 84.159L39.775 62.5494L23.775 116.865L23.9147 116.879C23.0417 120.696 24.5585 125.283 28.4322 127.284C29.4248 128.684 30.7904 129.842 32.536 130.579L94.9513 156.911C97.0937 157.815 99.4578 157.819 101.603 156.924L164.31 130.751C165.559 130.23 166.614 129.494 167.478 128.608C168.068 128.329 168.629 127.978 169.085 127.477C171.881 124.398 171.454 119.608 169.554 116.365C169.485 116.199 169.412 116.035 169.336 115.873L154.775 63.1335L97.275 84.159ZM188.919 154.254C188.919 154.254 161.919 147.254 136.419 157.754C118.197 165.257 104.242 178.017 97.7606 184.69C91.2962 178.088 77.4429 165.531 59.2749 158.05C33.7749 147.549 6.77494 154.55 6.77494 154.55L5.33421 164.568C3.42997 164.737 1.70991 165.997 1.04734 167.922C0.148417 170.533 1.53636 173.378 4.14738 174.277L97.0958 206.277L98.7404 206.843L100.381 206.267L191.433 174.267C194.038 173.351 195.408 170.497 194.492 167.892C193.844 166.046 192.222 164.82 190.405 164.588L188.919 154.254ZM191.433 191.267C194.038 190.351 195.408 187.497 194.492 184.892C193.577 182.286 190.722 180.917 188.117 181.832L98.7065 213.256L7.40261 181.822C4.79159 180.923 1.94623 182.311 1.04732 184.922C0.148405 187.533 1.53634 190.378 4.14736 191.277L97.0958 223.277L98.7404 223.843L100.381 223.267L191.433 191.267Z"/>
</mask>
<path d="M6.76778 46.1231L5.15163 50.8547L5.15165 50.8547L6.76778 46.1231ZM7.12301 27.0827L8.56154 31.8713L8.56155 31.8713L7.12301 27.0827ZM13.775 48.5165H18.775V44.9406L15.3911 43.7848L13.775 48.5165ZM20.775 50.9074L22.3911 46.1758L15.775 43.916V50.9074H20.775ZM95.5087 76.4338L93.8926 81.1654L93.8927 81.1654L95.5087 76.4338ZM102.034 76.4129L100.387 71.6917L100.387 71.6917L102.034 76.4129ZM188.952 46.101L187.306 41.3798H187.306L188.952 46.101ZM188.592 27.0983L187.126 31.8785L188.592 27.0983ZM101.677 0.439613L100.211 5.2198L100.211 5.21981L101.677 0.439613ZM95.8677 0.422828L97.3062 5.21142L97.3063 5.21139L95.8677 0.422828ZM39.775 62.5494L41.5339 57.869L36.4987 55.9767L34.9787 61.1366L39.775 62.5494ZM97.275 84.159L95.516 88.8393L97.2512 89.4914L98.9921 88.8549L97.275 84.159ZM23.775 116.865L18.9787 115.452L17.2659 121.267L23.3 121.843L23.775 116.865ZM23.9147 116.879L28.7889 117.993L30.0585 112.442L24.3897 111.901L23.9147 116.879ZM28.4322 127.284L32.5108 124.392L31.8075 123.4L30.7274 122.842L28.4322 127.284ZM32.536 130.579L34.4796 125.972H34.4796L32.536 130.579ZM94.9513 156.911L96.8948 152.304L94.9513 156.911ZM101.603 156.924L99.6772 152.31L99.6772 152.31L101.603 156.924ZM164.31 130.751L166.236 135.366L166.236 135.366L164.31 130.751ZM167.478 128.608L165.341 124.088L164.527 124.473L163.899 125.117L167.478 128.608ZM169.085 127.477L165.383 124.116L165.383 124.116L169.085 127.477ZM169.554 116.365L164.934 118.279L165.066 118.596L165.24 118.893L169.554 116.365ZM169.336 115.873L164.516 117.203L164.631 117.62L164.816 118.01L169.336 115.873ZM154.775 63.1335L159.595 61.8028L158.151 56.5751L153.058 58.4376L154.775 63.1335ZM136.419 157.754L138.323 162.378L136.419 157.754ZM188.919 154.254L193.868 153.542L193.395 150.249L190.174 149.414L188.919 154.254ZM97.7606 184.69L94.1879 188.188L97.7748 191.852L101.347 188.174L97.7606 184.69ZM59.2749 158.05L61.1787 153.426L59.2749 158.05ZM6.77494 154.55L5.5201 149.71L2.29947 150.545L1.82586 153.838L6.77494 154.55ZM5.33421 164.568L5.77766 169.548L9.7199 169.197L10.2833 165.279L5.33421 164.568ZM1.04734 167.922L5.775 169.549L5.77502 169.549L1.04734 167.922ZM4.14738 174.277L2.51974 179.005H2.51975L4.14738 174.277ZM97.0958 206.277L95.4682 211.005L95.4683 211.005L97.0958 206.277ZM98.7404 206.843L97.1128 211.571L98.7573 212.137L100.398 211.56L98.7404 206.843ZM100.381 206.267L102.039 210.984L102.039 210.984L100.381 206.267ZM191.433 174.267L189.775 169.549H189.775L191.433 174.267ZM194.492 167.892L189.775 169.549L189.775 169.549L194.492 167.892ZM190.405 164.588L185.456 165.3L185.998 169.065L189.771 169.548L190.405 164.588ZM194.492 184.892L199.209 183.234V183.234L194.492 184.892ZM191.433 191.267L189.775 186.549L191.433 191.267ZM188.117 181.832L186.459 177.115H186.459L188.117 181.832ZM98.7065 213.256L97.0789 217.983L98.7234 218.549L100.364 217.973L98.7065 213.256ZM7.40261 181.822L5.77496 186.549H5.77499L7.40261 181.822ZM1.04732 184.922L-3.68035 183.294H-3.68035L1.04732 184.922ZM4.14736 191.277L5.77498 186.549H5.77498L4.14736 191.277ZM97.0958 223.277L98.7235 218.549H98.7234L97.0958 223.277ZM98.7404 223.843L97.1127 228.571L98.7573 229.137L100.398 228.56L98.7404 223.843ZM100.381 223.267L102.039 227.984H102.039L100.381 223.267ZM8.38393 41.3915C3.78259 39.8198 3.90479 33.2703 8.56154 31.8713L5.68447 22.2941C-8.28579 26.4909 -8.65239 46.1397 5.15163 50.8547L8.38393 41.3915ZM15.3911 43.7848L8.38391 41.3915L5.15165 50.8547L12.1588 53.2481L15.3911 43.7848ZM18.775 76.0494V48.5165H8.77495V76.0494H18.775ZM17.275 74.5494C18.1034 74.5494 18.775 75.221 18.775 76.0494H8.77495C8.77495 80.7438 12.5805 84.5494 17.275 84.5494V74.5494ZM15.775 76.0494C15.775 75.221 16.4465 74.5494 17.275 74.5494V84.5494C21.9694 84.5494 25.775 80.7438 25.775 76.0494H15.775ZM15.775 50.9074V76.0494H25.775V50.9074H15.775ZM97.1249 71.7022L22.3911 46.1758L19.1588 55.6391L93.8926 81.1654L97.1249 71.7022ZM100.387 71.6917C99.3317 72.0599 98.183 72.0636 97.1248 71.7022L93.8927 81.1654C97.0669 82.2496 100.513 82.2386 103.68 81.134L100.387 71.6917ZM187.306 41.3798L100.387 71.6917L103.68 81.134L190.599 50.8221L187.306 41.3798ZM187.126 31.8785C191.745 33.2952 191.868 39.789 187.306 41.3798L190.599 50.8221C204.284 46.0495 203.915 26.5683 190.058 22.3181L187.126 31.8785ZM100.211 5.21981L187.126 31.8785L190.058 22.3181L103.143 -4.34058L100.211 5.21981ZM97.3063 5.21139C98.2539 4.92669 99.2648 4.92961 100.211 5.2198L103.143 -4.34057C100.305 -5.21115 97.2723 -5.21995 94.429 -4.36574L97.3063 5.21139ZM8.56155 31.8713L97.3062 5.21142L94.4291 -4.36576L5.68446 22.2942L8.56155 31.8713ZM17.275 116.549C20.6173 116.549 22.3699 113.961 22.9416 112.993C23.7112 111.691 24.2309 110.14 24.6005 108.662C25.359 105.628 25.775 101.701 25.775 97.5494H15.775C15.775 101.13 15.4074 104.203 14.8991 106.236C14.6354 107.291 14.4009 107.79 14.333 107.905C14.0673 108.355 14.8991 106.549 17.275 106.549V116.549ZM8.77495 97.5494C8.77495 101.701 9.19086 105.628 9.94937 108.662C10.319 110.14 10.8387 111.691 11.6083 112.993C12.18 113.961 13.9326 116.549 17.275 116.549V106.549C19.6508 106.549 20.4827 108.355 20.2169 107.905C20.149 107.79 19.9145 107.291 19.6508 106.236C19.1425 104.203 18.775 101.13 18.775 97.5494H8.77495ZM17.275 78.5494C13.9326 78.5494 12.18 81.1381 11.6083 82.1054C10.8387 83.4075 10.319 84.9587 9.94937 86.4372C9.19086 89.4712 8.77495 93.3977 8.77495 97.5494H18.775C18.775 93.9691 19.1425 90.8956 19.6508 88.8626C19.9145 87.8076 20.149 87.3086 20.2169 87.1937C20.4827 86.7442 19.6508 88.5494 17.275 88.5494V78.5494ZM25.775 97.5494C25.775 93.3977 25.359 89.4712 24.6005 86.4372C24.2309 84.9587 23.7112 83.4075 22.9416 82.1054C22.3699 81.1381 20.6173 78.5494 17.275 78.5494V88.5494C14.8991 88.5494 14.0673 86.7442 14.333 87.1937C14.4009 87.3086 14.6354 87.8076 14.8991 88.8626C15.4074 90.8956 15.775 93.9691 15.775 97.5494H25.775ZM38.016 67.2298L95.516 88.8393L99.0339 79.4786L41.5339 57.869L38.016 67.2298ZM28.5712 118.278L44.5712 63.9623L34.9787 61.1366L18.9787 115.452L28.5712 118.278ZM24.3897 111.901L24.2499 111.888L23.3 121.843L23.4398 121.856L24.3897 111.901ZM30.7274 122.842C29.2559 122.082 28.3236 120.028 28.7889 117.993L19.0406 115.764C17.7597 121.364 19.8612 128.484 26.1371 131.726L30.7274 122.842ZM34.4796 125.972C33.6333 125.615 32.992 125.071 32.5108 124.392L24.3537 130.177C25.8576 132.297 27.9476 134.069 30.5925 135.185L34.4796 125.972ZM96.8948 152.304L34.4796 125.972L30.5925 135.185L93.0077 161.518L96.8948 152.304ZM99.6772 152.31C98.7708 152.688 97.8011 152.686 96.8948 152.304L93.0077 161.518C96.3863 162.943 100.145 162.951 103.529 161.538L99.6772 152.31ZM162.384 126.137L99.6772 152.31L103.529 161.538L166.236 135.366L162.384 126.137ZM163.899 125.117C163.496 125.53 163.001 125.88 162.384 126.137L166.236 135.366C168.117 134.581 169.732 133.458 171.057 132.1L163.899 125.117ZM165.383 124.116C165.418 124.077 165.449 124.048 165.472 124.028C165.495 124.009 165.509 123.999 165.509 123.999C165.51 123.999 165.498 124.007 165.47 124.023C165.441 124.038 165.4 124.06 165.341 124.088L169.615 133.129C170.544 132.689 171.735 131.996 172.786 130.838L165.383 124.116ZM165.24 118.893C166.486 121.019 166.188 123.229 165.383 124.116L172.786 130.838C177.573 125.566 176.423 118.198 173.868 113.837L165.24 118.893ZM164.816 118.01C164.857 118.098 164.897 118.187 164.934 118.279L174.173 114.451C174.073 114.21 173.967 113.971 173.855 113.735L164.816 118.01ZM149.955 64.4641L164.516 117.203L174.155 114.542L159.595 61.8028L149.955 64.4641ZM98.9921 88.8549L156.492 67.8294L153.058 58.4376L95.5579 79.463L98.9921 88.8549ZM138.323 162.378C150.171 157.499 162.503 156.643 172.012 157.062C176.742 157.27 180.708 157.791 183.473 158.255C184.855 158.487 185.932 158.705 186.649 158.86C187.008 158.938 187.277 159.001 187.448 159.041C187.534 159.062 187.596 159.077 187.632 159.086C187.65 159.091 187.662 159.094 187.667 159.095C187.67 159.096 187.671 159.096 187.671 159.096C187.67 159.096 187.67 159.096 187.669 159.095C187.668 159.095 187.667 159.095 187.667 159.095C187.666 159.095 187.664 159.094 188.919 154.254C190.174 149.414 190.172 149.414 190.171 149.413C190.17 149.413 190.168 149.413 190.167 149.412C190.164 149.412 190.161 149.411 190.158 149.41C190.151 149.408 190.142 149.406 190.132 149.403C190.111 149.398 190.084 149.391 190.05 149.383C189.982 149.366 189.889 149.343 189.771 149.315C189.534 149.258 189.198 149.181 188.769 149.088C187.91 148.901 186.679 148.654 185.13 148.394C182.037 147.874 177.659 147.301 172.451 147.072C162.085 146.615 148.167 147.509 134.515 153.131L138.323 162.378ZM101.347 188.174C107.624 181.712 121.016 169.504 138.323 162.378L134.515 153.131C115.379 161.011 100.861 174.323 94.1741 181.206L101.347 188.174ZM57.3711 162.673C74.6383 169.783 87.9337 181.8 94.1879 188.188L101.333 181.192C94.6587 174.375 80.2475 161.278 61.1787 153.426L57.3711 162.673ZM6.77494 154.55C8.02978 159.39 8.02848 159.39 8.02728 159.39C8.02702 159.39 8.02592 159.391 8.02539 159.391C8.02433 159.391 8.02368 159.391 8.02343 159.391C8.02293 159.391 8.02405 159.391 8.02677 159.39C8.03221 159.389 8.04405 159.386 8.06219 159.381C8.09847 159.372 8.15992 159.357 8.24567 159.337C8.4172 159.296 8.6858 159.233 9.04457 159.156C9.76237 159 10.8394 158.783 12.2205 158.551C14.9863 158.086 18.9522 157.565 23.6824 157.357C33.1908 156.938 45.5232 157.794 57.3711 162.673L61.1787 153.426C47.5267 147.805 33.6091 146.91 23.2425 147.367C18.0352 147.596 13.6573 148.169 10.5637 148.689C9.01521 148.949 7.78361 149.197 6.92524 149.383C6.49592 149.476 6.15954 149.554 5.92311 149.61C5.80489 149.638 5.71161 149.661 5.64416 149.678C5.61044 149.687 5.58316 149.693 5.56245 149.699C5.55209 149.701 5.54338 149.704 5.53632 149.705C5.53278 149.706 5.52967 149.707 5.52696 149.708C5.52561 149.708 5.5239 149.709 5.52322 149.709C5.52161 149.709 5.5201 149.71 6.77494 154.55ZM10.2833 165.279L11.724 155.261L1.82586 153.838L0.385125 163.856L10.2833 165.279ZM5.77502 169.549C5.77668 169.545 5.77762 169.543 5.77729 169.544C5.777 169.544 5.77621 169.545 5.77496 169.547C5.77233 169.551 5.77046 169.552 5.77097 169.552C5.77194 169.551 5.77425 169.55 5.77717 169.548C5.77988 169.547 5.78027 169.548 5.77766 169.548L4.89076 159.587C1.09407 159.925 -2.35267 162.438 -3.68034 166.294L5.77502 169.549ZM5.77502 169.549L5.775 169.549L-3.68032 166.294C-5.47818 171.516 -2.70226 177.207 2.51974 179.005L5.77502 169.549ZM98.7235 201.549L5.77501 169.549L2.51975 179.005L95.4682 211.005L98.7235 201.549ZM100.368 202.116L98.7234 201.549L95.4683 211.005L97.1128 211.571L100.368 202.116ZM98.7235 201.549L97.0826 202.126L100.398 211.56L102.039 210.984L98.7235 201.549ZM189.775 169.549L98.7234 201.549L102.039 210.984L193.091 178.984L189.775 169.549ZM189.775 169.549L189.775 169.549L193.091 178.984C198.301 177.153 201.04 171.444 199.209 166.234L189.775 169.549ZM189.771 169.548C189.77 169.548 189.771 169.548 189.774 169.549C189.777 169.55 189.779 169.551 189.779 169.552C189.779 169.552 189.777 169.55 189.775 169.547C189.774 169.545 189.773 169.544 189.773 169.544C189.772 169.543 189.773 169.545 189.775 169.549L199.209 166.234C197.91 162.536 194.659 160.091 191.039 159.629L189.771 169.548ZM183.97 154.966L185.456 165.3L195.354 163.876L193.868 153.542L183.97 154.966ZM189.775 186.549V186.549L193.091 195.984C198.301 194.153 201.04 188.444 199.209 183.234L189.775 186.549ZM189.775 186.549H189.775L199.209 183.234C197.378 178.023 191.67 175.284 186.459 177.115L189.775 186.549ZM100.364 217.973L189.775 186.549L186.459 177.115L97.0487 208.538L100.364 217.973ZM5.77499 186.549L97.0789 217.983L100.334 208.528L9.03024 177.094L5.77499 186.549ZM5.77499 186.549H5.77496L9.03026 177.094C3.8082 175.296 -1.88253 178.072 -3.68035 183.294L5.77499 186.549ZM5.77498 186.549H5.77499L-3.68035 183.294C-5.47817 188.516 -2.7023 194.207 2.51974 196.005L5.77498 186.549ZM98.7234 218.549L5.77498 186.549L2.51973 196.005L95.4682 228.005L98.7234 218.549ZM100.368 219.116L98.7235 218.549L95.4682 228.005L97.1127 228.571L100.368 219.116ZM98.7234 218.549L97.0825 219.126L100.398 228.56L102.039 227.984L98.7234 218.549ZM189.775 186.549L98.7234 218.549L102.039 227.984L193.091 195.984L189.775 186.549Z" fill="black" mask="url(#path-1-inside-1)"/>
</svg>
