<svg width="196" height="224" viewBox="0 0 196 224" fill="none" xmlns="http://www.w3.org/2000/svg">
<path fill-rule="evenodd" clip-rule="evenodd" d="M7.03898 31.9936C-1.79762 35.163 -1.79764 47.5027 7.03896 50.6721L15.0001 53.5275V106.95C15.0001 107.999 15.4614 108.94 16.1921 109.581C14.879 112.168 13.9999 116.896 13.9999 122.299C13.9999 130.479 16.0146 137.11 18.4999 137.11C20.9852 137.11 22.9999 130.479 22.9999 122.299C22.9999 116.896 22.1209 112.169 20.8078 109.582C21.5387 108.94 22.0001 107.999 22.0001 106.95V56.0382L94.5644 82.0646C96.784 82.8607 99.2164 82.8607 101.436 82.0646L188.961 50.6721C197.798 47.5027 197.798 35.1629 188.961 31.9935L101.436 0.601096C99.2164 -0.194995 96.784 -0.194994 94.5644 0.601096L7.03898 31.9936ZM42.9719 72.1287L31.7543 146.893C31.2575 148.372 31 149.886 31 151.427C31 151.576 31.0024 151.724 31.0072 151.872L31 151.92H31.0088C31.5952 168.325 61.3636 181.542 98 181.542C134.636 181.542 164.405 168.325 164.991 151.92H165L164.993 151.871C164.998 151.723 165 151.575 165 151.427C165 149.945 164.762 148.487 164.301 147.062L153.502 71.9586L101.436 90.6332C99.2163 91.4293 96.7839 91.4293 94.5643 90.6332L42.9719 72.1287ZM16.2919 191.416C7.29415 191.416 0 198.71 0 207.708C0 216.706 7.29414 224 16.2919 224H179.708C188.706 224 196 216.706 196 207.708C196 198.71 188.706 191.416 179.708 191.416H16.2919ZM31.4811 207.214C30.6631 207.214 30 207.877 30 208.695C30 209.513 30.6631 210.177 31.4811 210.177H162.519C163.337 210.177 164 209.513 164 208.695C164 207.877 163.337 207.214 162.519 207.214H31.4811Z" fill="black"/>
</svg>
