<svg width="196" height="224" viewBox="0 0 196 224" fill="none" xmlns="http://www.w3.org/2000/svg">
<path fill-rule="evenodd" clip-rule="evenodd" d="M10 0C4.47715 0 0 4.47715 0 10V12C0 17.5228 4.47715 22 10 22H17V70.5328C14.651 73.5468 13 80.6802 13 89C13 100.046 15.9101 109 19.5 109C23.0899 109 26 100.046 26 89C26 80.6802 24.349 73.5468 22 70.5328V22H186C191.523 22 196 17.5228 196 12V10C196 4.47715 191.523 0 186 0H10ZM148 27H47L32.9482 85.3148C29.9167 97.8959 39.4506 110 52.3917 110H144.008C157.136 110 166.704 97.5657 163.341 84.8758L148 27ZM20 181C8.9543 181 0 189.954 0 201V204C0 215.046 8.95431 224 20 224H176V215H164.327V205H26V202H164.327V192H176V181H20ZM22 146C22 134.954 30.9543 126 42 126H187V137.628H176.056V151H46V154H176.056V164.372H187V176H42C30.9543 176 22 167.046 22 156V146Z" fill="#0D0D0D"/>
</svg>
