<svg width="197" height="224" viewBox="0 0 197 224" fill="none" xmlns="http://www.w3.org/2000/svg">
<path fill-rule="evenodd" clip-rule="evenodd" d="M6.74229 72.1913C-3.61803 63.1039 -2.02028 45.2189 11.4099 38.8163L88.8144 1.91486C94.1224 -0.61565 100.262 -0.639145 105.589 1.85067L184.538 38.7531C199.827 45.8998 199.962 67.8753 184.761 75.2136L105.815 113.326C100.362 115.958 94.0239 115.933 88.5915 113.259L17.5563 78.2826V106.014C17.5563 108.776 15.3178 111.014 12.5563 111.014H11.7423C8.98088 111.014 6.74229 108.776 6.74229 106.014V72.1913ZM98.2192 38.9535L61.7927 57.0009C61.5356 57.1283 61.4293 57.2618 61.3685 57.3665C61.2922 57.4978 61.2337 57.6874 61.2357 57.9141C61.2377 58.1409 61.2994 58.3294 61.378 58.4593C61.4406 58.5629 61.5491 58.6945 61.8084 58.8173L96.7291 75.3555C97.0026 75.485 97.3194 75.4815 97.59 75.3458L134.729 56.7268C134.99 56.596 135.095 56.4606 135.154 56.3563C135.229 56.2243 135.287 56.0324 135.282 55.8027C135.277 55.5731 135.212 55.3839 135.131 55.2552C135.067 55.1536 134.956 55.0229 134.69 54.9037L99.0571 38.9371C98.7891 38.8171 98.4825 38.823 98.2192 38.9535ZM58.7392 50.6699C52.7391 53.6426 52.8144 62.3361 58.8651 65.2016L93.7858 81.7398C95.9738 82.776 98.5079 82.7475 100.673 81.6622L137.812 63.0432C143.852 60.015 143.665 51.2202 137.502 48.4586L101.868 32.492C99.7246 31.5314 97.2716 31.5792 95.1658 32.6225L58.7392 50.6699ZM17.5563 138.415C17.5563 148.596 14.2552 156.848 10.1831 156.848C6.11094 156.848 2.80983 148.596 2.80983 138.415C2.80983 128.235 6.11094 119.982 10.1831 119.982C14.2552 119.982 17.5563 128.235 17.5563 138.415ZM48.0101 103.2C34.7447 96.9525 19.4887 106.631 19.4887 121.294V175.15C19.4887 182.235 23.2369 188.791 29.3423 192.385L70.9433 216.876L70.9576 216.884C77.2452 221.352 84.9324 223.979 93.233 223.979H101.233C109.191 223.979 116.585 221.564 122.722 217.428C123.541 217.068 124.352 216.647 125.149 216.163L164.219 192.426C170.19 188.799 173.835 182.319 173.835 175.333V121.725C173.835 106.956 158.376 97.2811 145.092 103.737L106.021 122.727C102.614 124.383 99.8228 126.929 97.8719 130.007C95.883 126.939 93.0529 124.413 89.6112 122.793L48.0101 103.2Z" fill="black"/>
</svg>
