<svg width="197" height="227" viewBox="0 0 197 227" fill="none" xmlns="http://www.w3.org/2000/svg">
<path d="M48.2709 103.229L47.2054 105.49L48.2709 103.229ZM89.8371 122.813L88.7715 125.075L89.8371 122.813ZM98.0962 130.028L95.9983 131.388L98.1198 134.662L100.208 131.366L98.0962 130.028ZM106.244 122.748L105.151 120.499L106.244 122.748ZM145.281 103.766L144.188 101.518V101.518L145.281 103.766ZM164.414 192.448L163.116 190.311L164.414 192.448ZM125.377 216.174L124.079 214.038H124.079L125.377 216.174ZM123.102 217.373L122.077 215.093L121.878 215.182L121.698 215.305L123.102 217.373ZM71.3669 217.006L72.8058 214.962L72.7115 214.895L72.6116 214.838L71.3669 217.006ZM71.163 216.887L72.4318 214.733L72.4317 214.733L71.163 216.887ZM29.5969 192.407L28.3281 194.561H28.3281L29.5969 192.407ZM22.2465 121.321C22.2465 108.49 35.5979 100.021 47.2054 105.49L49.3365 100.967C34.4126 93.9354 17.2465 104.823 17.2465 121.321H22.2465ZM47.2054 105.49L88.7715 125.075L90.9027 120.551L49.3365 100.967L47.2054 105.49ZM88.7715 125.075C91.7828 126.493 94.2581 128.703 95.9983 131.388L100.194 128.669C97.9576 125.217 94.7739 122.375 90.9027 120.551L88.7715 125.075ZM100.208 131.366C101.915 128.673 104.356 126.445 107.337 124.996L105.151 120.499C101.319 122.363 98.1784 125.228 95.9845 128.69L100.208 131.366ZM107.337 124.996L146.374 106.014L144.188 101.518L105.151 120.499L107.337 124.996ZM146.374 106.014C157.998 100.363 171.527 108.828 171.527 121.753H176.527C176.527 105.135 159.132 94.2513 144.188 101.518L146.374 106.014ZM171.527 121.753V175.357H176.527V121.753H171.527ZM171.527 175.357C171.527 181.468 168.338 187.137 163.116 190.311L165.713 194.584C172.427 190.503 176.527 183.215 176.527 175.357H171.527ZM163.116 190.311L124.079 214.038L126.676 218.311L165.713 194.584L163.116 190.311ZM124.079 214.038C123.419 214.439 122.75 214.79 122.077 215.093L124.127 219.653C124.99 219.265 125.84 218.819 126.676 218.311L124.079 214.038ZM121.698 215.305C115.939 219.215 108.99 221.5 101.5 221.5V226.5C110.023 226.5 117.946 223.897 124.507 219.441L121.698 215.305ZM101.5 221.5H93.5V226.5H101.5V221.5ZM93.5 221.5C85.7935 221.5 78.6594 219.081 72.8058 214.962L69.928 219.05C76.5966 223.744 84.7302 226.5 93.5 226.5V221.5ZM72.6116 214.838C72.5516 214.803 72.4917 214.769 72.4318 214.733L69.8943 219.042C69.9701 219.086 70.0461 219.13 70.1222 219.174L72.6116 214.838ZM72.4317 214.733L30.8656 190.253L28.3281 194.561L69.8943 219.042L72.4317 214.733ZM30.8656 190.253C25.5249 187.107 22.2465 181.372 22.2465 175.174H17.2465C17.2465 183.142 21.4616 190.517 28.3281 194.561L30.8656 190.253ZM22.2465 175.174V121.321H17.2465V175.174H22.2465Z" fill="black"/>
<mask id="path-2-inside-1" fill="white">
<path fill-rule="evenodd" clip-rule="evenodd" d="M11.6798 38.8339C-1.74441 45.2364 -3.34407 63.1186 7.00639 72.2098V106.036C7.00639 108.797 9.24496 111.036 12.0064 111.036H12.8158C15.5773 111.036 17.8158 108.797 17.8158 106.036V78.3039L88.8188 113.279C94.2501 115.954 100.587 115.979 106.038 113.346L184.941 75.2388C200.139 67.8989 200.004 45.9188 184.718 38.7707L105.813 1.87282C100.487 -0.617521 94.3485 -0.59402 89.0417 1.93702L11.6798 38.8339ZM62.0371 57.022L98.4443 38.9765C98.7075 38.846 99.014 38.84 99.2819 38.9602L134.896 54.9249C135.162 55.0442 135.273 55.1749 135.336 55.2765C135.417 55.4052 135.482 55.5944 135.487 55.8241C135.492 56.0539 135.435 56.2457 135.36 56.3778C135.301 56.4822 135.195 56.6176 134.935 56.7484L97.8154 75.3655C97.5449 75.5011 97.2282 75.5047 96.9548 75.3752L62.0528 58.8388C61.7936 58.716 61.685 58.5843 61.6225 58.4807C61.544 58.3508 61.4822 58.1622 61.4802 57.9354C61.4782 57.7086 61.5368 57.519 61.613 57.3876C61.6738 57.283 61.78 57.1494 62.0371 57.022ZM59.1101 65.2244C53.0608 62.3583 52.9855 53.663 58.9843 50.6897L95.3915 32.6442C97.4969 31.6006 99.9493 31.5529 102.093 32.5137L137.707 48.4784C143.869 51.2406 144.056 60.0373 138.017 63.0661L100.897 81.6832C98.7332 82.7686 96.1995 82.7972 94.012 81.7608L59.1101 65.2244ZM10.4456 156.87C14.516 156.87 17.8157 148.617 17.8157 138.436C17.8157 128.256 14.516 120.003 10.4456 120.003C6.37527 120.003 3.07557 128.256 3.07557 138.436C3.07557 148.617 6.37527 156.87 10.4456 156.87Z"/>
</mask>
<path d="M7.00639 72.2098H12.0064V69.9467L10.306 68.4531L7.00639 72.2098ZM11.6798 38.8339L9.52741 34.3209H9.5274L11.6798 38.8339ZM17.8158 78.3039L20.0253 73.8186L12.8158 70.2673V78.3039H17.8158ZM88.8188 113.279L86.6094 117.764L88.8188 113.279ZM106.038 113.346L103.864 108.844H103.864L106.038 113.346ZM184.941 75.2388L187.116 79.7412H187.116L184.941 75.2388ZM184.718 38.7707L186.836 34.2414L184.718 38.7707ZM105.813 1.87282L103.695 6.40208V6.40208L105.813 1.87282ZM89.0417 1.93702L91.1941 6.45001L89.0417 1.93702ZM98.4443 38.9765L96.2238 34.4966L96.2238 34.4966L98.4443 38.9765ZM62.0371 57.022L64.2576 61.5019L64.2576 61.5019L62.0371 57.022ZM99.2819 38.9602L97.2366 43.5227L97.2367 43.5227L99.2819 38.9602ZM134.896 54.9249L136.941 50.3624L136.941 50.3624L134.896 54.9249ZM135.336 55.2765L139.574 52.622L139.573 52.6218L135.336 55.2765ZM135.487 55.8241L130.488 55.9304V55.9304L135.487 55.8241ZM135.36 56.3778L139.707 58.8487L139.707 58.8486L135.36 56.3778ZM134.935 56.7484L132.693 52.279L132.693 52.279L134.935 56.7484ZM97.8154 75.3655L95.5738 70.8961L95.5738 70.8961L97.8154 75.3655ZM96.9548 75.3752L99.0956 70.8567L99.0956 70.8567L96.9548 75.3752ZM62.0528 58.8388L59.9119 63.3573L59.912 63.3573L62.0528 58.8388ZM61.6225 58.4807L57.3427 61.0661L57.3428 61.0661L61.6225 58.4807ZM61.4802 57.9354L56.4804 57.9786V57.9787L61.4802 57.9354ZM61.613 57.3876L57.2889 54.8773L57.2889 54.8773L61.613 57.3876ZM58.9843 50.6897L56.7638 46.2098L58.9843 50.6897ZM59.1101 65.2244L61.2509 60.7059L59.1101 65.2244ZM95.3915 32.6442L93.171 28.1643L93.171 28.1643L95.3915 32.6442ZM102.093 32.5137L100.047 37.0762H100.047L102.093 32.5137ZM137.707 48.4784L139.752 43.9159H139.752L137.707 48.4784ZM138.017 63.0661L140.258 67.5354L138.017 63.0661ZM100.897 81.6832L98.6558 77.2138V77.2138L100.897 81.6832ZM94.012 81.7608L96.1529 77.2423L94.012 81.7608ZM10.306 68.4531C2.5058 61.6019 3.82298 48.1207 13.8322 43.3469L9.5274 34.3209C-7.31179 42.3522 -9.19393 64.6353 3.70677 75.9665L10.306 68.4531ZM12.0064 106.036V72.2098H2.00639V106.036H12.0064ZM12.0064 106.036H12.0064H2.00639C2.00639 111.558 6.48353 116.036 12.0064 116.036V106.036ZM12.8158 106.036H12.0064V116.036H12.8158V106.036ZM12.8158 106.036H12.8158V116.036C18.3387 116.036 22.8158 111.558 22.8158 106.036H12.8158ZM12.8158 78.3039V106.036H22.8158V78.3039H12.8158ZM91.0282 108.794L20.0253 73.8186L15.6064 82.7893L86.6094 117.764L91.0282 108.794ZM103.864 108.844C99.7983 110.807 95.0788 110.789 91.0282 108.794L86.6094 117.764C93.4213 121.12 101.375 121.151 108.213 117.849L103.864 108.844ZM182.767 70.7364L103.864 108.844L108.213 117.849L187.116 79.7412L182.767 70.7364ZM182.6 43.2999C194.068 48.6626 194.172 65.2278 182.767 70.7364L187.116 79.7412C206.105 70.5701 205.94 43.175 186.836 34.2414L182.6 43.2999ZM103.695 6.40208L182.6 43.2999L186.836 34.2414L107.931 -2.65643L103.695 6.40208ZM91.1941 6.45001C95.1516 4.56251 99.7237 4.5451 103.695 6.40208L107.931 -2.65643C101.251 -5.78014 93.5454 -5.75055 86.8892 -2.57597L91.1941 6.45001ZM13.8322 43.3469L91.1941 6.45001L86.8892 -2.57597L9.52741 34.3209L13.8322 43.3469ZM96.2238 34.4966L59.8166 52.5421L64.2576 61.5019L100.665 43.4563L96.2238 34.4966ZM101.327 34.3976C99.6957 33.6663 97.8245 33.7031 96.2238 34.4966L100.665 43.4564C99.5903 43.9889 98.3323 44.0138 97.2366 43.5227L101.327 34.3976ZM136.941 50.3624L101.327 34.3976L97.2367 43.5227L132.851 59.4875L136.941 50.3624ZM139.573 52.6218C138.994 51.6972 138.128 50.8942 136.941 50.3624L132.851 59.4874C132.592 59.3716 132.252 59.1786 131.899 58.8699C131.529 58.5461 131.271 58.2044 131.099 57.9312L139.573 52.6218ZM140.486 55.7179C140.463 54.6206 140.152 53.5449 139.574 52.622L131.099 57.931C130.682 57.2655 130.502 56.5683 130.488 55.9304L140.486 55.7179ZM139.707 58.8486C140.244 57.9028 140.51 56.8154 140.486 55.7179L130.488 55.9304C130.475 55.2923 130.626 54.5887 131.013 53.9071L139.707 58.8486ZM137.176 61.2177C138.338 60.6353 139.168 59.7963 139.707 58.8487L131.013 53.907C131.172 53.6272 131.416 53.2752 131.771 52.9362C132.109 52.613 132.441 52.4057 132.693 52.279L137.176 61.2177ZM100.057 79.8348L137.176 61.2177L132.693 52.279L95.5738 70.8961L100.057 79.8348ZM94.8139 79.8936C96.4783 80.6822 98.4115 80.6602 100.057 79.8348L95.5738 70.8961C96.6783 70.3421 97.9781 70.3272 99.0956 70.8567L94.8139 79.8936ZM59.912 63.3573L94.8139 79.8937L99.0956 70.8567L64.1937 54.3203L59.912 63.3573ZM57.3428 61.0661C57.9032 61.9938 58.7485 62.806 59.9119 63.3573L64.1937 54.3203C64.4502 54.4419 64.7837 54.6406 65.1266 54.9522C65.4851 55.278 65.7356 55.6197 65.9022 55.8954L57.3428 61.0661ZM56.4804 57.9787C56.4898 59.0682 56.7834 60.1401 57.3427 61.0661L65.9022 55.8954C66.3045 56.5614 66.4745 57.2563 66.48 57.8921L56.4804 57.9787ZM57.2889 54.8773C56.7459 55.8125 56.471 56.8892 56.4804 57.9786L66.48 57.8922C66.4855 58.528 66.3276 59.2254 65.9371 59.898L57.2889 54.8773ZM59.8167 52.5421C58.6634 53.1137 57.8328 53.9403 57.2889 54.8773L65.9371 59.898C65.7755 60.1763 65.5312 60.5221 65.1786 60.854C64.8415 61.1714 64.5117 61.3759 64.2576 61.5019L59.8167 52.5421ZM56.7638 46.2098C47.025 51.0369 47.1422 65.0869 56.9692 69.7429L61.2509 60.7059C58.9793 59.6297 58.946 56.2892 61.2048 55.1696L56.7638 46.2098ZM93.171 28.1643L56.7638 46.2098L61.2048 55.1696L97.612 37.1241L93.171 28.1643ZM104.138 27.9511C100.631 26.3791 96.6139 26.4578 93.171 28.1643L97.612 37.1241C98.3798 36.7435 99.2676 36.7267 100.047 37.0762L104.138 27.9511ZM139.752 43.9159L104.138 27.9511L100.047 37.0762L135.662 53.041L139.752 43.9159ZM140.258 67.5354C150.058 62.6203 149.767 48.4054 139.752 43.9159L135.662 53.041C137.97 54.0758 138.053 57.4543 135.775 58.5967L140.258 67.5354ZM103.139 86.1525L140.258 67.5354L135.775 58.5967L98.6558 77.2138L103.139 86.1525ZM91.8712 86.2793C95.4496 87.9747 99.5997 87.9277 103.139 86.1525L98.6558 77.2138C97.8666 77.6096 96.9494 77.6197 96.1529 77.2423L91.8712 86.2793ZM56.9692 69.7429L91.8712 86.2793L96.1529 77.2423L61.2509 60.7059L56.9692 69.7429ZM12.8157 138.436C12.8157 143.054 12.0583 147.003 11.0144 149.614C10.4869 150.934 9.98377 151.666 9.68088 151.986C9.38789 152.296 9.64457 151.87 10.4456 151.87V161.87C13.2819 161.87 15.4774 160.411 16.9479 158.856C18.4085 157.311 19.4935 155.343 20.2997 153.327C21.9232 149.266 22.8157 144 22.8157 138.436H12.8157ZM10.4456 125.003C9.64457 125.003 9.38789 124.576 9.68088 124.886C9.98377 125.207 10.4869 125.939 11.0144 127.258C12.0583 129.869 12.8157 133.819 12.8157 138.436H22.8157C22.8157 132.873 21.9232 127.606 20.2997 123.546C19.4935 121.529 18.4085 119.562 16.9479 118.017C15.4774 116.461 13.2819 115.003 10.4456 115.003V125.003ZM8.07557 138.436C8.07557 133.819 8.83294 129.869 9.87688 127.258C10.4044 125.939 10.9075 125.207 11.2104 124.886C11.5034 124.576 11.2467 125.003 10.4456 125.003V115.003C7.60938 115.003 5.41385 116.461 3.94335 118.017C2.48275 119.562 1.39775 121.529 0.591552 123.546C-1.03195 127.606 -1.92443 132.873 -1.92443 138.436H8.07557ZM10.4456 151.87C11.2467 151.87 11.5034 152.296 11.2104 151.986C10.9075 151.666 10.4044 150.934 9.87688 149.614C8.83294 147.003 8.07557 143.054 8.07557 138.436H-1.92443C-1.92443 144 -1.03195 149.266 0.591552 153.327C1.39775 155.343 2.48275 157.311 3.94335 158.856C5.41385 160.411 7.60938 161.87 10.4456 161.87V151.87Z" fill="black" mask="url(#path-2-inside-1)"/>
</svg>
