<svg width="196" height="224" viewBox="0 0 196 224" fill="none" xmlns="http://www.w3.org/2000/svg">
<path fill-rule="evenodd" clip-rule="evenodd" d="M7.123 27.0827C-2.19051 29.8806 -2.4349 42.9798 6.76778 46.1231L13.775 48.5165V76.0494C13.775 77.9824 15.342 79.5494 17.275 79.5494C19.2079 79.5494 20.775 77.9824 20.775 76.0494V50.9075L95.5088 76.4338C97.625 77.1566 99.9224 77.1493 102.034 76.4129L188.952 46.101C198.076 42.9192 197.83 29.9318 188.592 27.0983L101.677 0.43961C101.441 0.367064 101.202 0.303494 100.962 0.248903C100.22 0.0801859 99.4635 -0.0027726 98.7072 7.06642e-05C98.2399 0.00182729 97.7726 0.0363347 97.309 0.103603C96.8233 0.174062 96.3415 0.280465 95.8677 0.422821L7.123 27.0827ZM20.775 97.5494C20.775 105.281 19.2079 111.549 17.275 111.549C15.342 111.549 13.775 105.281 13.775 97.5494C13.775 89.8175 15.342 83.5494 17.275 83.5494C19.2079 83.5494 20.775 89.8175 20.775 97.5494ZM97.275 84.159L39.775 62.5494L23.775 116.865L23.9147 116.879C23.0417 120.696 24.5585 125.283 28.4322 127.284C29.4248 128.684 30.7904 129.842 32.536 130.579L94.9513 156.911C97.0937 157.815 99.4578 157.819 101.603 156.924L164.31 130.751C165.559 130.23 166.614 129.494 167.478 128.608C168.068 128.329 168.629 127.978 169.085 127.477C171.881 124.398 171.454 119.608 169.554 116.365C169.485 116.199 169.412 116.035 169.336 115.873L154.775 63.1335L97.275 84.159ZM188.919 154.254C188.919 154.254 161.919 147.254 136.419 157.754C118.197 165.257 104.242 178.017 97.7606 184.69C91.2962 178.088 77.4429 165.531 59.2749 158.05C33.7749 147.549 6.77494 154.55 6.77494 154.55L5.3342 164.568C3.42996 164.737 1.70991 165.997 1.04733 167.922C0.148421 170.533 1.53636 173.378 4.14738 174.277L97.0958 206.277L98.7404 206.843L100.381 206.267L191.433 174.267C194.038 173.351 195.408 170.497 194.492 167.892C193.844 166.046 192.222 164.82 190.405 164.588L188.919 154.254ZM191.433 191.267C194.038 190.351 195.408 187.497 194.492 184.892C193.577 182.286 190.722 180.917 188.117 181.832L98.7065 213.256L7.40261 181.822C4.79159 180.923 1.94623 182.311 1.04732 184.922C0.148402 187.533 1.53634 190.378 4.14736 191.277L97.0958 223.277L98.7404 223.843L100.381 223.267L191.433 191.267Z" fill="black"/>
</svg>
