<svg width="195" height="224" viewBox="0 0 195 224" fill="none" xmlns="http://www.w3.org/2000/svg">
<path fill-rule="evenodd" clip-rule="evenodd" d="M127 50C127 77.6142 104.614 100 77 100C49.3858 100 27 77.6142 27 50C27 22.3858 49.3858 0 77 0C104.614 0 127 22.3858 127 50ZM60 116.027C26.8629 116.027 0 142.89 0 176.027V213.027C0 218.55 4.47715 223.027 10 223.027H100.687C94.537 212.406 91 199.966 91 186.668C91 158.297 107.099 133.833 130.325 122.596C122.13 118.397 112.842 116.027 103 116.027H60ZM110.469 171.662C101.233 167.261 106.32 153.285 116.224 155.851C122.707 157.53 128.425 151.211 126.242 144.88C122.946 135.327 136.146 128.713 141.162 137.486C144.486 143.299 152.984 142.977 155.841 136.92C160.136 127.813 173.896 132.822 171.332 142.558C169.627 149.034 175.93 154.744 182.213 152.427C191.694 148.931 197.555 162.483 188.89 167.683C183.148 171.128 183.467 179.645 189.512 182.525C198.748 186.926 193.661 200.902 183.757 198.337C177.275 196.658 171.556 202.977 173.74 209.307C177.035 218.86 163.835 225.475 158.819 216.702C155.496 210.888 146.997 211.211 144.14 217.267C139.845 226.374 126.086 221.366 128.649 211.629C130.354 205.153 124.051 199.443 117.768 201.76C108.287 205.257 102.426 191.705 111.091 186.505C116.833 183.059 116.514 174.543 110.469 171.662ZM171.935 170.777C176.475 183.25 170.044 197.042 157.571 201.581C145.098 206.121 131.306 199.69 126.766 187.217C122.226 174.744 128.658 160.952 141.131 156.412C153.604 151.872 167.396 158.304 171.935 170.777Z" fill="black"/>
</svg>
