<svg width="196" height="224" viewBox="0 0 196 224" fill="none" xmlns="http://www.w3.org/2000/svg">
<path fill-rule="evenodd" clip-rule="evenodd" d="M114.002 179.943C111.585 183.167 108.437 185.417 105 186.693V126.929C105 123.063 101.866 119.929 97.9999 119.929C94.1339 119.929 90.9999 123.063 90.9999 126.929V186.693C87.5627 185.417 84.4147 183.167 81.9976 179.943L10.3238 84.3385C5.8271 78.3403 5.06225 70.3312 8.34245 63.5904L33.8129 11.2488C37.1615 4.36724 44.1436 0 51.7966 0H144.203C151.856 0 158.838 4.36725 162.187 11.2488L187.657 63.5904C190.938 70.3312 190.173 78.3403 185.676 84.3385L114.002 179.943ZM90.9999 186.693V194.204C90.9999 198.07 94.1339 201.204 97.9999 201.204C101.866 201.204 105 198.07 105 194.204V186.693C100.499 188.364 95.5013 188.364 90.9999 186.693ZM97.9999 97.9063C117.882 97.9063 134 82.7105 134 63.9655C134 45.2205 117.882 30.0246 97.9999 30.0246C78.1177 30.0246 61.9999 45.2205 61.9999 63.9655C61.9999 82.7105 78.1177 97.9063 97.9999 97.9063ZM17.8407 206.159C7.98756 206.159 0 214.147 0 224H196C196 214.147 188.012 206.159 178.159 206.159H17.8407Z" fill="black"/>
</svg>
