<svg width="197" height="207" viewBox="0 0 197 207" fill="none" xmlns="http://www.w3.org/2000/svg">
<mask id="path-1-inside-1" fill="white">
<path fill-rule="evenodd" clip-rule="evenodd" d="M138.438 3.48308C142.038 -0.705828 148.351 -1.1838 152.54 2.41549L192.549 36.7931C196.738 40.3924 197.216 46.706 193.617 50.8949L157.323 93.1345C154.413 96.5204 149.731 97.4818 145.83 95.8251L150.247 94.9176C154.316 94.0814 155.65 88.9351 152.499 86.2276L110.318 49.9841C107.167 47.2767 102.28 49.37 102.066 53.5189L101.817 58.3584C98.9671 54.6813 98.9945 49.3885 102.144 45.7227L138.438 3.48308ZM101.817 58.3584L99.725 98.9107C99.5565 102.178 102.52 104.725 105.725 104.066L145.83 95.8251C144.905 95.4322 144.024 94.8921 143.221 94.2021L103.212 59.8245C102.689 59.375 102.223 58.8831 101.817 58.3584ZM107.491 96.7229C110.024 98.8995 113.842 98.6105 116.019 96.0773C118.195 93.5441 117.906 89.726 115.373 87.5493C112.84 85.3727 109.022 85.6617 106.845 88.1949C104.669 90.7281 104.958 94.5462 107.491 96.7229ZM0 40.8243C0 29.7786 8.9543 20.8243 20 20.8243H63.6562C74.7019 20.8243 83.6562 29.7786 83.6562 40.8243V84.4805C83.6562 95.5262 74.7019 104.48 63.6562 104.48H20C8.9543 104.48 0 95.5262 0 84.4805V40.8243ZM20 122.623C8.9543 122.623 0 131.577 0 142.623V186.279C0 197.325 8.9543 206.279 20 206.279H63.6562C74.7019 206.279 83.6562 197.325 83.6562 186.279V142.623C83.6562 131.577 74.7019 122.623 63.6562 122.623H20ZM119.783 122.623C108.737 122.623 99.7827 131.577 99.7827 142.623V186.279C99.7827 197.325 108.737 206.279 119.783 206.279H163.439C174.485 206.279 183.439 197.325 183.439 186.279V142.623C183.439 131.577 174.485 122.623 163.439 122.623H119.783Z"/>
</mask>
<path d="M152.54 2.41549L155.799 -1.37685L155.799 -1.37685L152.54 2.41549ZM138.438 3.48308L134.646 0.224522L134.646 0.224527L138.438 3.48308ZM192.549 36.7931L189.291 40.5855L189.291 40.5855L192.549 36.7931ZM193.617 50.8949L189.825 47.6364L189.825 47.6364L193.617 50.8949ZM157.323 93.1345L161.115 96.3931L161.115 96.3931L157.323 93.1345ZM150.247 94.9176L151.253 99.8153L151.253 99.8153L150.247 94.9176ZM152.499 86.2276L155.757 82.4353L155.757 82.4353L152.499 86.2276ZM110.318 49.9841L113.577 46.1918L113.577 46.1918L110.318 49.9841ZM102.066 53.5189L107.06 53.7765L107.06 53.7765L102.066 53.5189ZM102.144 45.7227L105.937 48.9812L105.937 48.9812L102.144 45.7227ZM99.725 98.9107L104.718 99.1683L104.718 99.1683L99.725 98.9107ZM105.725 104.066L106.731 108.964L106.731 108.964L105.725 104.066ZM143.221 94.2021L139.962 97.9945L139.962 97.9945L143.221 94.2021ZM103.212 59.8245L106.47 56.0321L106.47 56.0321L103.212 59.8245ZM116.019 96.0773L112.226 92.8187L112.226 92.8187L116.019 96.0773ZM107.491 96.7229L104.232 100.515L104.232 100.515L107.491 96.7229ZM115.373 87.5493L118.632 83.757L118.632 83.757L115.373 87.5493ZM106.845 88.1949L103.053 84.9364L103.053 84.9364L106.845 88.1949ZM155.799 -1.37685C149.515 -6.77579 140.045 -6.05883 134.646 0.224522L142.231 6.74163C144.03 4.64717 147.187 4.40819 149.282 6.20783L155.799 -1.37685ZM195.808 33.0008L155.799 -1.37685L149.282 6.20783L189.291 40.5855L195.808 33.0008ZM197.409 54.1535C202.808 47.8701 202.091 38.3997 195.808 33.0008L189.291 40.5855C191.385 42.3851 191.624 45.5419 189.825 47.6364L197.409 54.1535ZM161.115 96.3931L197.409 54.1535L189.825 47.6364L153.53 89.876L161.115 96.3931ZM143.875 100.427C149.722 102.91 156.746 101.478 161.115 96.3931L153.53 89.876C152.081 91.5632 149.74 92.0533 147.785 91.223L143.875 100.427ZM146.836 100.723L151.253 99.8153L149.24 90.0199L144.824 90.9274L146.836 100.723ZM151.253 99.8153C159.392 98.1429 162.059 87.8502 155.757 82.4353L149.24 90.0199C149.255 90.0329 149.263 90.041 149.265 90.0436C149.267 90.0462 149.266 90.0452 149.263 90.0408C149.261 90.0364 149.257 90.0305 149.254 90.0235C149.251 90.0166 149.249 90.0101 149.247 90.0045C149.244 89.9931 149.244 89.9889 149.244 89.993C149.244 89.9951 149.244 89.9987 149.243 90.0036C149.243 90.0085 149.242 90.0141 149.24 90.0199C149.239 90.0258 149.237 90.0311 149.235 90.0357C149.233 90.0403 149.232 90.0435 149.231 90.0453C149.229 90.0489 149.23 90.0449 149.239 90.0366C149.243 90.0325 149.248 90.0279 149.254 90.0234C149.26 90.0189 149.266 90.0153 149.271 90.0128C149.275 90.0103 149.277 90.0101 149.273 90.0112C149.27 90.0124 149.26 90.0159 149.24 90.0199L151.253 99.8153ZM155.757 82.4353L113.577 46.1918L107.06 53.7765L149.24 90.0199L155.757 82.4353ZM113.577 46.1918C107.275 40.7769 97.501 44.9636 97.073 53.2614L107.06 53.7765C107.061 53.7567 107.063 53.7458 107.063 53.7425C107.064 53.7391 107.064 53.7406 107.062 53.7455C107.06 53.7504 107.058 53.7567 107.054 53.7634C107.051 53.7701 107.047 53.776 107.043 53.7807C107.037 53.7902 107.033 53.7924 107.036 53.7899C107.038 53.7886 107.041 53.7865 107.045 53.784C107.049 53.7814 107.054 53.7788 107.06 53.7765C107.065 53.7741 107.071 53.7722 107.075 53.7709C107.08 53.7696 107.084 53.7689 107.086 53.7686C107.09 53.768 107.086 53.7692 107.074 53.7676C107.068 53.7668 107.061 53.7655 107.054 53.7635C107.047 53.7614 107.04 53.759 107.036 53.7569C107.031 53.7548 107.03 53.7538 107.033 53.7557C107.035 53.7575 107.045 53.7635 107.06 53.7765L113.577 46.1918ZM97.073 53.2613L96.8234 58.1008L106.81 58.6159L107.06 53.7765L97.073 53.2613ZM98.3519 42.4641C93.6234 47.9672 93.589 55.904 97.8646 61.4212L105.769 55.2956C104.345 53.4587 104.366 50.8097 105.937 48.9812L98.3519 42.4641ZM134.646 0.224527L98.3519 42.4641L105.937 48.9812L142.231 6.74163L134.646 0.224527ZM96.8234 58.1008L94.7317 98.6531L104.718 99.1683L106.81 58.6159L96.8234 58.1008ZM94.7317 98.6531C94.3946 105.188 100.321 110.281 106.731 108.964L104.718 99.1683L104.718 99.1683L94.7317 98.6531ZM106.731 108.964L146.836 100.723L144.824 90.9274L104.718 99.1683L106.731 108.964ZM139.962 97.9945C141.16 99.0238 142.482 99.8355 143.876 100.427L147.785 91.223C147.328 91.0289 146.888 90.7604 146.48 90.4098L139.962 97.9945ZM99.9533 63.6168L139.962 97.9945L146.48 90.4098L106.47 56.0321L99.9533 63.6168ZM97.8647 61.4212C98.4762 62.2103 99.1735 62.9468 99.9533 63.6168L106.47 56.0321C106.204 55.8031 105.971 55.556 105.769 55.2956L97.8647 61.4212ZM112.226 92.8187C111.849 93.2575 111.188 93.3076 110.749 92.9305L104.232 100.515C108.86 104.492 115.835 103.964 119.811 99.3358L112.226 92.8187ZM112.115 91.3417C112.553 91.7187 112.603 92.38 112.226 92.8187L119.811 99.3358C123.787 94.7082 123.259 87.7333 118.632 83.757L112.115 91.3417ZM110.638 91.4535C111.015 91.0147 111.676 90.9647 112.115 91.3417L118.632 83.757C114.004 79.7807 107.029 80.3087 103.053 84.9364L110.638 91.4535ZM110.749 92.9306C110.311 92.5535 110.261 91.8922 110.638 91.4535L103.053 84.9364C99.0766 89.564 99.6046 96.5389 104.232 100.515L110.749 92.9306ZM20 15.8243C6.19288 15.8243 -5 27.0171 -5 40.8243H5C5 32.54 11.7157 25.8243 20 25.8243V15.8243ZM63.6562 15.8243H20V25.8243H63.6562V15.8243ZM88.6562 40.8243C88.6562 27.0171 77.4633 15.8243 63.6562 15.8243V25.8243C71.9405 25.8243 78.6562 32.54 78.6562 40.8243H88.6562ZM88.6562 84.4805V40.8243H78.6562V84.4805H88.6562ZM63.6562 109.48C77.4633 109.48 88.6562 98.2876 88.6562 84.4805H78.6562C78.6562 92.7647 71.9405 99.4805 63.6562 99.4805V109.48ZM20 109.48H63.6562V99.4805H20V109.48ZM-5 84.4805C-5 98.2876 6.19288 109.48 20 109.48V99.4805C11.7157 99.4805 5 92.7647 5 84.4805H-5ZM-5 40.8243V84.4805H5V40.8243H-5ZM5 142.623C5 134.338 11.7157 127.623 20 127.623V117.623C6.19288 117.623 -5 128.816 -5 142.623H5ZM5 186.279V142.623H-5V186.279H5ZM20 201.279C11.7157 201.279 5 194.563 5 186.279H-5C-5 200.086 6.19287 211.279 20 211.279V201.279ZM63.6562 201.279H20V211.279H63.6562V201.279ZM78.6562 186.279C78.6562 194.563 71.9405 201.279 63.6562 201.279V211.279C77.4633 211.279 88.6562 200.086 88.6562 186.279H78.6562ZM78.6562 142.623V186.279H88.6562V142.623H78.6562ZM63.6562 127.623C71.9405 127.623 78.6562 134.338 78.6562 142.623H88.6562C88.6562 128.816 77.4633 117.623 63.6562 117.623V127.623ZM20 127.623H63.6562V117.623H20V127.623ZM104.783 142.623C104.783 134.338 111.498 127.623 119.783 127.623V117.623C105.976 117.623 94.7827 128.816 94.7827 142.623H104.783ZM104.783 186.279V142.623H94.7827V186.279H104.783ZM119.783 201.279C111.498 201.279 104.783 194.563 104.783 186.279H94.7827C94.7827 200.086 105.976 211.279 119.783 211.279V201.279ZM163.439 201.279H119.783V211.279H163.439V201.279ZM178.439 186.279C178.439 194.563 171.723 201.279 163.439 201.279V211.279C177.246 211.279 188.439 200.086 188.439 186.279H178.439ZM178.439 142.623V186.279H188.439V142.623H178.439ZM163.439 127.623C171.723 127.623 178.439 134.338 178.439 142.623H188.439C188.439 128.816 177.246 117.623 163.439 117.623V127.623ZM119.783 127.623H163.439V117.623H119.783V127.623Z" fill="black" mask="url(#path-1-inside-1)"/>
</svg>
