<svg width="196" height="224" viewBox="0 0 196 224" fill="none" xmlns="http://www.w3.org/2000/svg">
<path fill-rule="evenodd" clip-rule="evenodd" d="M0 15C0 6.71573 6.71573 0 15 0H98C106.284 0 113 6.71573 113 15V33C113 41.2843 106.284 48 98 48H15C6.71573 48 0 41.2843 0 33V15ZM180.511 3.61573C166.287 -4.1361 148.368 1.05298 140.488 15.2059L136.118 23.0536L187.627 51.1255L191.996 43.2778C199.877 29.1249 194.734 11.3676 180.511 3.61573ZM73.924 182.962C75.0524 187.417 79.7382 189.986 84.1513 188.568L113.951 178.994C116.316 178.234 117.96 176.615 118.826 174.69L149.277 120H176C187.046 120 196 128.954 196 140V204C196 215.046 187.046 224 176 224H20C8.95431 224 0 215.046 0 204V140C0 128.954 8.9543 120 20 120H82.1379L67.2706 146.701C66.1762 148.419 65.7222 150.579 66.3042 152.877L73.924 182.962ZM82.1379 120L132.722 29.1524L184.231 57.2243L149.277 120H82.1379ZM171.312 67.0269L131.25 45.1932L129.002 49.2313L169.064 71.065L171.312 67.0269ZM14 64C6.26801 64 0 70.268 0 78C0 85.732 6.26801 92 14 92H40C47.732 92 54 85.732 54 78C54 70.268 47.732 64 40 64H14Z" fill="black"/>
</svg>
