<svg width="196" height="223" viewBox="0 0 196 223" fill="none" xmlns="http://www.w3.org/2000/svg">
<path fill-rule="evenodd" clip-rule="evenodd" d="M188.469 23.0509L98 0L7.53096 23.0509C3.10062 24.1797 0 28.1694 0 32.7413V120.329C0 129.819 3.34554 138.986 9.72401 146.014C26.3558 164.339 61.5328 201.098 93.1191 221.039C96.1152 222.93 99.9041 222.953 102.931 221.11C137.089 200.313 171.129 163.814 186.906 145.762C192.91 138.893 196 130.056 196 120.933V32.7413C196 28.1694 192.899 24.1797 188.469 23.0509ZM147.482 31.4607C140.984 26.3229 131.551 27.426 126.413 33.9246L123.881 37.1264L160.4 65.9979L162.931 62.7961C168.069 56.2975 166.966 46.8643 160.467 41.7265L147.482 31.4607ZM156.096 71.441L119.578 42.5696L58.9516 119.253C57.411 121.202 56.4316 123.414 55.9905 125.696C55.5079 126.335 55.1693 127.11 55.0417 127.994L50.3131 160.737C49.7642 164.538 53.5273 167.513 57.0989 166.102L87.8674 153.946C88.6982 153.618 89.3741 153.11 89.8847 152.493C92.0027 151.537 93.9294 150.074 95.47 148.125L156.096 71.441Z" fill="black"/>
</svg>
