<svg width="196" height="223" viewBox="0 0 196 223" fill="none" xmlns="http://www.w3.org/2000/svg">
<mask id="path-1-inside-1" fill="white">
<path fill-rule="evenodd" clip-rule="evenodd" d="M98 0L188.469 23.0509C192.899 24.1797 196 28.1694 196 32.7413V120.933C196 130.056 192.91 138.893 186.906 145.762C171.129 163.814 137.089 200.313 102.931 221.11C99.9041 222.953 96.1152 222.93 93.1191 221.039C61.5328 201.098 26.3558 164.339 9.72401 146.014C3.34554 138.986 0 129.819 0 120.329V32.7413C0 28.1694 3.10062 24.1797 7.53096 23.0509L98 0ZM126.413 33.9246C131.551 27.426 140.984 26.3229 147.482 31.4607L160.467 41.7265C166.966 46.8643 168.069 56.2975 162.931 62.7961L160.4 65.9979L123.881 37.1264L126.413 33.9246ZM119.578 42.5696L156.096 71.441L95.47 148.125C93.9294 150.074 92.0027 151.537 89.8847 152.493C89.3741 153.11 88.6982 153.618 87.8674 153.946L57.0989 166.102C53.5273 167.513 49.7642 164.538 50.3131 160.737L55.0417 127.994C55.1693 127.11 55.5079 126.335 55.9905 125.696C56.4316 123.414 57.411 121.202 58.9516 119.253L119.578 42.5696ZM56 166C58.7614 166 61 163.761 61 161C61 158.239 58.7614 156 56 156C53.2386 156 51 158.239 51 161C51 163.761 53.2386 166 56 166Z"/>
</mask>
<path d="M188.469 23.0509L187.235 27.8961L187.235 27.8961L188.469 23.0509ZM98 0L99.2345 -4.8452L98 -5.15975L96.7655 -4.8452L98 0ZM186.906 145.762L183.141 142.472L183.141 142.472L186.906 145.762ZM102.931 221.11L100.33 216.84L100.33 216.84L102.931 221.11ZM93.1191 221.039L95.7882 216.811L95.7882 216.811L93.1191 221.039ZM9.72401 146.014L13.4264 142.654L13.4264 142.654L9.72401 146.014ZM7.53096 23.0509L6.29643 18.2057L6.29643 18.2057L7.53096 23.0509ZM147.482 31.4607L150.583 27.5384L147.482 31.4607ZM126.413 33.9246L122.49 30.8237L122.49 30.8237L126.413 33.9246ZM160.467 41.7265L163.568 37.8042L163.568 37.8042L160.467 41.7265ZM162.931 62.7961L159.009 59.6952L159.009 59.6952L162.931 62.7961ZM160.4 65.9979L157.299 69.9202L161.221 73.0211L164.322 69.0988L160.4 65.9979ZM123.881 37.1264L119.959 34.0255L116.858 37.9478L120.78 41.0487L123.881 37.1264ZM156.096 71.441L160.019 74.542L163.12 70.6197L159.197 67.5188L156.096 71.441ZM119.578 42.5696L122.679 38.6473L118.757 35.5463L115.656 39.4686L119.578 42.5696ZM95.47 148.125L91.5477 145.024L91.5477 145.024L95.47 148.125ZM89.8847 152.493L87.8284 147.935L86.7718 148.412L86.0327 149.305L89.8847 152.493ZM87.8674 153.946L89.7046 158.596L89.7046 158.596L87.8674 153.946ZM57.0989 166.102L55.2618 161.452L55.2618 161.452L57.0989 166.102ZM50.3131 160.737L55.2618 161.452L55.2618 161.452L50.3131 160.737ZM55.0417 127.994L50.093 127.279L50.093 127.279L55.0417 127.994ZM55.9905 125.696L59.9811 128.708L60.6795 127.783L60.8995 126.645L55.9905 125.696ZM58.9516 119.253L55.0293 116.153L55.0293 116.153L58.9516 119.253ZM189.704 18.2057L99.2345 -4.8452L96.7655 4.8452L187.235 27.8961L189.704 18.2057ZM201 32.7413C201 25.8834 196.349 19.8989 189.704 18.2057L187.235 27.8961C189.45 28.4605 191 30.4553 191 32.7413H201ZM201 120.933V32.7413H191V120.933H201ZM190.671 149.053C197.526 141.209 201 131.18 201 120.933H191C191 128.932 188.294 136.576 183.141 142.472L190.671 149.053ZM105.531 225.381C140.4 204.152 174.869 167.132 190.671 149.053L183.141 142.472C167.389 160.495 133.779 196.475 100.33 216.84L105.531 225.381ZM90.4499 225.267C95.0599 228.177 100.89 228.206 105.531 225.381L100.33 216.84C98.9179 217.7 97.1705 217.684 95.7882 216.811L90.4499 225.267ZM6.02161 149.374C22.6424 167.687 58.2238 204.922 90.4499 225.267L95.7882 216.811C64.8419 197.274 30.0693 160.99 13.4264 142.654L6.02161 149.374ZM-5 120.329C-5 130.991 -1.23806 141.376 6.02161 149.374L13.4264 142.654C7.92914 136.597 5 128.647 5 120.329H-5ZM-5 32.7413V120.329H5V32.7413H-5ZM6.29643 18.2057C-0.349079 19.8989 -5 25.8835 -5 32.7413H5C5 30.4553 6.55031 28.4605 8.76548 27.8961L6.29643 18.2057ZM96.7655 -4.8452L6.29643 18.2057L8.76548 27.8961L99.2345 4.8452L96.7655 -4.8452ZM150.583 27.5384C141.918 20.688 129.341 22.1589 122.49 30.8237L130.335 37.0256C133.76 32.6932 140.049 31.9577 144.381 35.3829L150.583 27.5384ZM163.568 37.8042L150.583 27.5384L144.381 35.3829L157.366 45.6488L163.568 37.8042ZM166.853 65.8971C173.704 57.2322 172.233 44.6547 163.568 37.8042L157.366 45.6488C161.699 49.074 162.434 55.3628 159.009 59.6952L166.853 65.8971ZM164.322 69.0988L166.853 65.897L159.009 59.6952L156.478 62.897L164.322 69.0988ZM120.78 41.0487L157.299 69.9202L163.501 62.0757L126.982 33.2042L120.78 41.0487ZM122.49 30.8237L119.959 34.0255L127.804 40.2274L130.335 37.0256L122.49 30.8237ZM159.197 67.5188L122.679 38.6473L116.477 46.4918L152.996 75.3633L159.197 67.5188ZM99.3922 151.226L160.019 74.542L152.174 68.3401L91.5477 145.024L99.3922 151.226ZM91.941 157.05C94.7714 155.773 97.3437 153.817 99.3922 151.226L91.5477 145.024C90.5152 146.33 89.234 147.301 87.8284 147.935L91.941 157.05ZM89.7046 158.596C91.3302 157.954 92.696 156.938 93.7368 155.68L86.0327 149.305C86.0356 149.301 86.039 149.298 86.0427 149.294C86.0465 149.291 86.0498 149.288 86.0523 149.286C86.0547 149.284 86.0551 149.284 86.0525 149.286C86.05 149.287 86.0429 149.291 86.0302 149.296L89.7046 158.596ZM58.9361 170.752L89.7046 158.596L86.0302 149.296L55.2618 161.452L58.9361 170.752ZM45.3644 160.022C44.2666 167.624 51.7928 173.574 58.9361 170.752L55.2618 161.452C55.2483 161.457 55.2405 161.459 55.2382 161.46C55.2358 161.46 55.2369 161.46 55.2407 161.459C55.2446 161.459 55.2495 161.459 55.2551 161.459C55.2606 161.459 55.2656 161.46 55.2698 161.46C55.2783 161.462 55.281 161.463 55.2783 161.462C55.2752 161.461 55.269 161.457 55.2618 161.452C55.2545 161.446 55.2498 161.441 55.2478 161.438C55.246 161.436 55.2482 161.438 55.2515 161.446C55.2531 161.45 55.2548 161.455 55.2562 161.46C55.2577 161.465 55.2586 161.47 55.2591 161.474C55.2596 161.478 55.2595 161.479 55.2595 161.476C55.2595 161.474 55.2597 161.466 55.2618 161.452L45.3644 160.022ZM50.093 127.279L45.3644 160.022L55.2618 161.452L59.9903 128.709L50.093 127.279ZM51.9999 122.683C51.0163 123.986 50.3428 125.55 50.093 127.279L59.9903 128.709C59.9923 128.695 59.9943 128.687 59.995 128.685C59.9958 128.682 59.9959 128.682 59.9947 128.685C59.9935 128.688 59.9917 128.692 59.9891 128.696C59.9866 128.701 59.9838 128.705 59.9811 128.708L51.9999 122.683ZM55.0293 116.153C52.9808 118.744 51.6709 121.698 51.0814 124.747L60.8995 126.645C61.1923 125.131 61.8413 123.66 62.8738 122.354L55.0293 116.153ZM115.656 39.4686L55.0293 116.153L62.8738 122.354L123.5 45.6705L115.656 39.4686ZM56 161V171C61.5228 171 66 166.523 66 161H56ZM56 161H66C66 155.477 61.5228 151 56 151V161ZM56 161V151C50.4772 151 46 155.477 46 161H56ZM56 161H46C46 166.523 50.4772 171 56 171V161Z" fill="black" mask="url(#path-1-inside-1)"/>
</svg>
