<svg width="196" height="224" viewBox="0 0 196 224" fill="none" xmlns="http://www.w3.org/2000/svg">
<mask id="path-1-inside-1" fill="white">
<path fill-rule="evenodd" clip-rule="evenodd" d="M114.002 179.943C111.585 183.167 108.437 185.417 105 186.693V126.929C105 123.063 101.866 119.929 97.9999 119.929C94.1339 119.929 90.9999 123.063 90.9999 126.929V186.693C87.5627 185.417 84.4147 183.167 81.9975 179.943L10.3238 84.3385C5.8271 78.3404 5.06225 70.3312 8.34245 63.5904L33.8129 11.2488C37.1615 4.36725 44.1436 1.15633e-05 51.7966 1.15633e-05H144.203C151.856 1.15633e-05 158.838 4.36726 162.187 11.2488L187.657 63.5904C190.938 70.3312 190.173 78.3404 185.676 84.3385L114.002 179.943ZM90.9999 186.693V194.204C90.9999 198.07 94.1339 201.204 97.9999 201.204C101.866 201.204 105 198.07 105 194.204V186.693C100.499 188.364 95.5013 188.364 90.9999 186.693ZM97.9999 97.9063C117.882 97.9063 134 82.7105 134 63.9655C134 45.2205 117.882 30.0246 97.9999 30.0246C78.1177 30.0246 61.9999 45.2205 61.9999 63.9655C61.9999 82.7105 78.1177 97.9063 97.9999 97.9063ZM17.8407 206.159C7.98756 206.159 0 214.147 0 224H196C196 214.147 188.012 206.159 178.159 206.159H17.8407Z"/>
</mask>
<path d="M114.002 179.943L110.002 176.944L114.002 179.943ZM81.9975 179.943L77.9969 182.942L81.9975 179.943ZM10.3238 84.3385L14.3244 81.3393H14.3244L10.3238 84.3385ZM8.34245 63.5904L3.84651 61.4026H3.84651L8.34245 63.5904ZM33.8129 11.2488L29.3169 9.06097L33.8129 11.2488ZM162.187 11.2488L166.683 9.06098V9.06098L162.187 11.2488ZM187.657 63.5904L192.153 61.4026L187.657 63.5904ZM185.676 84.3385L181.675 81.3393L185.676 84.3385ZM0 224H-5V229H0V224ZM196 224V229H201V224H196ZM106.74 191.38C111.051 189.78 114.994 186.956 118.003 182.942L110.002 176.944C108.177 179.378 105.823 181.054 103.26 182.005L106.74 191.38ZM110 186.693V126.929H99.9999V186.693H110ZM110 126.929C110 120.302 104.627 114.929 97.9999 114.929V124.929C99.1045 124.929 99.9999 125.825 99.9999 126.929H110ZM97.9999 114.929C91.3725 114.929 85.9999 120.302 85.9999 126.929H95.9999C95.9999 125.825 96.8954 124.929 97.9999 124.929V114.929ZM85.9999 126.929V186.693H95.9999V126.929H85.9999ZM77.9969 182.942C81.0062 186.956 84.9485 189.78 89.26 191.38L92.7398 182.005C90.177 181.054 87.8232 179.378 85.9981 176.944L77.9969 182.942ZM6.32324 87.3377L77.9969 182.942L85.9981 176.944L14.3244 81.3393L6.32324 87.3377ZM3.84651 61.4026C-0.253737 69.8286 0.702322 79.84 6.32324 87.3377L14.3244 81.3393C10.9519 76.8407 10.3782 70.8338 12.8384 65.7782L3.84651 61.4026ZM29.3169 9.06097L3.84651 61.4026L12.8384 65.7782L38.3088 13.4366L29.3169 9.06097ZM51.7966 -4.99999C42.2303 -4.99999 33.5028 0.459065 29.3169 9.06097L38.3088 13.4366C40.8203 8.27544 46.0568 5.00001 51.7966 5.00001V-4.99999ZM144.203 -4.99999H51.7966V5.00001H144.203V-4.99999ZM166.683 9.06098C162.497 0.459069 153.77 -4.99999 144.203 -4.99999V5.00001C149.943 5.00001 155.18 8.27545 157.691 13.4366L166.683 9.06098ZM192.153 61.4026L166.683 9.06098L157.691 13.4366L183.161 65.7782L192.153 61.4026ZM189.677 87.3377C195.298 79.84 196.254 69.8286 192.153 61.4026L183.161 65.7782C185.622 70.8338 185.048 76.8407 181.675 81.3393L189.677 87.3377ZM118.003 182.942L189.677 87.3377L181.675 81.3393L110.002 176.944L118.003 182.942ZM85.9999 186.693V194.204H95.9999V186.693H85.9999ZM85.9999 194.204C85.9999 200.831 91.3725 206.204 97.9999 206.204V196.204C96.8954 196.204 95.9999 195.308 95.9999 194.204H85.9999ZM97.9999 206.204C104.627 206.204 110 200.831 110 194.204H99.9999C99.9999 195.308 99.1045 196.204 97.9999 196.204V206.204ZM110 194.204V186.693H99.9999V194.204H110ZM89.26 191.38C94.8839 193.468 101.116 193.468 106.74 191.38L103.26 182.005C99.8812 183.26 96.1187 183.26 92.7398 182.005L89.26 191.38ZM129 63.9655C129 79.6757 115.402 92.9063 97.9999 92.9063V102.906C120.362 102.906 139 85.7453 139 63.9655H129ZM97.9999 35.0246C115.402 35.0246 129 48.2553 129 63.9655H139C139 42.1857 120.362 25.0246 97.9999 25.0246V35.0246ZM66.9999 63.9655C66.9999 48.2553 80.5976 35.0246 97.9999 35.0246V25.0246C75.6378 25.0246 56.9999 42.1857 56.9999 63.9655H66.9999ZM97.9999 92.9063C80.5976 92.9063 66.9999 79.6757 66.9999 63.9655H56.9999C56.9999 85.7453 75.6378 102.906 97.9999 102.906V92.9063ZM5 224C5 216.908 10.749 211.159 17.8407 211.159V201.159C5.22613 201.159 -5 211.385 -5 224H5ZM196 219H0V229H196V219ZM178.159 211.159C185.251 211.159 191 216.908 191 224H201C201 211.385 190.774 201.159 178.159 201.159V211.159ZM17.8407 211.159H178.159V201.159H17.8407V211.159Z" fill="black" mask="url(#path-1-inside-1)"/>
</svg>
