<svg width="196" height="224" viewBox="0 0 196 224" fill="none" xmlns="http://www.w3.org/2000/svg">
<mask id="path-1-inside-1" fill="white">
<path fill-rule="evenodd" clip-rule="evenodd" d="M0 15C0 6.71573 6.71573 0 15 0H98C106.284 0 113 6.71573 113 15V33C113 41.2843 106.284 48 98 48H15C6.71573 48 0 41.2843 0 33V15ZM180.511 3.61573C166.287 -4.1361 148.368 1.05298 140.488 15.2059L136.118 23.0536L187.627 51.1255L191.996 43.2778C199.877 29.1249 194.734 11.3676 180.511 3.61573ZM73.924 182.962C75.0524 187.417 79.7382 189.986 84.1513 188.568L113.951 178.994C116.316 178.234 117.96 176.615 118.826 174.69L149.277 120H176C187.046 120 196 128.954 196 140V204C196 215.046 187.046 224 176 224H20C8.95431 224 0 215.046 0 204V140C0 128.954 8.9543 120 20 120H82.1379L67.2706 146.701C66.1762 148.419 65.7222 150.579 66.3042 152.877L73.924 182.962ZM82.1379 120L132.722 29.1524L184.231 57.2243L149.277 120H82.1379ZM171.312 67.0269L131.25 45.1932L129.002 49.2313L169.064 71.065L171.312 67.0269ZM15 64C6.71573 64 0 70.7157 0 79C0 87.2843 6.71573 94 15 94H39C47.2843 94 54 87.2843 54 79C54 70.7157 47.2843 64 39 64H15Z"/>
</mask>
<path d="M140.488 15.2059L144.856 17.6383L144.856 17.6383L140.488 15.2059ZM180.511 3.61573L178.118 8.00606L178.118 8.00606L180.511 3.61573ZM136.118 23.0536L131.75 20.6212L129.295 25.0295L133.725 27.4439L136.118 23.0536ZM187.627 51.1255L185.234 55.5158L189.585 57.8869L191.995 53.5579L187.627 51.1255ZM191.996 43.2778L187.628 40.8454L187.628 40.8454L191.996 43.2778ZM84.1513 188.568L82.6218 183.808L82.6218 183.808L84.1513 188.568ZM73.924 182.962L78.771 181.734L78.771 181.734L73.924 182.962ZM113.951 178.994L112.421 174.233L112.421 174.233L113.951 178.994ZM118.826 174.69L114.457 172.257L114.354 172.443L114.266 172.638L118.826 174.69ZM67.2706 146.701L71.4876 149.388L71.5671 149.263L71.6391 149.134L67.2706 146.701ZM66.3042 152.877L71.1512 151.65L71.1512 151.65L66.3042 152.877ZM132.722 29.1524L135.115 24.7621L130.764 22.391L128.353 26.72L132.722 29.1524ZM184.231 57.2243L188.599 59.6566L191.053 55.2484L186.623 52.8339L184.231 57.2243ZM131.25 45.1932L133.643 40.8029L129.292 38.4318L126.882 42.7609L131.25 45.1932ZM171.312 67.0269L175.681 69.4593L178.135 65.0511L173.705 62.6366L171.312 67.0269ZM129.002 49.2313L124.633 46.7989L122.179 51.2071L126.609 53.6216L129.002 49.2313ZM169.064 71.065L166.671 75.4553L171.022 77.8264L173.433 73.4973L169.064 71.065ZM15 -5C3.9543 -5 -5 3.95431 -5 15H5C5 9.47715 9.47715 5 15 5V-5ZM98 -5H15V5H98V-5ZM118 15C118 3.95431 109.046 -5 98 -5V5C103.523 5 108 9.47715 108 15H118ZM118 33V15H108V33H118ZM98 53C109.046 53 118 44.0457 118 33H108C108 38.5228 103.523 43 98 43V53ZM15 53H98V43H15V53ZM-5 33C-5 44.0457 3.9543 53 15 53V43C9.47715 43 5 38.5228 5 33H-5ZM-5 15V33H5V15H-5ZM144.856 17.6383C151.402 5.88256 166.303 1.56722 178.118 8.00606L182.903 -0.774596C166.27 -9.83942 145.334 -3.77659 136.119 12.7735L144.856 17.6383ZM140.487 25.486L144.856 17.6383L136.119 12.7735L131.75 20.6212L140.487 25.486ZM190.019 46.7352L138.511 18.6633L133.725 27.4439L185.234 55.5158L190.019 46.7352ZM187.628 40.8454L183.258 48.6931L191.995 53.5579L196.365 45.7101L187.628 40.8454ZM178.118 8.00606C189.901 14.428 194.156 29.1206 187.628 40.8454L196.365 45.7101C205.597 29.1291 199.567 8.30715 182.903 -0.774597L178.118 8.00606ZM82.6218 183.808C80.9133 184.357 79.1803 183.351 78.771 181.734L69.077 184.19C70.9246 191.484 78.5631 195.615 85.6807 193.328L82.6218 183.808ZM112.421 174.233L82.6218 183.808L85.6807 193.328L115.48 183.754L112.421 174.233ZM114.266 172.638C113.956 173.327 113.382 173.925 112.421 174.233L115.48 183.754C119.25 182.543 121.963 179.903 123.385 176.741L114.266 172.638ZM144.908 117.568L114.457 172.257L123.194 177.122L153.645 122.432L144.908 117.568ZM176 115H149.277V125H176V115ZM201 140C201 126.193 189.807 115 176 115V125C184.284 125 191 131.716 191 140H201ZM201 204V140H191V204H201ZM176 229C189.807 229 201 217.807 201 204H191C191 212.284 184.284 219 176 219V229ZM20 229H176V219H20V229ZM-5 204C-5 217.807 6.19288 229 20 229V219C11.7157 219 5 212.284 5 204H-5ZM-5 140V204H5V140H-5ZM20 115C6.19288 115 -5 126.193 -5 140H5C5 131.716 11.7157 125 20 125V115ZM82.1379 115H20V125H82.1379V115ZM71.6391 149.134L86.5064 122.432L77.7695 117.568L62.9021 144.269L71.6391 149.134ZM71.1512 151.65C70.9237 150.751 71.0973 150 71.4876 149.388L63.0537 144.015C61.2552 146.838 60.5206 150.407 61.4573 154.105L71.1512 151.65ZM78.771 181.734L71.1512 151.65L61.4573 154.105L69.077 184.19L78.771 181.734ZM128.353 26.72L77.7695 117.568L86.5064 122.432L137.09 31.5848L128.353 26.72ZM186.623 52.8339L135.115 24.7621L130.329 33.5427L181.838 61.6146L186.623 52.8339ZM153.645 122.432L188.599 59.6566L179.862 54.7919L144.908 117.568L153.645 122.432ZM82.1379 125H149.277V115H82.1379V125ZM128.858 49.5836L168.92 71.4173L173.705 62.6366L133.643 40.8029L128.858 49.5836ZM133.37 51.6637L135.619 47.6256L126.882 42.7609L124.633 46.7989L133.37 51.6637ZM171.457 66.6746L131.395 44.841L126.609 53.6216L166.671 75.4553L171.457 66.6746ZM166.944 64.5946L164.696 68.6326L173.433 73.4973L175.681 69.4593L166.944 64.5946ZM5 79C5 73.4772 9.47715 69 15 69V59C3.95431 59 -5 67.9543 -5 79H5ZM15 89C9.47715 89 5 84.5228 5 79H-5C-5 90.0457 3.95431 99 15 99V89ZM39 89H15V99H39V89ZM49 79C49 84.5228 44.5228 89 39 89V99C50.0457 99 59 90.0457 59 79H49ZM39 69C44.5228 69 49 73.4772 49 79H59C59 67.9543 50.0457 59 39 59V69ZM15 69H39V59H15V69Z" fill="black" mask="url(#path-1-inside-1)"/>
</svg>
