<svg width="197" height="207" viewBox="0 0 197 207" fill="none" xmlns="http://www.w3.org/2000/svg">
<path fill-rule="evenodd" clip-rule="evenodd" d="M138.438 3.48308C142.038 -0.705828 148.351 -1.1838 152.54 2.41549L192.549 36.7931C196.738 40.3924 197.216 46.706 193.617 50.8949L157.323 93.1345C154.413 96.5204 149.731 97.4818 145.83 95.8251L150.247 94.9176C154.316 94.0814 155.65 88.9351 152.499 86.2276L110.318 49.9841C107.167 47.2767 102.28 49.37 102.066 53.5189L101.817 58.3584C98.9671 54.6813 98.9945 49.3885 102.144 45.7227L138.438 3.48308ZM101.817 58.3584L99.725 98.9107C99.5565 102.178 102.52 104.725 105.725 104.066L145.83 95.8251C144.905 95.4322 144.024 94.8921 143.221 94.2021L103.212 59.8245C102.689 59.375 102.223 58.8831 101.817 58.3584ZM107.491 96.7229C110.024 98.8995 113.842 98.6105 116.019 96.0773C118.195 93.5441 117.906 89.726 115.373 87.5493C112.84 85.3727 109.022 85.6617 106.845 88.1949C104.669 90.7281 104.958 94.5462 107.491 96.7229ZM0 40.8243C0 29.7786 8.9543 20.8243 20 20.8243H63.6562C74.7019 20.8243 83.6562 29.7786 83.6562 40.8243V84.4805C83.6562 95.5262 74.7019 104.48 63.6562 104.48H20C8.9543 104.48 0 95.5262 0 84.4805V40.8243ZM20 122.623C8.9543 122.623 0 131.577 0 142.623V186.279C0 197.325 8.9543 206.279 20 206.279H63.6562C74.7019 206.279 83.6562 197.325 83.6562 186.279V142.623C83.6562 131.577 74.7019 122.623 63.6562 122.623H20ZM119.783 122.623C108.737 122.623 99.7827 131.577 99.7827 142.623V186.279C99.7827 197.325 108.737 206.279 119.783 206.279H163.439C174.485 206.279 183.439 197.325 183.439 186.279V142.623C183.439 131.577 174.485 122.623 163.439 122.623H119.783Z" fill="black"/>
</svg>
