<svg width="195" height="224" viewBox="0 0 195 224" fill="none" xmlns="http://www.w3.org/2000/svg">
<mask id="path-1-inside-1" fill="white">
<path fill-rule="evenodd" clip-rule="evenodd" d="M127 50C127 77.6142 104.614 100 77 100C49.3858 100 27 77.6142 27 50C27 22.3858 49.3858 0 77 0C104.614 0 127 22.3858 127 50ZM60 116.027C26.8629 116.027 0 142.89 0 176.027V213.027C0 218.55 4.47715 223.027 10 223.027H100.687C94.537 212.406 91 199.966 91 186.668C91 158.297 107.099 133.833 130.325 122.596C122.13 118.397 112.842 116.027 103 116.027H60ZM110.469 171.662C101.233 167.261 106.32 153.285 116.224 155.851C122.707 157.53 128.425 151.211 126.242 144.88C122.946 135.327 136.146 128.713 141.162 137.486C144.486 143.299 152.984 142.977 155.841 136.92C160.136 127.813 173.896 132.822 171.332 142.558C169.627 149.034 175.93 154.744 182.213 152.427C191.694 148.931 197.555 162.483 188.89 167.683C183.148 171.128 183.467 179.645 189.512 182.525C198.748 186.926 193.661 200.902 183.757 198.337C177.275 196.658 171.556 202.977 173.74 209.307C177.035 218.86 163.835 225.475 158.819 216.702C155.496 210.888 146.997 211.211 144.14 217.267C139.845 226.374 126.086 221.366 128.649 211.629C130.354 205.153 124.051 199.443 117.768 201.76C108.287 205.257 102.426 191.705 111.091 186.505C116.833 183.059 116.514 174.543 110.469 171.662ZM169.317 171.73C173.33 182.757 167.645 194.949 156.618 198.963C145.591 202.976 133.399 197.291 129.385 186.264C125.372 175.237 131.057 163.044 142.084 159.031C153.111 155.018 165.303 160.703 169.317 171.73Z"/>
</mask>
<path d="M100.687 223.027V228.027H109.36L105.014 220.522L100.687 223.027ZM130.325 122.596L132.503 127.097L141.54 122.725L132.606 118.147L130.325 122.596ZM116.224 155.851L117.478 151.01L116.224 155.851ZM110.469 171.662L112.62 167.148H112.62L110.469 171.662ZM126.242 144.88L130.968 143.25L126.242 144.88ZM141.162 137.486L136.821 139.967L141.162 137.486ZM155.841 136.92L151.319 134.787L155.841 136.92ZM171.332 142.558L166.497 141.285L171.332 142.558ZM182.213 152.427L180.483 147.736L182.213 152.427ZM188.89 167.683L191.463 171.97L188.89 167.683ZM189.512 182.525L187.361 187.039L189.512 182.525ZM183.757 198.337L182.504 203.177L183.757 198.337ZM173.74 209.307L178.466 207.677L173.74 209.307ZM158.819 216.702L154.479 219.183V219.183L158.819 216.702ZM144.14 217.267L148.663 219.4L144.14 217.267ZM128.649 211.629L123.814 210.356L128.649 211.629ZM117.768 201.76L119.498 206.451L117.768 201.76ZM111.091 186.505L113.664 190.792L111.091 186.505ZM156.618 198.963L158.328 203.661V203.661L156.618 198.963ZM169.317 171.73L164.618 173.44H164.618L169.317 171.73ZM129.385 186.264L124.687 187.974L129.385 186.264ZM142.084 159.031L143.794 163.729V163.729L142.084 159.031ZM77 105C107.376 105 132 80.3757 132 50H122C122 74.8528 101.853 95 77 95V105ZM22 50C22 80.3757 46.6243 105 77 105V95C52.1472 95 32 74.8528 32 50H22ZM77 -5C46.6243 -5 22 19.6243 22 50H32C32 25.1472 52.1472 5 77 5V-5ZM132 50C132 19.6243 107.376 -5 77 -5V5C101.853 5 122 25.1472 122 50H132ZM5 176.027C5 145.651 29.6243 121.027 60 121.027V111.027C24.1015 111.027 -5 140.129 -5 176.027H5ZM5 213.027V176.027H-5V213.027H5ZM10 218.027C7.23858 218.027 5 215.789 5 213.027H-5C-5 221.311 1.71573 228.027 10 228.027V218.027ZM100.687 218.027H10V228.027H100.687V218.027ZM86 186.668C86 200.861 89.7769 214.163 96.3601 225.533L105.014 220.522C99.2972 210.648 96 199.071 96 186.668H86ZM128.148 118.095C103.19 130.17 86 156.386 86 186.668H96C96 160.209 111.008 137.496 132.503 127.097L128.148 118.095ZM103 121.027C112.03 121.027 120.539 123.2 128.045 127.046L132.606 118.147C123.721 113.594 113.653 111.027 103 111.027V121.027ZM60 121.027H103V111.027H60V121.027ZM117.478 151.01C101.709 146.926 93.6138 169.169 108.318 176.176L112.62 167.148C111.479 166.605 111.007 165.913 110.794 165.309C110.551 164.621 110.545 163.74 110.868 162.854C111.19 161.968 111.761 161.297 112.389 160.926C112.941 160.6 113.746 160.374 114.97 160.691L117.478 151.01ZM121.515 146.511C122.433 149.173 119.996 151.663 117.478 151.01L114.97 160.691C125.417 163.397 134.417 153.249 130.968 143.25L121.515 146.511ZM145.503 135.004C143.599 131.674 140.723 129.546 137.443 128.741C134.263 127.96 131.036 128.5 128.356 129.836C122.989 132.509 118.912 138.966 121.515 146.511L130.968 143.25C130.565 142.082 130.707 141.22 131.008 140.576C131.343 139.858 131.983 139.201 132.815 138.786C133.649 138.371 134.457 138.305 135.059 138.453C135.563 138.576 136.218 138.911 136.821 139.967L145.503 135.004ZM151.319 134.787C150.194 137.172 146.826 137.319 145.503 135.004L136.821 139.967C142.145 149.28 155.775 148.782 160.363 139.053L151.319 134.787ZM176.167 143.831C180.279 128.213 158.208 120.18 151.319 134.787L160.363 139.053C160.885 137.947 161.544 137.502 162.109 137.301C162.758 137.07 163.599 137.062 164.448 137.371C165.298 137.681 165.937 138.228 166.286 138.822C166.589 139.338 166.808 140.103 166.497 141.285L176.167 143.831ZM180.483 147.736C177.981 148.659 175.496 146.381 176.167 143.831L166.497 141.285C163.758 151.688 173.879 160.83 183.943 157.118L180.483 147.736ZM191.463 171.97C198.306 167.863 199.334 160.297 196.941 154.799C195.746 152.052 193.622 149.565 190.683 148.119C187.654 146.627 184.083 146.409 180.483 147.736L183.943 157.118C185.085 156.697 185.802 156.862 186.267 157.091C186.823 157.364 187.4 157.934 187.772 158.789C188.143 159.641 188.21 160.556 188.005 161.321C187.821 162.008 187.377 162.759 186.317 163.395L191.463 171.97ZM191.663 178.012C189.315 176.893 189.048 173.419 191.463 171.97L186.317 163.395C177.248 168.838 177.619 182.397 187.361 187.039L191.663 178.012ZM182.504 203.177C198.272 207.261 206.367 185.019 191.663 178.012L187.361 187.039C188.503 187.583 188.974 188.274 189.187 188.878C189.43 189.566 189.436 190.448 189.114 191.333C188.791 192.219 188.22 192.891 187.592 193.261C187.04 193.587 186.235 193.814 185.011 193.497L182.504 203.177ZM178.466 207.677C177.548 205.015 179.985 202.525 182.504 203.177L185.011 193.497C174.564 190.791 165.564 200.939 169.013 210.938L178.466 207.677ZM154.479 219.183C156.383 222.514 159.259 224.642 162.538 225.447C165.719 226.227 168.945 225.687 171.626 224.352C176.993 221.678 181.069 215.222 178.466 207.677L169.013 210.938C169.416 212.106 169.274 212.967 168.973 213.612C168.638 214.33 167.998 214.987 167.167 215.401C166.332 215.817 165.524 215.883 164.922 215.735C164.418 215.611 163.764 215.276 163.16 214.22L154.479 219.183ZM148.663 219.4C149.787 217.016 153.155 216.868 154.479 219.183L163.16 214.22C157.836 204.908 144.206 205.405 139.618 215.134L148.663 219.4ZM123.814 210.356C119.702 225.975 141.773 234.008 148.663 219.4L139.618 215.134C139.096 216.24 138.437 216.686 137.873 216.886C137.223 217.117 136.383 217.125 135.533 216.816C134.683 216.507 134.044 215.96 133.695 215.366C133.392 214.849 133.173 214.084 133.484 212.902L123.814 210.356ZM119.498 206.451C122 205.529 124.485 207.806 123.814 210.356L133.484 212.902C136.223 202.5 126.102 193.358 116.038 197.069L119.498 206.451ZM108.519 182.218C101.675 186.325 100.647 193.891 103.04 199.389C104.235 202.135 106.36 204.623 109.298 206.069C112.328 207.56 115.899 207.779 119.498 206.451L116.038 197.069C114.897 197.49 114.18 197.326 113.715 197.097C113.158 196.823 112.582 196.253 112.21 195.399C111.839 194.546 111.771 193.632 111.976 192.866C112.16 192.179 112.605 191.428 113.664 190.792L108.519 182.218ZM108.318 176.176C110.666 177.295 110.933 180.769 108.519 182.218L113.664 190.792C122.734 185.35 122.362 171.791 112.62 167.148L108.318 176.176ZM158.328 203.661C171.95 198.703 178.973 183.641 174.015 170.02L164.618 173.44C167.687 181.872 163.34 191.195 154.908 194.264L158.328 203.661ZM124.687 187.974C129.645 201.596 144.706 208.619 158.328 203.661L154.908 194.264C146.476 197.333 137.153 192.986 134.084 184.554L124.687 187.974ZM140.374 154.333C126.752 159.29 119.729 174.352 124.687 187.974L134.084 184.554C131.015 176.122 135.362 166.798 143.794 163.729L140.374 154.333ZM174.015 170.02C169.057 156.398 153.996 149.375 140.374 154.333L143.794 163.729C152.226 160.661 161.549 165.008 164.618 173.44L174.015 170.02Z" fill="black" mask="url(#path-1-inside-1)"/>
</svg>
