<svg width="205" height="233" viewBox="0 0 205 233" fill="none" xmlns="http://www.w3.org/2000/svg">
<g filter="url(#filter0_d)">
<mask id="path-1-inside-1" fill="white">
<path fill-rule="evenodd" clip-rule="evenodd" d="M104.659 0.314626C103.552 -0.0898611 102.337 -0.0898605 101.229 0.314627L8.23247 34.2751C4.04809 35.8031 4.07112 41.0519 7.08126 43.1223V53.0271C7.08126 58.5499 11.5584 63.0271 17.0813 63.0271H188.807C194.33 63.0271 198.807 58.5499 198.807 53.0271V43.1223C201.817 41.0519 201.84 35.8031 197.656 34.2751L104.659 0.314626Z"/>
</mask>
<path d="M101.229 0.314627L102.944 5.01126V5.01126L101.229 0.314627ZM104.659 0.314626L102.944 5.01126V5.01126L104.659 0.314626ZM8.23247 34.2751L9.94759 38.9717H9.94759L8.23247 34.2751ZM7.08126 43.1223H12.0813V40.4928L9.91476 39.0027L7.08126 43.1223ZM198.807 43.1223L195.974 39.0027L193.807 40.4928V43.1223H198.807ZM197.656 34.2751L199.371 29.5785V29.5784L197.656 34.2751ZM102.944 5.01126L102.944 5.01126L106.374 -4.38201C104.159 -5.19098 101.729 -5.19098 99.5139 -4.38201L102.944 5.01126ZM9.94759 38.9717L102.944 5.01126L99.5139 -4.38201L6.51736 29.5785L9.94759 38.9717ZM9.91476 39.0027C9.94534 39.0237 9.96416 39.0436 9.97262 39.054C9.98018 39.0632 9.97662 39.0613 9.96898 39.0442C9.96117 39.0267 9.95262 39.001 9.94728 38.9699C9.94194 38.9388 9.94153 38.9123 9.94298 38.8942C9.9444 38.8766 9.94687 38.8748 9.94236 38.8874C9.93736 38.9013 9.9257 38.9271 9.90363 38.9574C9.89297 38.972 9.88168 38.9852 9.87068 38.9963C9.85962 39.0075 9.85117 39.0143 9.84736 39.0171C9.84355 39.02 9.84731 39.0167 9.86152 39.009C9.8758 39.0014 9.90341 38.9879 9.94759 38.9717L6.51736 29.5785C2.44204 31.0667 0.258932 34.5471 -0.0251412 38.0964C-0.293401 41.4481 1.11687 45.0885 4.24775 47.2419L9.91476 39.0027ZM12.0813 53.0271V43.1223H2.08126V53.0271H12.0813ZM17.0813 58.0271C14.3198 58.0271 12.0813 55.7885 12.0813 53.0271H2.08126C2.08126 61.3113 8.797 68.0271 17.0813 68.0271V58.0271ZM188.807 58.0271H17.0813V68.0271H188.807V58.0271ZM193.807 53.0271C193.807 55.7885 191.568 58.0271 188.807 58.0271V68.0271C197.091 68.0271 203.807 61.3113 203.807 53.0271H193.807ZM193.807 43.1223V53.0271H203.807V43.1223H193.807ZM195.941 38.9717C195.985 38.9879 196.012 39.0014 196.027 39.009C196.041 39.0167 196.045 39.02 196.041 39.0171C196.037 39.0143 196.029 39.0075 196.018 38.9963C196.007 38.9852 195.995 38.972 195.985 38.9574C195.963 38.9271 195.951 38.9013 195.946 38.8874C195.941 38.8748 195.944 38.8766 195.945 38.8942C195.947 38.9123 195.946 38.9388 195.941 38.9699C195.936 39.001 195.927 39.0267 195.919 39.0442C195.912 39.0613 195.908 39.0632 195.916 39.054C195.924 39.0436 195.943 39.0237 195.974 39.0027L201.641 47.2419C204.771 45.0884 206.182 41.4481 205.913 38.0964C205.629 34.5471 203.446 31.0667 199.371 29.5785L195.941 38.9717ZM102.944 5.01126L195.941 38.9717L199.371 29.5784L106.374 -4.38201L102.944 5.01126Z" fill="black" mask="url(#path-1-inside-1)"/>
<mask id="path-3-inside-2" fill="white">
<path fill-rule="evenodd" clip-rule="evenodd" d="M20.3932 77.2784C20.3932 72.721 24.0878 69.0265 28.6452 69.0265H53.6226C58.1801 69.0265 61.8746 72.721 61.8746 77.2784C61.8746 81.7855 58.2613 85.4487 53.7734 85.5291V169.32H55.5269C59.0326 169.32 61.8746 172.162 61.8746 175.667C61.8746 179.173 59.0327 182.015 55.5269 182.015H26.7409C23.2352 182.015 20.3932 179.173 20.3932 175.667C20.3932 172.162 23.2352 169.32 26.7409 169.32H29.2292V85.5304H28.6452C24.0878 85.5304 20.3932 81.8359 20.3932 77.2784Z"/>
</mask>
<path d="M53.7734 85.5291L53.6838 80.5299L48.7734 80.6179V85.5291H53.7734ZM53.7734 169.32H48.7734V174.32H53.7734V169.32ZM29.2292 169.32V174.32H34.2292V169.32H29.2292ZM29.2292 85.5304H34.2292V80.5304H29.2292V85.5304ZM28.6452 64.0265C21.3264 64.0265 15.3932 69.9596 15.3932 77.2784H25.3932C25.3932 75.4824 26.8492 74.0265 28.6452 74.0265V64.0265ZM53.6226 64.0265H28.6452V74.0265H53.6226V64.0265ZM66.8746 77.2784C66.8746 69.9596 60.9415 64.0265 53.6226 64.0265V74.0265C55.4186 74.0265 56.8746 75.4824 56.8746 77.2784H66.8746ZM53.863 90.5283C61.072 90.3991 66.8746 84.5169 66.8746 77.2784H56.8746C56.8746 79.0541 55.4506 80.4982 53.6838 80.5299L53.863 90.5283ZM48.7734 85.5291V169.32H58.7734V85.5291H48.7734ZM55.5269 164.32H53.7734V174.32H55.5269V164.32ZM66.8746 175.667C66.8746 169.4 61.7941 164.32 55.5269 164.32V174.32C56.2712 174.32 56.8746 174.923 56.8746 175.667H66.8746ZM55.5269 187.015C61.7941 187.015 66.8746 181.935 66.8746 175.667H56.8746C56.8746 176.412 56.2712 177.015 55.5269 177.015V187.015ZM26.7409 187.015H55.5269V177.015H26.7409V187.015ZM15.3932 175.667C15.3932 181.935 20.4738 187.015 26.7409 187.015V177.015C25.9966 177.015 25.3932 176.412 25.3932 175.667H15.3932ZM26.7409 164.32C20.4738 164.32 15.3932 169.4 15.3932 175.667H25.3932C25.3932 174.923 25.9966 174.32 26.7409 174.32V164.32ZM29.2292 164.32H26.7409V174.32H29.2292V164.32ZM34.2292 169.32V85.5304H24.2292V169.32H34.2292ZM28.6452 90.5304H29.2292V80.5304H28.6452V90.5304ZM15.3932 77.2784C15.3932 84.5973 21.3264 90.5304 28.6452 90.5304V80.5304C26.8492 80.5304 25.3932 79.0745 25.3932 77.2784H15.3932Z" fill="black" mask="url(#path-3-inside-2)"/>
<mask id="path-5-inside-3" fill="white">
<path fill-rule="evenodd" clip-rule="evenodd" d="M81.263 77.2784C81.263 72.721 84.9575 69.0265 89.515 69.0265H114.492C119.05 69.0265 122.744 72.721 122.744 77.2784C122.744 81.7855 119.131 85.4487 114.643 85.5291V169.32H116.764C120.27 169.32 123.112 172.162 123.112 175.667C123.112 179.173 120.27 182.015 116.764 182.015H87.9782C84.4725 182.015 81.6306 179.173 81.6306 175.667C81.6306 172.162 84.4725 169.32 87.9782 169.32H90.0989V85.5304H89.515C84.9575 85.5304 81.263 81.8359 81.263 77.2784Z"/>
</mask>
<path d="M114.643 85.5291L114.554 80.5299L109.643 80.6179V85.5291H114.643ZM114.643 169.32H109.643V174.32H114.643V169.32ZM90.0989 169.32V174.32H95.0989V169.32H90.0989ZM90.0989 85.5304H95.0989V80.5304H90.0989V85.5304ZM89.515 64.0265C82.1961 64.0265 76.263 69.9596 76.263 77.2784H86.263C86.263 75.4824 87.7189 74.0265 89.515 74.0265V64.0265ZM114.492 64.0265H89.515V74.0265H114.492V64.0265ZM127.744 77.2784C127.744 69.9596 121.811 64.0265 114.492 64.0265V74.0265C116.288 74.0265 117.744 75.4824 117.744 77.2784H127.744ZM114.733 90.5283C121.942 90.3991 127.744 84.5169 127.744 77.2784H117.744C117.744 79.0541 116.32 80.4982 114.554 80.5299L114.733 90.5283ZM109.643 85.5291V169.32H119.643V85.5291H109.643ZM116.764 164.32H114.643V174.32H116.764V164.32ZM128.112 175.667C128.112 169.4 123.031 164.32 116.764 164.32V174.32C117.509 174.32 118.112 174.923 118.112 175.667H128.112ZM116.764 187.015C123.031 187.015 128.112 181.935 128.112 175.667H118.112C118.112 176.412 117.509 177.015 116.764 177.015V187.015ZM87.9782 187.015H116.764V177.015H87.9782V187.015ZM76.6306 175.667C76.6306 181.935 81.7111 187.015 87.9782 187.015V177.015C87.2339 177.015 86.6306 176.412 86.6306 175.667H76.6306ZM87.9782 164.32C81.7111 164.32 76.6306 169.4 76.6306 175.667H86.6306C86.6306 174.923 87.2339 174.32 87.9782 174.32V164.32ZM90.0989 164.32H87.9782V174.32H90.0989V164.32ZM95.0989 169.32V85.5304H85.0989V169.32H95.0989ZM89.515 90.5304H90.0989V80.5304H89.515V90.5304ZM76.263 77.2784C76.263 84.5973 82.1961 90.5304 89.515 90.5304V80.5304C87.7189 80.5304 86.263 79.0745 86.263 77.2784H76.263Z" fill="black" mask="url(#path-5-inside-3)"/>
<mask id="path-7-inside-4" fill="white">
<path fill-rule="evenodd" clip-rule="evenodd" d="M143.114 77.2784C143.114 72.721 146.809 69.0265 151.366 69.0265H176.344C180.901 69.0265 184.596 72.721 184.596 77.2784C184.596 81.8359 180.901 85.5304 176.344 85.5304H175.513V169.32H178.248C181.754 169.32 184.596 172.162 184.596 175.667C184.596 179.173 181.754 182.015 178.248 182.015H149.462C145.956 182.015 143.114 179.173 143.114 175.667C143.114 172.162 145.956 169.32 149.462 169.32H150.969V85.521C146.596 85.3134 143.114 81.7025 143.114 77.2784Z"/>
</mask>
<path d="M175.513 85.5304V80.5304H170.513V85.5304H175.513ZM175.513 169.32H170.513V174.32H175.513V169.32ZM150.969 169.32V174.32H155.969V169.32H150.969ZM150.969 85.521H155.969V80.7527L151.206 80.5266L150.969 85.521ZM151.366 64.0265C144.048 64.0265 138.114 69.9596 138.114 77.2784H148.114C148.114 75.4824 149.57 74.0265 151.366 74.0265V64.0265ZM176.344 64.0265H151.366V74.0265H176.344V64.0265ZM189.596 77.2784C189.596 69.9596 183.663 64.0265 176.344 64.0265V74.0265C178.14 74.0265 179.596 75.4824 179.596 77.2784H189.596ZM176.344 90.5304C183.663 90.5304 189.596 84.5973 189.596 77.2784H179.596C179.596 79.0745 178.14 80.5304 176.344 80.5304V90.5304ZM175.513 90.5304H176.344V80.5304H175.513V90.5304ZM170.513 85.5304V169.32H180.513V85.5304H170.513ZM178.248 164.32H175.513V174.32H178.248V164.32ZM189.596 175.667C189.596 169.4 184.515 164.32 178.248 164.32V174.32C178.992 174.32 179.596 174.923 179.596 175.667H189.596ZM178.248 187.015C184.515 187.015 189.596 181.935 189.596 175.667H179.596C179.596 176.412 178.992 177.015 178.248 177.015V187.015ZM149.462 187.015H178.248V177.015H149.462V187.015ZM138.114 175.667C138.114 181.935 143.195 187.015 149.462 187.015V177.015C148.718 177.015 148.114 176.412 148.114 175.667H138.114ZM149.462 164.32C143.195 164.32 138.114 169.4 138.114 175.667H148.114C148.114 174.923 148.718 174.32 149.462 174.32V164.32ZM150.969 164.32H149.462V174.32H150.969V164.32ZM155.969 169.32V85.521H145.969V169.32H155.969ZM138.114 77.2784C138.114 84.3845 143.705 90.1819 150.732 90.5154L151.206 80.5266C149.486 80.445 148.114 79.0205 148.114 77.2784H138.114Z" fill="black" mask="url(#path-7-inside-4)"/>
<rect x="17.9844" y="187.515" width="170.737" height="14.998" rx="7.499" stroke="black" stroke-width="5"/>
<rect x="9.14944" y="213.512" width="187.427" height="7.9987" rx="3.99935" stroke="black" stroke-width="5"/>
</g>
<defs>
<filter id="filter0_d" x="0.942261" y="0.011261" width="204.004" height="232" filterUnits="userSpaceOnUse" color-interpolation-filters="sRGB">
<feFlood flood-opacity="0" result="BackgroundImageFix"/>
<feColorMatrix in="SourceAlpha" type="matrix" values="0 0 0 0 0 0 0 0 0 0 0 0 0 0 0 0 0 0 127 0"/>
<feOffset dy="4"/>
<feGaussianBlur stdDeviation="2"/>
<feColorMatrix type="matrix" values="0 0 0 0 0 0 0 0 0 0 0 0 0 0 0 0 0 0 0.25 0"/>
<feBlend mode="normal" in2="BackgroundImageFix" result="effect1_dropShadow"/>
<feBlend mode="normal" in="SourceGraphic" in2="effect1_dropShadow" result="shape"/>
</filter>
</defs>
</svg>
