<svg width="196" height="223" viewBox="0 0 196 223" fill="none" xmlns="http://www.w3.org/2000/svg">
<mask id="path-1-inside-1" fill="white">
<path fill-rule="evenodd" clip-rule="evenodd" d="M0 6C0 2.68629 2.68629 0 6 0H190C193.314 0 196 2.68629 196 6C196 9.31371 193.314 12 190 12H140.383C140.579 12.7799 140.684 13.5964 140.684 14.4373C140.684 19.93 136.231 24.3827 130.738 24.3827H130.58C121.857 17.2708 110.682 13 98.5 13C86.3178 13 75.1432 17.2708 66.42 24.3827H66.1699C60.6772 24.3827 56.2245 19.93 56.2245 14.4373C56.2245 13.5964 56.3288 12.7799 56.5253 12H29.8878V39.7408C29.8878 40.8304 29.2481 41.7706 28.3239 42.2064C30.2695 43.4318 31.7041 47.6647 31.7041 52.6983C31.7041 58.6903 29.6711 63.5478 27.1633 63.5478C24.6554 63.5478 22.6224 58.6903 22.6224 52.6983C22.6224 47.6647 24.0571 43.4318 26.0026 42.2064C25.0784 41.7705 24.4388 40.8303 24.4388 39.7408V12H6C2.68629 12 0 9.31371 0 6ZM66.42 24.3827H130.58C141.828 33.5531 149 47.4473 149 63C149 83.7979 136.175 101.63 117.928 109.166C113.502 110.505 109.451 111.597 106.174 112.426C103.672 112.804 101.109 113 98.5 113C70.6096 113 48 90.6142 48 63C48 47.4473 55.172 33.5531 66.42 24.3827ZM184.925 103.886C186.818 104.5 188 106.295 188 108.285V201.819C188 205.026 185.012 207.455 181.838 206.998C170.36 205.347 145.405 203.48 129.224 214.913C119.589 220.085 109.164 221.952 103.128 222.624C101.543 222.866 99.8122 223 98 223C96.4328 223 94.9267 222.9 93.5231 222.716C93.356 222.718 93.1865 222.71 93.0149 222.693C87.0016 222.094 76.4874 220.326 66.7755 215.113C50.5955 203.68 25.6403 205.547 14.1619 207.198C10.9881 207.655 8 205.226 8 202.019V108.485C8 106.495 9.18213 104.7 11.0751 104.086C17.9802 101.847 35.318 97.7704 50.7041 106.785C65.962 115.725 85.8814 121.525 94.1467 123.699C96.4013 124.293 98 126.318 98 128.649V128.62C98 126.302 99.5823 124.284 101.821 123.681C110.067 121.459 130.018 115.537 145.296 106.585C160.682 97.5703 178.02 101.647 184.925 103.886ZM98 138.862C96.4784 138.862 95.2449 140.096 95.2449 141.617V211.831C95.2449 213.353 96.4784 214.586 98 214.586C99.5216 214.586 100.755 213.353 100.755 211.831V141.617C100.755 140.096 99.5216 138.862 98 138.862ZM121.878 146.224H155.857V150.431H121.878V146.224ZM142.082 159.896H121.878V164.103H142.082V159.896ZM121.878 181.983H169.633V185.138H121.878V181.983ZM71.3674 144.121H65.8572V150.431H71.3674V144.121ZM54.8367 144.121H60.3469V150.431H54.8367V144.121ZM71.3673 170.414H34.6326V173.569H71.3673V170.414ZM60.3469 180.931H71.3673V185.138H60.3469V180.931Z"/>
</mask>
<path d="M140.383 12V7H133.967L135.534 13.2214L140.383 12ZM56.5253 12L61.3738 13.2215L62.9412 7H56.5253V12ZM29.8878 12V7H24.8878V12H29.8878ZM28.3239 42.2064L26.1914 37.684L17.9397 41.575L25.6592 46.4371L28.3239 42.2064ZM26.0026 42.2064L28.6674 46.4371L36.3868 41.5751L28.1352 37.684L26.0026 42.2064ZM24.4388 12H29.4388V7H24.4388V12ZM117.928 109.166L119.376 113.952L119.61 113.881L119.836 113.787L117.928 109.166ZM106.174 112.426L106.921 117.37L107.163 117.334L107.401 117.273L106.174 112.426ZM184.925 103.886L183.382 108.642L183.383 108.642L184.925 103.886ZM181.838 206.998L182.55 202.049H182.55L181.838 206.998ZM129.224 214.913L131.589 219.318L131.859 219.173L132.11 218.996L129.224 214.913ZM103.128 222.624L102.574 217.654L102.472 217.666L102.371 217.681L103.128 222.624ZM93.5231 222.716L94.1731 217.758L93.8234 217.713L93.4706 217.716L93.5231 222.716ZM93.0149 222.693L92.5191 227.669L92.5192 227.669L93.0149 222.693ZM66.7755 215.113L63.8901 219.196L64.1405 219.373L64.4107 219.518L66.7755 215.113ZM14.1619 207.198L14.8738 212.147H14.8738L14.1619 207.198ZM11.0751 104.086L9.53274 99.3301H9.53273L11.0751 104.086ZM50.7041 106.785L53.2318 102.471L50.7041 106.785ZM94.1467 123.699L95.4187 118.864L95.4187 118.864L94.1467 123.699ZM101.821 123.681L103.122 128.509L101.821 123.681ZM145.296 106.585L142.768 102.271L145.296 106.585ZM155.857 146.224H160.857V141.224H155.857V146.224ZM121.878 146.224V141.224H116.878V146.224H121.878ZM155.857 150.431V155.431H160.857V150.431H155.857ZM121.878 150.431H116.878V155.431H121.878V150.431ZM121.878 159.896V154.896H116.878V159.896H121.878ZM142.082 159.896H147.082V154.896H142.082V159.896ZM121.878 164.103H116.878V169.103H121.878V164.103ZM142.082 164.103V169.103H147.082V164.103H142.082ZM169.633 181.983H174.633V176.983H169.633V181.983ZM121.878 181.983V176.983H116.878V181.983H121.878ZM169.633 185.138V190.138H174.633V185.138H169.633ZM121.878 185.138H116.878V190.138H121.878V185.138ZM65.8572 144.121V139.121H60.8572V144.121H65.8572ZM71.3674 144.121H76.3674V139.121H71.3674V144.121ZM65.8572 150.431H60.8572V155.431H65.8572V150.431ZM71.3674 150.431V155.431H76.3674V150.431H71.3674ZM60.3469 144.121H65.3469V139.121H60.3469V144.121ZM54.8367 144.121V139.121H49.8367V144.121H54.8367ZM60.3469 150.431V155.431H65.3469V150.431H60.3469ZM54.8367 150.431H49.8367V155.431H54.8367V150.431ZM34.6326 170.414V165.414H29.6326V170.414H34.6326ZM71.3673 170.414H76.3673V165.414H71.3673V170.414ZM34.6326 173.569H29.6326V178.569H34.6326V173.569ZM71.3673 173.569V178.569H76.3673V173.569H71.3673ZM71.3673 180.931H76.3673V175.931H71.3673V180.931ZM60.3469 180.931V175.931H55.3469V180.931H60.3469ZM71.3673 185.138V190.138H76.3673V185.138H71.3673ZM60.3469 185.138H55.3469V190.138H60.3469V185.138ZM6 -5C-0.0751321 -5 -5 -0.0751321 -5 6H5C5 5.44772 5.44772 5 6 5V-5ZM190 -5H6V5H190V-5ZM201 6C201 -0.0751336 196.075 -5 190 -5V5C190.552 5 191 5.44772 191 6H201ZM190 17C196.075 17 201 12.0751 201 6H191C191 6.55228 190.552 7 190 7V17ZM140.383 17H190V7H140.383V17ZM145.684 14.4373C145.684 13.1812 145.528 11.9545 145.231 10.7786L135.534 13.2214C135.631 13.6053 135.684 14.0116 135.684 14.4373H145.684ZM130.738 29.3827C138.992 29.3827 145.684 22.6914 145.684 14.4373H135.684C135.684 17.1686 133.47 19.3827 130.738 19.3827V29.3827ZM130.58 29.3827H130.738V19.3827H130.58V29.3827ZM98.5 18C109.494 18 119.561 21.85 127.421 28.258L133.739 20.5074C124.153 12.6917 111.87 8 98.5 8V18ZM69.5795 28.258C77.4393 21.85 87.5058 18 98.5 18V8C85.1298 8 72.847 12.6917 63.2605 20.5074L69.5795 28.258ZM66.1699 29.3827H66.42V19.3827H66.1699V29.3827ZM51.2245 14.4373C51.2245 22.6914 57.9158 29.3827 66.1699 29.3827V19.3827C63.4386 19.3827 61.2245 17.1686 61.2245 14.4373H51.2245ZM51.6768 10.7785C51.3805 11.9546 51.2245 13.1812 51.2245 14.4373H61.2245C61.2245 14.0116 61.2771 13.6052 61.3738 13.2215L51.6768 10.7785ZM29.8878 17H56.5253V7H29.8878V17ZM34.8878 39.7408V12H24.8878V39.7408H34.8878ZM30.4564 46.7288C33.0653 45.4986 34.8878 42.8375 34.8878 39.7408H24.8878C24.8878 38.8232 25.4309 38.0425 26.1914 37.684L30.4564 46.7288ZM36.7041 52.6983C36.7041 49.7401 36.2867 46.8886 35.496 44.4703C34.7827 42.289 33.4648 39.5353 30.9886 37.9756L25.6592 46.4371C25.3155 46.2207 25.2858 46.0715 25.4423 46.3199C25.5818 46.5413 25.7853 46.9485 25.9912 47.5782C26.4041 48.8411 26.7041 50.6229 26.7041 52.6983H36.7041ZM27.1633 68.5478C29.5238 68.5478 31.3257 67.3835 32.4849 66.212C33.626 65.0588 34.4236 63.6452 34.9864 62.3004C36.1209 59.5897 36.7041 56.1919 36.7041 52.6983H26.7041C26.7041 55.1967 26.2707 57.2236 25.7618 58.4397C25.5028 59.0583 25.322 59.2336 25.3766 59.1783C25.4493 59.1049 26.0566 58.5478 27.1633 58.5478V68.5478ZM17.6224 52.6983C17.6224 56.1919 18.2056 59.5897 19.3401 62.3004C19.9029 63.6452 20.7005 65.0588 21.8416 66.212C23.0008 67.3835 24.8027 68.5478 27.1633 68.5478V58.5478C28.2699 58.5478 28.8772 59.1049 28.9499 59.1783C29.0045 59.2336 28.8237 59.0583 28.5647 58.4397C28.0558 57.2236 27.6224 55.1967 27.6224 52.6983H17.6224ZM23.3379 37.9756C20.8617 39.5352 19.5438 42.289 18.8306 44.4703C18.0398 46.8886 17.6224 49.7401 17.6224 52.6983H27.6224C27.6224 50.6229 27.9224 48.8411 28.3353 47.5782C28.5412 46.9485 28.7447 46.5413 28.8842 46.3199C29.0407 46.0715 29.011 46.2207 28.6674 46.4371L23.3379 37.9756ZM19.4388 39.7408C19.4388 42.8375 21.2612 45.4986 23.8701 46.7288L28.1352 37.684C28.8956 38.0425 29.4388 38.8232 29.4388 39.7408H19.4388ZM19.4388 12V39.7408H29.4388V12H19.4388ZM6 17H24.4388V7H6V17ZM-5 6C-5 12.0751 -0.075138 17 6 17V7C5.44772 7 5 6.55229 5 6H-5ZM130.58 19.3827H66.42V29.3827H130.58V19.3827ZM154 63C154 45.871 146.094 30.5799 133.739 20.5074L127.421 28.258C137.562 36.5264 144 49.0236 144 63H154ZM119.836 113.787C139.867 105.515 154 85.9147 154 63H144C144 81.6811 132.482 97.7453 116.019 104.545L119.836 113.787ZM107.401 117.273C110.737 116.429 114.863 115.317 119.376 113.952L116.48 104.38C112.14 105.693 108.164 106.765 104.947 107.579L107.401 117.273ZM98.5 118C101.36 118 104.172 117.785 106.921 117.37L105.428 107.482C103.172 107.823 100.858 108 98.5 108V118ZM43 63C43 93.4224 67.8952 118 98.5 118V108C73.324 108 53 87.806 53 63H43ZM63.2605 20.5074C50.9061 30.5799 43 45.871 43 63H53C53 49.0236 59.4378 36.5264 69.5795 28.258L63.2605 20.5074ZM193 108.285C193 104.348 190.625 100.478 186.467 99.1301L183.383 108.642C183.233 108.594 183.114 108.493 183.052 108.402C182.998 108.323 183 108.277 183 108.285H193ZM193 201.819V108.285H183V201.819H193ZM181.126 211.947C187.107 212.808 193 208.275 193 201.819H183C183 201.832 182.999 201.834 182.995 201.841C182.988 201.856 182.965 201.894 182.912 201.938C182.796 202.034 182.661 202.065 182.55 202.049L181.126 211.947ZM132.11 218.996C139.158 214.016 148.418 211.756 157.683 211.034C166.881 210.317 175.593 211.151 181.126 211.947L182.55 202.049C176.605 201.194 167.1 200.269 156.906 201.064C146.779 201.854 135.471 204.376 126.339 210.829L132.11 218.996ZM103.681 227.593C110.01 226.888 121.152 224.921 131.589 219.318L126.86 210.507C118.026 215.25 108.318 217.015 102.574 217.654L103.681 227.593ZM98 228C100.054 228 102.038 227.849 103.885 227.566L102.371 217.681C101.048 217.884 99.5708 218 98 218V228ZM92.8732 227.674C94.4996 227.887 96.2229 228 98 228V218C96.6426 218 95.3539 217.913 94.1731 217.758L92.8732 227.674ZM92.5192 227.669C92.8721 227.704 93.2246 227.719 93.5756 227.716L93.4706 217.716C93.4874 217.716 93.5008 217.717 93.5107 217.718L92.5192 227.669ZM64.4107 219.518C74.9499 225.176 86.2061 227.039 92.5191 227.669L93.5108 217.718C87.7971 217.148 78.0248 215.477 69.1404 210.707L64.4107 219.518ZM14.8738 212.147C20.4073 211.351 29.1192 210.517 38.317 211.234C47.5819 211.956 56.8422 214.216 63.8901 219.196L69.6609 211.029C60.5288 204.577 49.2215 202.054 39.0942 201.264C28.8999 200.469 19.395 201.394 13.4501 202.249L14.8738 212.147ZM3 202.019C3 208.475 8.89275 213.008 14.8738 212.147L13.4501 202.249C13.3394 202.265 13.2036 202.234 13.0875 202.138C13.035 202.094 13.0119 202.056 13.0046 202.042C13.0008 202.034 13 202.032 13 202.019H3ZM3 108.485V202.019H13V108.485H3ZM9.53273 99.3301C5.37545 100.678 3 104.549 3 108.485H13C13 108.477 13.0024 108.523 12.948 108.602C12.8856 108.693 12.7671 108.794 12.6175 108.842L9.53273 99.3301ZM53.2318 102.471C35.9051 92.3193 16.7424 96.9921 9.53274 99.3301L12.6175 108.842C19.218 106.702 34.731 103.221 48.1764 111.099L53.2318 102.471ZM95.4187 118.864C87.2145 116.706 67.8617 111.043 53.2318 102.471L48.1764 111.099C64.0623 120.407 84.5483 126.345 92.8746 128.535L95.4187 118.864ZM103 128.649C103 123.99 99.8153 120.021 95.4187 118.864L92.8746 128.535C92.9222 128.547 92.9567 128.572 92.9796 128.602C92.9905 128.616 92.9955 128.627 92.9976 128.633C92.999 128.637 93 128.641 93 128.649H103ZM93 128.62V128.649H103V128.62H93ZM100.52 118.853C96.1526 120.03 93 123.986 93 128.62H103C103 128.612 103.001 128.608 103.002 128.605C103.004 128.599 103.009 128.588 103.02 128.574C103.042 128.546 103.076 128.521 103.122 128.509L100.52 118.853ZM142.768 102.271C128.105 110.863 108.707 116.647 100.52 118.853L103.122 128.509C111.426 126.271 131.931 120.211 147.824 110.899L142.768 102.271ZM186.467 99.1301C179.258 96.792 160.095 92.1192 142.768 102.271L147.824 110.899C161.269 103.021 176.782 106.502 183.382 108.642L186.467 99.1301ZM100.245 141.617C100.245 142.857 99.2398 143.862 98 143.862V133.862C93.717 133.862 90.2449 137.334 90.2449 141.617H100.245ZM100.245 211.831V141.617H90.2449V211.831H100.245ZM98 209.586C99.2399 209.586 100.245 210.591 100.245 211.831H90.2449C90.2449 216.114 93.7169 219.586 98 219.586V209.586ZM95.7551 211.831C95.7551 210.591 96.7601 209.586 98 209.586V219.586C102.283 219.586 105.755 216.114 105.755 211.831H95.7551ZM95.7551 141.617V211.831H105.755V141.617H95.7551ZM98 143.862C96.7602 143.862 95.7551 142.857 95.7551 141.617H105.755C105.755 137.334 102.283 133.862 98 133.862V143.862ZM155.857 141.224H121.878V151.224H155.857V141.224ZM160.857 150.431V146.224H150.857V150.431H160.857ZM121.878 155.431H155.857V145.431H121.878V155.431ZM116.878 146.224V150.431H126.878V146.224H116.878ZM121.878 164.896H142.082V154.896H121.878V164.896ZM126.878 164.103V159.896H116.878V164.103H126.878ZM142.082 159.103H121.878V169.103H142.082V159.103ZM137.082 159.896V164.103H147.082V159.896H137.082ZM169.633 176.983H121.878V186.983H169.633V176.983ZM174.633 185.138V181.983H164.633V185.138H174.633ZM121.878 190.138H169.633V180.138H121.878V190.138ZM116.878 181.983V185.138H126.878V181.983H116.878ZM65.8572 149.121H71.3674V139.121H65.8572V149.121ZM70.8572 150.431V144.121H60.8572V150.431H70.8572ZM71.3674 145.431H65.8572V155.431H71.3674V145.431ZM66.3674 144.121V150.431H76.3674V144.121H66.3674ZM60.3469 139.121H54.8367V149.121H60.3469V139.121ZM65.3469 150.431V144.121H55.3469V150.431H65.3469ZM54.8367 155.431H60.3469V145.431H54.8367V155.431ZM49.8367 144.121V150.431H59.8367V144.121H49.8367ZM34.6326 175.414H71.3673V165.414H34.6326V175.414ZM39.6326 173.569V170.414H29.6326V173.569H39.6326ZM71.3673 168.569H34.6326V178.569H71.3673V168.569ZM66.3673 170.414V173.569H76.3673V170.414H66.3673ZM71.3673 175.931H60.3469V185.931H71.3673V175.931ZM76.3673 185.138V180.931H66.3673V185.138H76.3673ZM60.3469 190.138H71.3673V180.138H60.3469V190.138ZM55.3469 180.931V185.138H65.3469V180.931H55.3469Z" fill="black" mask="url(#path-1-inside-1)"/>
</svg>
