<svg width="204" height="233" viewBox="0 0 204 233" fill="none" xmlns="http://www.w3.org/2000/svg">
<g filter="url(#filter0_d)">
<path fill-rule="evenodd" clip-rule="evenodd" d="M78.5354 0.632141C80.151 0.0288232 81.8949 -0.146595 83.5978 0.122919L154.962 11.4174C165.094 13.0208 166.523 27.0201 156.925 30.648L97.2561 53.2028C95.7733 53.7632 94.1787 53.9633 92.6038 53.7866L13.9154 44.9546C3.45961 43.781 1.68335 29.331 11.5423 25.6494L78.5354 0.632141ZM21 200.29V51.7908L94.8039 57.1511C95.9964 57.2377 97.1948 57.1098 98.3421 56.7734L151.333 41.2348C152.405 43.6864 153 46.3944 153 49.2414V72.6546H114.009C102.963 72.6546 94.0088 81.6089 94.0088 92.6546V200.29H21ZM66.7184 75.3324H45.165V94.7229H66.7184V75.3324ZM45.165 149.016H66.7184V168.407H45.165V149.016ZM66.7184 112.174H45.165V131.565H66.7184V112.174ZM103 97.7692C103 86.7235 111.954 77.7692 123 77.7692H160C171.046 77.7692 180 86.7235 180 97.7692V206.218H191.107C196.019 206.218 200 210.199 200 215.111C200 220.022 196.019 224.003 191.107 224.003H12.8926C7.98136 224.003 4 220.022 4 215.111C4 210.199 7.98136 206.218 12.8926 206.218H103V97.7692ZM150 111.363H130V131.125H150V111.363ZM130 150.886H150V170.648H130V150.886Z" fill="#1A1818"/>
</g>
<defs>
<filter id="filter0_d" x="0" y="0" width="204" height="232.003" filterUnits="userSpaceOnUse" color-interpolation-filters="sRGB">
<feFlood flood-opacity="0" result="BackgroundImageFix"/>
<feColorMatrix in="SourceAlpha" type="matrix" values="0 0 0 0 0 0 0 0 0 0 0 0 0 0 0 0 0 0 127 0"/>
<feOffset dy="4"/>
<feGaussianBlur stdDeviation="2"/>
<feColorMatrix type="matrix" values="0 0 0 0 0 0 0 0 0 0 0 0 0 0 0 0 0 0 0.25 0"/>
<feBlend mode="normal" in2="BackgroundImageFix" result="effect1_dropShadow"/>
<feBlend mode="normal" in="SourceGraphic" in2="effect1_dropShadow" result="shape"/>
</filter>
</defs>
</svg>
