<svg width="196" height="224" viewBox="0 0 196 224" fill="none" xmlns="http://www.w3.org/2000/svg">
<path fill-rule="evenodd" clip-rule="evenodd" d="M21 4.97778C21 2.22863 23.2286 0 25.9778 0H170.022C172.771 0 175 2.22863 175 4.97778C175 7.72693 172.771 9.95556 170.022 9.95556H127L127 9.97778V17.8978C127 18.6749 126.823 19.4106 126.506 20.0666C118.298 14.323 108.295 10.9511 97.5 10.9511C87.0446 10.9511 77.3314 14.1143 69.2731 19.5319C69.0961 19.0198 69 18.47 69 17.8978V9.97778L69 9.95556H40V39.3133C40 40.2369 39.4992 41.0434 38.7544 41.4763C40.0678 42.911 41 46.5325 41 50.7733C41 56.2716 39.433 60.7289 37.5 60.7289C35.567 60.7289 34 56.2716 34 50.7733C34 46.5325 34.9322 42.911 36.2456 41.4763C35.5008 41.0434 35 40.2369 35 39.3133V9.95556H25.9778C23.2286 9.95556 21 7.72693 21 4.97778ZM69.2731 19.5319C69.9503 21.4909 71.8108 22.8978 74 22.8978H122C123.984 22.8978 125.699 21.7418 126.506 20.0666C139.505 29.1627 148 44.207 148 61.2267C148 88.9931 125.39 111.502 97.5 111.502C69.6096 111.502 47 88.9931 47 61.2267C47 43.8691 55.8355 28.5661 69.2731 19.5319ZM10 110.291C34.7126 100.816 59.9195 110.291 96 126.749V224C96 224 58.931 207.633 36.6897 211.033C14.4483 214.434 10 196.071 10 196.071V179.742C11.1333 180.04 12.3034 180.196 13.5 180.196C23.7173 180.196 32 168.83 32 154.809C32 140.788 23.7173 129.422 13.5 129.422C12.3034 129.422 11.1333 129.578 10 129.876V110.291ZM13.5 173.227C20.9558 173.227 27 164.981 27 154.809C27 144.637 20.9558 136.391 13.5 136.391C6.04416 136.391 0 144.637 0 154.809C0 164.981 6.04416 173.227 13.5 173.227ZM186 110.291C161.575 100.816 136.661 110.291 101 126.749V224C101 224 137.638 207.633 159.621 211.033C181.603 214.434 186 196.071 186 196.071V179.742C184.781 180.04 183.522 180.196 182.234 180.196C171.241 180.196 162.329 168.83 162.329 154.809C162.329 140.788 171.241 129.422 182.234 129.422C183.522 129.422 184.781 129.578 186 129.876V110.291ZM182.5 173.227C175.044 173.227 169 164.981 169 154.809C169 144.637 175.044 136.391 182.5 136.391C189.956 136.391 196 144.637 196 154.809C196 164.981 189.956 173.227 182.5 173.227Z" fill="#020202"/>
</svg>
