<svg width="196" height="224" viewBox="0 0 196 224" fill="none" xmlns="http://www.w3.org/2000/svg">
<mask id="path-1-inside-1" fill="white">
<path fill-rule="evenodd" clip-rule="evenodd" d="M21 4.97778C21 2.22863 23.2286 0 25.9778 0H170.022C172.771 0 175 2.22863 175 4.97778C175 7.72693 172.771 9.95556 170.022 9.95556H127C127 9.96296 127 9.97037 127 9.97778V17.8978C127 18.6749 126.823 19.4106 126.506 20.0666C118.298 14.323 108.295 10.9511 97.5 10.9511C87.0446 10.9511 77.3314 14.1143 69.2731 19.5319C69.0961 19.0198 69 18.47 69 17.8978V9.97778C69 9.97037 69 9.96296 69 9.95556H40V39.3133C40 40.2369 39.4992 41.0434 38.7544 41.4763C40.0678 42.911 41 46.5325 41 50.7733C41 56.2716 39.433 60.7289 37.5 60.7289C35.567 60.7289 34 56.2716 34 50.7733C34 46.5325 34.9322 42.911 36.2456 41.4763C35.5008 41.0434 35 40.2369 35 39.3133V9.95556H25.9778C23.2286 9.95556 21 7.72693 21 4.97778ZM69.2731 19.5319C55.8355 28.5661 47 43.8691 47 61.2267C47 88.9931 69.6096 111.502 97.5 111.502C125.39 111.502 148 88.9931 148 61.2267C148 44.207 139.505 29.1627 126.506 20.0666C125.699 21.7418 123.984 22.8978 122 22.8978H74C71.8108 22.8978 69.9503 21.4909 69.2731 19.5319ZM96 126.749C59.9195 110.291 34.7126 100.816 10 110.291V129.876C11.1333 129.578 12.3034 129.422 13.5 129.422C23.7173 129.422 32 140.788 32 154.809C32 168.83 23.7173 180.196 13.5 180.196C12.3034 180.196 11.1333 180.04 10 179.742V196.071C10 196.071 14.4483 214.434 36.6897 211.033C58.931 207.633 96 224 96 224V126.749ZM27 154.809C27 164.981 20.9558 173.227 13.5 173.227C6.04416 173.227 0 164.981 0 154.809C0 144.637 6.04416 136.391 13.5 136.391C20.9558 136.391 27 144.637 27 154.809ZM101 126.749C136.661 110.291 161.575 100.816 186 110.291V129.876C184.781 129.578 183.522 129.422 182.234 129.422C171.241 129.422 162.329 140.788 162.329 154.809C162.329 168.83 171.241 180.196 182.234 180.196C183.522 180.196 184.781 180.04 186 179.742V196.071C186 196.071 181.603 214.434 159.621 211.033C137.638 207.633 101 224 101 224V126.749ZM169 154.809C169 164.981 175.044 173.227 182.5 173.227C189.956 173.227 196 164.981 196 154.809C196 144.637 189.956 136.391 182.5 136.391C175.044 136.391 169 144.637 169 154.809Z"/>
</mask>
<path d="M127 9.95556V4.95556H121.979L122 9.97617L127 9.95556ZM69 9.95556L74 9.97617L74.0207 4.95556H69V9.95556ZM40 9.95556V4.95556H35V9.95556H40ZM38.7544 41.4763L36.2419 37.1534L30.8743 40.2732L35.0664 44.8525L38.7544 41.4763ZM36.2456 41.4763L39.9336 44.8525L44.1257 40.2731L38.7581 37.1534L36.2456 41.4763ZM35 9.95556H40V4.95556H35V9.95556ZM10 110.291L8.20989 105.623L5 106.854V110.291H10ZM96 126.749H101V123.534L98.075 122.2L96 126.749ZM10 129.876H5V136.359L11.2707 134.712L10 129.876ZM10 179.742L11.2706 174.906L5 173.258V179.742H10ZM10 196.071H5V196.668L5.14056 197.249L10 196.071ZM36.6897 211.033L35.934 206.091L36.6897 211.033ZM96 224L93.9804 228.574L101 231.673V224H96ZM186 110.291H191V106.868L187.808 105.63L186 110.291ZM101 126.749L98.9048 122.209L96 123.55V126.749H101ZM186 129.876L184.814 134.733L191 136.244V129.876H186ZM186 179.742H191V173.374L184.814 174.885L186 179.742ZM186 196.071L190.863 197.236L191 196.662V196.071H186ZM159.621 211.033L160.385 206.092L159.621 211.033ZM101 224H96V231.71L103.039 228.565L101 224ZM25.9778 -5C20.4672 -5 16 -0.532798 16 4.97778H26C26 4.97275 26.0004 4.97303 25.9996 4.97696C25.9989 4.9806 25.9977 4.98451 25.9962 4.98796C25.9935 4.99424 25.9919 4.99511 25.9935 4.99349C25.9951 4.99187 25.9942 4.99355 25.988 4.9962C25.9845 4.99766 25.9806 4.99888 25.977 4.99962C25.973 5.00043 25.9727 5 25.9778 5V-5ZM170.022 -5H25.9778V5H170.022V-5ZM180 4.97778C180 -0.532797 175.533 -5 170.022 -5V5C170.027 5 170.027 5.00043 170.023 4.99962C170.019 4.99888 170.016 4.99766 170.012 4.9962C170.006 4.99355 170.005 4.99187 170.007 4.99349C170.008 4.99511 170.006 4.99424 170.004 4.98796C170.002 4.9845 170.001 4.98059 170 4.97696C170 4.97303 170 4.97274 170 4.97778H180ZM170.022 14.9556C175.533 14.9556 180 10.4884 180 4.97778H170C170 4.98281 170 4.98253 170 4.9786C170.001 4.97496 170.002 4.97105 170.004 4.9676C170.006 4.96132 170.008 4.96044 170.007 4.96206C170.005 4.96369 170.006 4.96201 170.012 4.95935C170.016 4.95789 170.019 4.95668 170.023 4.95593C170.027 4.95513 170.027 4.95556 170.022 4.95556V14.9556ZM127 14.9556H170.022V4.95556H127V14.9556ZM132 9.97778C132 9.9635 132 9.94923 132 9.93495L122 9.97617C122 9.97669 122 9.97723 122 9.97778H132ZM132 17.8978V9.97778H122V17.8978H132ZM131.01 22.2382C131.646 20.9194 132 19.4429 132 17.8978H122C122 17.9018 122 17.9038 122 17.904C122 17.9043 122 17.9036 122 17.9023C122.001 17.8994 122.002 17.8968 122.003 17.8951L131.01 22.2382ZM129.373 15.97C120.351 9.65665 109.352 5.95111 97.5 5.95111V15.9511C107.238 15.9511 116.246 18.9894 123.64 24.1632L129.373 15.97ZM97.5 5.95111C86.0215 5.95111 75.3417 9.42704 66.4835 15.3825L72.0628 23.6813C79.321 18.8016 88.0677 15.9511 97.5 15.9511V5.95111ZM64 17.8978C64 19.0334 64.1913 20.1349 64.5475 21.1653L73.9988 17.8984C73.9996 17.9007 74 17.9027 74.0002 17.9038C74.0004 17.9051 74 17.9034 74 17.8978H64ZM64 9.97778V17.8978H74V9.97778H64ZM64.0001 9.93495C64 9.94923 64 9.9635 64 9.97778H74C74 9.97723 74 9.97669 74 9.97617L64.0001 9.93495ZM40 14.9556H69V4.95556H40V14.9556ZM45 39.3133V9.95556H35V39.3133H45ZM41.267 45.7992C43.4883 44.5081 45 42.0902 45 39.3133H35C35 38.3835 35.5102 37.5787 36.2419 37.1534L41.267 45.7992ZM46 50.7733C46 48.3092 45.7314 45.9371 45.225 43.8782C44.7587 41.9826 43.9458 39.7424 42.4425 38.1001L35.0664 44.8525C34.8764 44.6449 35.1863 44.9328 35.5145 46.2668C35.8024 47.4376 36 48.9966 36 50.7733H46ZM37.5 65.7289C40.0585 65.7289 41.7939 64.2417 42.7075 63.1426C43.6459 62.0136 44.267 60.6797 44.6919 59.4713C45.5576 57.0088 46 53.9334 46 50.7733H36C36 53.1116 35.6589 55.0139 35.2579 56.1547C35.0494 56.7478 34.9163 56.8719 35.0172 56.7505C35.0933 56.6589 35.908 55.7289 37.5 55.7289V65.7289ZM29 50.7733C29 53.9334 29.4424 57.0088 30.3081 59.4713C30.733 60.6797 31.3541 62.0136 32.2925 63.1426C33.2061 64.2417 34.9415 65.7289 37.5 65.7289V55.7289C39.092 55.7289 39.9067 56.6589 39.9828 56.7505C40.0837 56.8719 39.9506 56.7478 39.7421 56.1547C39.3411 55.0139 39 53.1116 39 50.7733H29ZM32.5575 38.1001C31.0542 39.7424 30.2413 41.9826 29.775 43.8782C29.2686 45.9371 29 48.3092 29 50.7733H39C39 48.9966 39.1976 47.4376 39.4855 46.2668C39.8137 44.9328 40.1236 44.6449 39.9336 44.8525L32.5575 38.1001ZM30 39.3133C30 42.0901 31.5117 44.5081 33.7331 45.7992L38.7581 37.1534C39.4898 37.5787 40 38.3836 40 39.3133H30ZM30 9.95556V39.3133H40V9.95556H30ZM25.9778 14.9556H35V4.95556H25.9778V14.9556ZM16 4.97778C16 10.4884 20.4672 14.9556 25.9778 14.9556V4.95556C25.9727 4.95556 25.973 4.95513 25.977 4.95593C25.9806 4.95668 25.9845 4.95789 25.988 4.95935C25.9942 4.96201 25.9951 4.96369 25.9935 4.96206C25.9919 4.96044 25.9935 4.96132 25.9962 4.96759C25.9977 4.97105 25.9989 4.97496 25.9996 4.9786C26.0004 4.98252 26 4.98281 26 4.97778H16ZM66.4835 15.3825C51.7284 25.3023 42 42.1283 42 61.2267H52C52 45.61 59.9426 31.8298 72.0628 23.6813L66.4835 15.3825ZM42 61.2267C42 91.7755 66.8692 116.502 97.5 116.502V106.502C72.35 106.502 52 86.2107 52 61.2267H42ZM97.5 116.502C128.131 116.502 153 91.7755 153 61.2267H143C143 86.2107 122.65 106.502 97.5 106.502V116.502ZM153 61.2267C153 42.5006 143.647 25.9581 129.373 15.97L123.64 24.1632C135.364 32.3673 143 45.9135 143 61.2267H153ZM122 27.8978C125.976 27.8978 129.4 25.5768 131.01 22.2382L122.003 17.8951C122.003 17.8933 122.003 17.8942 122.001 17.8965C121.999 17.8988 121.997 17.9004 121.996 17.9008C121.996 17.901 121.998 17.8997 122.002 17.8985C122.004 17.8979 122.006 17.8976 122.006 17.8975C122.007 17.8974 122.005 17.8978 122 17.8978V27.8978ZM74 27.8978H122V17.8978H74V27.8978ZM64.5475 21.1653C65.8995 25.0769 69.6139 27.8978 74 27.8978V17.8978C73.9946 17.8978 73.9928 17.8974 73.9939 17.8975C73.9948 17.8977 73.9966 17.8981 73.9988 17.8988C74.0032 17.9003 74.0045 17.9015 74.0031 17.9005C74.0013 17.8991 73.999 17.8969 73.9974 17.8948C73.9962 17.8932 73.9973 17.8942 73.9988 17.8985L64.5475 21.1653ZM11.7901 114.96C34.2365 106.353 57.4625 114.666 93.925 131.298L98.075 122.2C62.3766 105.916 35.1888 95.278 8.20989 105.623L11.7901 114.96ZM15 129.876V110.291H5V129.876H15ZM13.5 124.422C11.8658 124.422 10.2688 124.636 8.72929 125.04L11.2707 134.712C11.9979 134.521 12.741 134.422 13.5 134.422V124.422ZM37 154.809C37 146.854 34.6575 139.45 30.6224 133.913C26.5904 128.38 20.598 124.422 13.5 124.422V134.422C16.6192 134.422 19.8768 136.147 22.5406 139.803C25.2011 143.453 27 148.743 27 154.809H37ZM13.5 185.196C20.598 185.196 26.5904 181.237 30.6224 175.705C34.6575 170.167 37 162.763 37 154.809H27C27 160.875 25.2011 166.164 22.5406 169.815C19.8768 173.471 16.6192 175.196 13.5 175.196V185.196ZM8.72935 184.578C10.2688 184.982 11.8657 185.196 13.5 185.196V175.196C12.7411 175.196 11.9979 175.097 11.2706 174.906L8.72935 184.578ZM15 196.071V179.742H5V196.071H15ZM35.934 206.091C26.4715 207.537 21.441 204.393 18.6576 201.414C17.1666 199.818 16.1896 198.117 15.588 196.804C15.2902 196.155 15.0939 195.621 14.9782 195.273C14.9206 195.1 14.8837 194.976 14.8647 194.909C14.8552 194.876 14.8503 194.857 14.8495 194.854C14.8491 194.853 14.8498 194.855 14.8515 194.862C14.8523 194.865 14.8534 194.87 14.8547 194.875C14.8554 194.878 14.8561 194.881 14.8569 194.884C14.8573 194.885 14.8579 194.888 14.8581 194.889C14.8588 194.892 14.8594 194.894 10 196.071C5.14056 197.249 5.14126 197.252 5.14198 197.255C5.14224 197.256 5.14299 197.259 5.14352 197.261C5.14458 197.265 5.14572 197.27 5.14693 197.275C5.14936 197.285 5.1521 197.296 5.15516 197.308C5.16128 197.332 5.16866 197.361 5.17737 197.394C5.19479 197.46 5.21755 197.544 5.24608 197.645C5.30311 197.845 5.3835 198.112 5.49094 198.434C5.70536 199.078 6.03037 199.952 6.49714 200.97C7.4246 202.994 8.94976 205.671 11.351 208.241C16.3521 213.593 24.6664 217.929 37.4453 215.976L35.934 206.091ZM96 224C98.0196 219.426 98.0188 219.426 98.0178 219.425C98.0173 219.425 98.0162 219.425 98.0152 219.424C98.0132 219.423 98.0106 219.422 98.0074 219.421C98.0011 219.418 97.9926 219.414 97.9818 219.409C97.9603 219.4 97.9298 219.387 97.8907 219.37C97.8124 219.335 97.6993 219.286 97.5529 219.223C97.2603 219.098 96.8346 218.916 96.2886 218.689C95.1968 218.233 93.6223 217.591 91.667 216.834C87.7612 215.32 82.3123 213.336 76.1412 211.458C64.0527 207.779 48.2683 204.205 35.934 206.091L37.4453 215.976C47.3524 214.461 61.2232 217.371 73.2295 221.025C79.1058 222.813 84.3142 224.709 88.0539 226.158C89.9213 226.882 91.4166 227.492 92.4389 227.918C92.95 228.131 93.3424 228.298 93.6036 228.411C93.7342 228.467 93.8319 228.509 93.8953 228.537C93.927 228.551 93.95 228.561 93.9643 228.567C93.9714 228.57 93.9763 228.572 93.979 228.573C93.9804 228.574 93.9812 228.574 93.9814 228.574C93.9815 228.574 93.9813 228.574 93.9813 228.574C93.981 228.574 93.9804 228.574 96 224ZM91 126.749V224H101V126.749H91ZM13.5 178.227C19.2045 178.227 23.9461 175.062 27.0786 170.788C30.2134 166.511 32 160.846 32 154.809H22C22 158.944 20.7645 162.487 19.0133 164.876C17.2597 167.269 15.2514 168.227 13.5 168.227V178.227ZM-5 154.809C-5 160.846 -3.2134 166.511 -0.0786322 170.788C3.05388 175.062 7.79551 178.227 13.5 178.227V168.227C11.7487 168.227 9.74027 167.269 7.98675 164.876C6.23547 162.487 5 158.944 5 154.809H-5ZM13.5 131.391C7.79551 131.391 3.05388 134.556 -0.0786314 138.83C-3.2134 143.106 -5 148.772 -5 154.809H5C5 150.674 6.23547 147.131 7.98675 144.741C9.74027 142.349 11.7486 141.391 13.5 141.391V131.391ZM32 154.809C32 148.772 30.2134 143.106 27.0786 138.83C23.9461 134.556 19.2045 131.391 13.5 131.391V141.391C15.2514 141.391 17.2597 142.349 19.0133 144.741C20.7645 147.131 22 150.674 22 154.809H32ZM187.808 105.63C161.093 95.2657 134.176 105.931 98.9048 122.209L103.095 131.289C139.146 114.651 162.056 106.365 184.192 114.953L187.808 105.63ZM191 129.876V110.291H181V129.876H191ZM182.234 134.422C183.116 134.422 183.976 134.529 184.814 134.733L187.186 125.019C185.585 124.628 183.928 124.422 182.234 124.422V134.422ZM167.329 154.809C167.329 142.349 175.067 134.422 182.234 134.422V124.422C167.415 124.422 157.329 139.228 157.329 154.809H167.329ZM182.234 175.196C175.067 175.196 167.329 167.269 167.329 154.809H157.329C157.329 170.39 167.415 185.196 182.234 185.196V175.196ZM184.814 174.885C183.976 175.089 183.116 175.196 182.234 175.196V185.196C183.928 185.196 185.585 184.99 187.186 184.599L184.814 174.885ZM191 196.071V179.742H181V196.071H191ZM158.856 215.974C171.531 217.935 179.778 213.579 184.727 208.22C187.102 205.648 188.609 202.971 189.524 200.95C189.985 199.933 190.306 199.06 190.517 198.418C190.623 198.096 190.703 197.83 190.759 197.63C190.787 197.53 190.809 197.446 190.826 197.38C190.835 197.347 190.842 197.318 190.848 197.294C190.851 197.282 190.854 197.271 190.856 197.262C190.858 197.257 190.859 197.252 190.86 197.248C190.86 197.246 190.861 197.243 190.861 197.242C190.862 197.239 190.863 197.236 186 196.071C181.137 194.907 181.138 194.904 181.139 194.902C181.139 194.901 181.14 194.898 181.14 194.897C181.141 194.894 181.141 194.891 181.142 194.888C181.143 194.883 181.144 194.879 181.145 194.875C181.147 194.869 181.147 194.866 181.147 194.868C181.146 194.871 181.141 194.89 181.132 194.924C181.113 194.991 181.076 195.116 181.019 195.29C180.904 195.639 180.71 196.174 180.415 196.824C179.819 198.14 178.853 199.841 177.381 201.435C174.636 204.407 169.693 207.532 160.385 206.092L158.856 215.974ZM101 224C103.039 228.565 103.039 228.565 103.038 228.566C103.039 228.566 103.038 228.566 103.038 228.566C103.039 228.566 103.039 228.565 103.041 228.565C103.043 228.563 103.048 228.561 103.055 228.558C103.069 228.552 103.092 228.542 103.123 228.528C103.186 228.501 103.282 228.458 103.411 228.402C103.669 228.29 104.057 228.123 104.561 227.91C105.571 227.484 107.048 226.874 108.893 226.151C112.588 224.702 117.733 222.808 123.538 221.02C135.405 217.366 149.093 214.464 158.856 215.974L160.385 206.092C148.166 204.202 132.543 207.784 120.595 211.463C114.493 213.342 109.105 215.327 105.243 216.841C103.31 217.599 101.753 218.241 100.673 218.697C100.133 218.925 99.7121 219.106 99.4226 219.232C99.2778 219.295 99.1659 219.344 99.0884 219.378C99.0496 219.395 99.0195 219.409 98.9981 219.418C98.9874 219.423 98.9789 219.427 98.9727 219.429C98.9696 219.431 98.967 219.432 98.965 219.433C98.964 219.433 98.9629 219.434 98.9624 219.434C98.9614 219.434 98.9606 219.435 101 224ZM96 126.749V224H106V126.749H96ZM182.5 168.227C180.749 168.227 178.74 167.269 176.987 164.876C175.235 162.487 174 158.944 174 154.809H164C164 160.846 165.787 166.511 168.921 170.788C172.054 175.062 176.796 178.227 182.5 178.227V168.227ZM191 154.809C191 158.944 189.765 162.487 188.013 164.876C186.26 167.269 184.251 168.227 182.5 168.227V178.227C188.204 178.227 192.946 175.062 196.079 170.788C199.213 166.511 201 160.846 201 154.809H191ZM182.5 141.391C184.251 141.391 186.26 142.349 188.013 144.741C189.765 147.131 191 150.674 191 154.809H201C201 148.772 199.213 143.106 196.079 138.83C192.946 134.556 188.204 131.391 182.5 131.391V141.391ZM174 154.809C174 150.674 175.235 147.131 176.987 144.741C178.74 142.349 180.749 141.391 182.5 141.391V131.391C176.796 131.391 172.054 134.556 168.921 138.83C165.787 143.106 164 148.772 164 154.809H174Z" fill="black" mask="url(#path-1-inside-1)"/>
</svg>
