<svg width="204" height="232" viewBox="0 0 204 232" fill="none" xmlns="http://www.w3.org/2000/svg">
<g filter="url(#filter0_d)">
<mask id="path-1-inside-1" fill="white">
<path fill-rule="evenodd" clip-rule="evenodd" d="M13 123.584C13 112.538 21.9543 103.584 33 103.584H60V214.969H13V123.584ZM30 131.681H42V143.723H30V131.681ZM42 166.802H30V178.844H42V166.802Z"/>
</mask>
<path fill-rule="evenodd" clip-rule="evenodd" d="M13 123.584C13 112.538 21.9543 103.584 33 103.584H60V214.969H13V123.584ZM30 131.681H42V143.723H30V131.681ZM42 166.802H30V178.844H42V166.802Z" fill="black"/>
<path d="M60 103.584H65V98.5842H60V103.584ZM60 214.969V219.969H65V214.969H60ZM13 214.969H8V219.969H13V214.969ZM42 131.681H47V126.681H42V131.681ZM30 131.681V126.681H25V131.681H30ZM42 143.723V148.723H47V143.723H42ZM30 143.723H25V148.723H30V143.723ZM30 166.802V161.802H25V166.802H30ZM42 166.802H47V161.802H42V166.802ZM30 178.844H25V183.844H30V178.844ZM42 178.844V183.844H47V178.844H42ZM33 98.5842C19.1929 98.5842 8 109.777 8 123.584H18C18 115.3 24.7157 108.584 33 108.584V98.5842ZM60 98.5842H33V108.584H60V98.5842ZM65 214.969V103.584H55V214.969H65ZM13 219.969H60V209.969H13V219.969ZM8 123.584V214.969H18V123.584H8ZM42 126.681H30V136.681H42V126.681ZM47 143.723V131.681H37V143.723H47ZM30 148.723H42V138.723H30V148.723ZM25 131.681V143.723H35V131.681H25ZM30 171.802H42V161.802H30V171.802ZM35 178.844V166.802H25V178.844H35ZM42 173.844H30V183.844H42V173.844ZM37 166.802V178.844H47V166.802H37Z" fill="black" mask="url(#path-1-inside-1)"/>
<mask id="path-3-inside-2" fill="white">
<path fill-rule="evenodd" clip-rule="evenodd" d="M170 78.4976H145V214.969H190V98.4976C190 87.4519 181.046 78.4976 170 78.4976ZM161 103.584H174V116.629H161V103.584ZM174 167.806H161V180.851H174V167.806ZM161 135.695H174V148.74H161V135.695Z"/>
</mask>
<path fill-rule="evenodd" clip-rule="evenodd" d="M170 78.4976H145V214.969H190V98.4976C190 87.4519 181.046 78.4976 170 78.4976ZM161 103.584H174V116.629H161V103.584ZM174 167.806H161V180.851H174V167.806ZM161 135.695H174V148.74H161V135.695Z" fill="black"/>
<path d="M145 78.4976V73.4976H140V78.4976H145ZM145 214.969H140V219.969H145V214.969ZM190 214.969V219.969H195V214.969H190ZM174 103.584H179V98.5842H174V103.584ZM161 103.584V98.5842H156V103.584H161ZM174 116.629V121.629H179V116.629H174ZM161 116.629H156V121.629H161V116.629ZM161 167.806V162.806H156V167.806H161ZM174 167.806H179V162.806H174V167.806ZM161 180.851H156V185.851H161V180.851ZM174 180.851V185.851H179V180.851H174ZM174 135.695H179V130.695H174V135.695ZM161 135.695V130.695H156V135.695H161ZM174 148.74V153.74H179V148.74H174ZM161 148.74H156V153.74H161V148.74ZM145 83.4976H170V73.4976H145V83.4976ZM150 214.969V78.4976H140V214.969H150ZM190 209.969H145V219.969H190V209.969ZM185 98.4976V214.969H195V98.4976H185ZM170 83.4976C178.284 83.4976 185 90.2133 185 98.4976H195C195 84.6904 183.807 73.4976 170 73.4976V83.4976ZM174 98.5842H161V108.584H174V98.5842ZM179 116.629V103.584H169V116.629H179ZM161 121.629H174V111.629H161V121.629ZM156 103.584V116.629H166V103.584H156ZM161 172.806H174V162.806H161V172.806ZM166 180.851V167.806H156V180.851H166ZM174 175.851H161V185.851H174V175.851ZM169 167.806V180.851H179V167.806H169ZM174 130.695H161V140.695H174V130.695ZM179 148.74V135.695H169V148.74H179ZM161 153.74H174V143.74H161V153.74ZM156 135.695V148.74H166V135.695H156Z" fill="black" mask="url(#path-3-inside-2)"/>
<path fill-rule="evenodd" clip-rule="evenodd" d="M99.9935 0.675946C101.544 -0.222222 103.456 -0.222223 105.006 0.675945L163.045 34.3008C167.468 36.8632 165.65 43.6271 160.539 43.6271H150V209.951H192.976C196.855 209.951 200 213.096 200 216.976C200 220.855 196.855 224 192.976 224H11.0243C7.14487 224 4 220.855 4 216.976C4 213.096 7.14487 209.951 11.0243 209.951H55V43.6271H44.4612C39.3496 43.6271 37.5318 36.8632 41.9547 34.3008L99.9935 0.675946ZM85 209.951H120V175.799C120 170.276 115.523 165.799 110 165.799H95C89.4772 165.799 85 170.276 85 175.799V209.951ZM122 76.1501C122 87.432 113.046 96.5778 102 96.5778C90.9543 96.5778 82 87.432 82 76.1501C82 64.8682 90.9543 55.7224 102 55.7224C113.046 55.7224 122 64.8682 122 76.1501Z" fill="black"/>
</g>
<defs>
<filter id="filter0_d" x="0" y="0.00231934" width="204" height="231.998" filterUnits="userSpaceOnUse" color-interpolation-filters="sRGB">
<feFlood flood-opacity="0" result="BackgroundImageFix"/>
<feColorMatrix in="SourceAlpha" type="matrix" values="0 0 0 0 0 0 0 0 0 0 0 0 0 0 0 0 0 0 127 0"/>
<feOffset dy="4"/>
<feGaussianBlur stdDeviation="2"/>
<feColorMatrix type="matrix" values="0 0 0 0 0 0 0 0 0 0 0 0 0 0 0 0 0 0 0.25 0"/>
<feBlend mode="normal" in2="BackgroundImageFix" result="effect1_dropShadow"/>
<feBlend mode="normal" in="SourceGraphic" in2="effect1_dropShadow" result="shape"/>
</filter>
</defs>
</svg>
