<svg width="204" height="232" viewBox="0 0 204 232" fill="none" xmlns="http://www.w3.org/2000/svg">
<g filter="url(#filter0_d)">
<path fill-rule="evenodd" clip-rule="evenodd" d="M20 18.9128V13.9128H15H13.4564C10.9952 13.9128 9 11.9176 9 9.45642C9 6.99521 10.9952 5 13.4564 5H190.544C193.005 5 195 6.99521 195 9.45642C195 11.9176 193.005 13.9128 190.544 13.9128H188H183V18.9128V195.147C181.827 194.47 180.466 194.083 179.014 194.083H142.986C141.1 194.083 139.366 194.737 138 195.83V166.257C138 160.734 133.523 156.257 128 156.257H103H98H73C67.4771 156.257 63 160.734 63 166.257V194.66C62.0775 194.287 61.0696 194.083 60.0138 194.083H23.9862C22.5344 194.083 21.1731 194.47 20 195.147V18.9128ZM179.014 210.055C180.466 210.055 181.827 209.668 183 208.991V212H138V208.308C139.366 209.401 141.1 210.055 142.986 210.055H179.014ZM133 212V166.257C133 163.495 130.761 161.257 128 161.257H108H103V166.257V172.197C103 173.302 102.105 174.197 101 174.197H100C98.8954 174.197 98 173.302 98 172.197V166.257V161.257H93H73C70.2386 161.257 68 163.495 68 166.257V202.069V212H98V211.005V186.151C98 185.047 98.8954 184.151 100 184.151H101C102.105 184.151 103 185.047 103 186.151V211.005V212H133ZM68 217H63H20H15H10C9.44772 217 9 217.448 9 218C9 218.552 9.44772 219 10 219H194C194.552 219 195 218.552 195 218C195 217.448 194.552 217 194 217H188H183H138H133H68ZM188 212V23.9128V18.9128H190.544C195.766 18.9128 200 14.6791 200 9.45642C200 4.23378 195.766 0 190.544 0H13.4564C8.23378 0 4 4.23378 4 9.45642C4 14.6791 8.23378 18.9128 13.4564 18.9128H15V23.9128V212H10C6.68629 212 4 214.686 4 218C4 221.314 6.68629 224 10 224H194C197.314 224 200 221.314 200 218C200 214.686 197.314 212 194 212H188ZM20 212H63V209.478C62.0775 209.85 61.0696 210.055 60.0138 210.055H23.9862C22.5344 210.055 21.1731 209.668 20 208.991V212ZM71 52.7569V47.7569H66H41H36V52.7569V77.6422V82.6422H41H66H71V77.6422V52.7569ZM41 93.5459H36V98.5459V123.431V128.431H41H66H71V123.431V98.5459V93.5459H66H41ZM118 98.5459V93.5459H113H88H83V98.5459V123.431V128.431H88H113H118V123.431V98.5459ZM134 93.5459H129V98.5459V123.431V128.431H134H159H164V123.431V98.5459V93.5459H159H134ZM118 52.7569V47.7569H113H88H83V52.7569V77.6422V82.6422H88H113H118V77.6422V52.7569ZM134 47.7569H129V52.7569V77.6422V82.6422H134H159H164V77.6422V52.7569V47.7569H159H134ZM29.9908 21.8991H32.2474H171.753H174.009C175.109 21.8991 176 22.7904 176 23.8899C176 24.9894 175.109 25.8807 174.009 25.8807H171.753H32.2474H29.9908C28.8913 25.8807 28 24.9894 28 23.8899C28 22.7904 28.8913 21.8991 29.9908 21.8991ZM29.9908 16.8991C26.1299 16.8991 23 20.029 23 23.8899C23 27.7509 26.1299 30.8807 29.9908 30.8807H174.009C177.87 30.8807 181 27.7508 181 23.8899C181 20.029 177.87 16.8991 174.009 16.8991H29.9908ZM41 52.7569V57.7569V72.6422V77.6422H46H61H66V72.6422V57.7569V52.7569H61H46H41ZM88 98.5459V103.546V118.431V123.431H93H108H113V118.431V103.546V98.5459H108H93H88ZM88 52.7569V57.7569V72.6422V77.6422H93H108H113V72.6422V57.7569V52.7569H108H93H88ZM140 202.069C140 200.42 141.337 199.083 142.986 199.083H179.014C180.663 199.083 182 200.42 182 202.069C182 203.718 180.663 205.055 179.014 205.055H142.986C141.337 205.055 140 203.718 140 202.069ZM23.9862 199.083C22.337 199.083 21 200.42 21 202.069C21 203.718 22.337 205.055 23.9862 205.055H60.0138C61.663 205.055 63 203.718 63 202.069C63 200.42 61.663 199.083 60.0138 199.083H23.9862ZM66 98.5459H61H46H41V103.546V118.431V123.431H46H61H66V118.431V103.546V98.5459ZM159 98.5459H154H139H134V103.546V118.431V123.431H139H154H159V118.431V103.546V98.5459ZM159 52.7569H154H139H134V57.7569V72.6422V77.6422H139H154H159V72.6422V57.7569V52.7569Z" fill="black"/>
</g>
<defs>
<filter id="filter0_d" x="0" y="0" width="204" height="232" filterUnits="userSpaceOnUse" color-interpolation-filters="sRGB">
<feFlood flood-opacity="0" result="BackgroundImageFix"/>
<feColorMatrix in="SourceAlpha" type="matrix" values="0 0 0 0 0 0 0 0 0 0 0 0 0 0 0 0 0 0 127 0"/>
<feOffset dy="4"/>
<feGaussianBlur stdDeviation="2"/>
<feColorMatrix type="matrix" values="0 0 0 0 0 0 0 0 0 0 0 0 0 0 0 0 0 0 0.25 0"/>
<feBlend mode="normal" in2="BackgroundImageFix" result="effect1_dropShadow"/>
<feBlend mode="normal" in="SourceGraphic" in2="effect1_dropShadow" result="shape"/>
</filter>
</defs>
</svg>
