<svg width="205" height="233" viewBox="0 0 205 233" fill="none" xmlns="http://www.w3.org/2000/svg">
<g filter="url(#filter0_d)">
<path fill-rule="evenodd" clip-rule="evenodd" d="M104.657 0.314673C103.549 -0.0898353 102.334 -0.0898358 101.226 0.314673L8.23231 34.2752C4.04794 35.8033 4.07101 41.0521 7.08119 43.1224V53.0272C7.08119 58.55 11.5583 63.0272 17.0812 63.0272H188.802C194.325 63.0272 198.802 58.55 198.802 53.0272V43.1225C201.812 41.0521 201.835 35.8033 197.651 34.2752L104.657 0.314673Z" fill="black"/>
<path fill-rule="evenodd" clip-rule="evenodd" d="M20.3928 77.2786C20.3928 72.7211 24.0874 69.0266 28.6448 69.0266H53.6211C58.1785 69.0266 61.8731 72.7211 61.8731 77.2786C61.8731 81.7856 58.2598 85.4487 53.772 85.5292V169.32H55.5254C59.0311 169.32 61.8731 172.162 61.8731 175.668C61.8731 179.174 59.0311 182.015 55.5254 182.015H26.7405C23.2348 182.015 20.3928 179.174 20.3928 175.668C20.3928 172.162 23.2348 169.32 26.7405 169.32H29.2285V85.5306H28.6448C24.0874 85.5306 20.3928 81.836 20.3928 77.2786Z" fill="black"/>
<path fill-rule="evenodd" clip-rule="evenodd" d="M81.2609 77.2786C81.2609 72.7211 84.9554 69.0266 89.5129 69.0266H114.489C119.047 69.0266 122.741 72.7211 122.741 77.2786C122.741 81.7856 119.128 85.4487 114.64 85.5292V169.32H116.761C120.267 169.32 123.109 172.162 123.109 175.668C123.109 179.174 120.267 182.015 116.761 182.015H87.9762C84.4704 182.015 81.6285 179.174 81.6285 175.668C81.6285 172.162 84.4704 169.32 87.9762 169.32H90.0966V85.5306H89.5129C84.9554 85.5306 81.2609 81.836 81.2609 77.2786Z" fill="black"/>
<path fill-rule="evenodd" clip-rule="evenodd" d="M143.111 77.2786C143.111 72.7211 146.805 69.0266 151.363 69.0266H176.339C180.896 69.0266 184.591 72.7211 184.591 77.2786C184.591 81.836 180.896 85.5306 176.339 85.5306H175.508V169.32H178.243C181.749 169.32 184.591 172.162 184.591 175.668C184.591 179.174 181.749 182.015 178.243 182.015H149.458C145.953 182.015 143.111 179.174 143.111 175.668C143.111 172.162 145.953 169.32 149.458 169.32H150.965V85.5211C146.592 85.3135 143.111 81.7026 143.111 77.2786Z" fill="black"/>
<rect x="15.4841" y="185.015" width="175.732" height="19.998" rx="9.99902" fill="black"/>
<rect x="6.64844" y="211.013" width="192.422" height="12.9987" rx="6.49936" fill="black"/>
</g>
<defs>
<filter id="filter0_d" x="0.942139" y="0.0112915" width="203.999" height="232" filterUnits="userSpaceOnUse" color-interpolation-filters="sRGB">
<feFlood flood-opacity="0" result="BackgroundImageFix"/>
<feColorMatrix in="SourceAlpha" type="matrix" values="0 0 0 0 0 0 0 0 0 0 0 0 0 0 0 0 0 0 127 0"/>
<feOffset dy="4"/>
<feGaussianBlur stdDeviation="2"/>
<feColorMatrix type="matrix" values="0 0 0 0 0 0 0 0 0 0 0 0 0 0 0 0 0 0 0.25 0"/>
<feBlend mode="normal" in2="BackgroundImageFix" result="effect1_dropShadow"/>
<feBlend mode="normal" in="SourceGraphic" in2="effect1_dropShadow" result="shape"/>
</filter>
</defs>
</svg>
