<svg width="204" height="232" viewBox="0 0 204 232" fill="none" xmlns="http://www.w3.org/2000/svg">
<g filter="url(#filter0_d)">
<mask id="path-1-inside-1" fill="white">
<path fill-rule="evenodd" clip-rule="evenodd" d="M4 9.45642C4 4.23378 8.23378 0 13.4564 0H190.544C195.766 0 200 4.23378 200 9.45642C200 14.6791 195.766 18.9128 190.544 18.9128H188V212H194C197.314 212 200 214.686 200 218C200 221.314 197.314 224 194 224H10C6.68629 224 4 221.314 4 218C4 214.686 6.68629 212 10 212H15V18.9128H13.4564C8.23378 18.9128 4 14.6791 4 9.45642ZM68 212H98V186.151C98 185.047 98.8954 184.151 100 184.151H101C102.105 184.151 103 185.047 103 186.151V212H133V166.257C133 163.495 130.761 161.257 128 161.257H103V172.197C103 173.302 102.105 174.197 101 174.197H100C98.8954 174.197 98 173.302 98 172.197V161.257H73C70.2386 161.257 68 163.495 68 166.257V212ZM28 23.8899C28 22.7904 28.8913 21.8991 29.9908 21.8991H174.009C175.109 21.8991 176 22.7904 176 23.8899C176 24.9894 175.109 25.8807 174.009 25.8807H29.9908C28.8913 25.8807 28 24.9894 28 23.8899ZM142.986 199.083C141.337 199.083 140 200.42 140 202.069C140 203.718 141.337 205.055 142.986 205.055H179.014C180.663 205.055 182 203.718 182 202.069C182 200.42 180.663 199.083 179.014 199.083H142.986ZM21 202.069C21 200.42 22.337 199.083 23.9862 199.083H60.0138C61.663 199.083 63 200.42 63 202.069C63 203.718 61.663 205.055 60.0138 205.055H23.9862C22.337 205.055 21 203.718 21 202.069ZM66 52.7569H41V77.6422H66V52.7569ZM41 98.5459H66V123.431H41V98.5459ZM113 98.5459H88V123.431H113V98.5459ZM134 98.5459H159V123.431H134V98.5459ZM113 52.7569H88V77.6422H113V52.7569ZM134 52.7569H159V77.6422H134V52.7569Z"/>
</mask>
<path fill-rule="evenodd" clip-rule="evenodd" d="M4 9.45642C4 4.23378 8.23378 0 13.4564 0H190.544C195.766 0 200 4.23378 200 9.45642C200 14.6791 195.766 18.9128 190.544 18.9128H188V212H194C197.314 212 200 214.686 200 218C200 221.314 197.314 224 194 224H10C6.68629 224 4 221.314 4 218C4 214.686 6.68629 212 10 212H15V18.9128H13.4564C8.23378 18.9128 4 14.6791 4 9.45642ZM68 212H98V186.151C98 185.047 98.8954 184.151 100 184.151H101C102.105 184.151 103 185.047 103 186.151V212H133V166.257C133 163.495 130.761 161.257 128 161.257H103V172.197C103 173.302 102.105 174.197 101 174.197H100C98.8954 174.197 98 173.302 98 172.197V161.257H73C70.2386 161.257 68 163.495 68 166.257V212ZM28 23.8899C28 22.7904 28.8913 21.8991 29.9908 21.8991H174.009C175.109 21.8991 176 22.7904 176 23.8899C176 24.9894 175.109 25.8807 174.009 25.8807H29.9908C28.8913 25.8807 28 24.9894 28 23.8899ZM142.986 199.083C141.337 199.083 140 200.42 140 202.069C140 203.718 141.337 205.055 142.986 205.055H179.014C180.663 205.055 182 203.718 182 202.069C182 200.42 180.663 199.083 179.014 199.083H142.986ZM21 202.069C21 200.42 22.337 199.083 23.9862 199.083H60.0138C61.663 199.083 63 200.42 63 202.069C63 203.718 61.663 205.055 60.0138 205.055H23.9862C22.337 205.055 21 203.718 21 202.069ZM66 52.7569H41V77.6422H66V52.7569ZM41 98.5459H66V123.431H41V98.5459ZM113 98.5459H88V123.431H113V98.5459ZM134 98.5459H159V123.431H134V98.5459ZM113 52.7569H88V77.6422H113V52.7569ZM134 52.7569H159V77.6422H134V52.7569Z" fill="black"/>
<path d="M188 18.9128V13.9128H183V18.9128H188ZM188 212H183V217H188V212ZM15 212V217H20V212H15ZM15 18.9128H20V13.9128H15V18.9128ZM68 212H63V217H68V212ZM98 212V217H103V212H98ZM103 212H98V217H103V212ZM133 212V217H138V212H133ZM103 161.257V156.257H98V161.257H103ZM98 161.257H103V156.257H98V161.257ZM41 52.7569V47.7569H36V52.7569H41ZM66 52.7569H71V47.7569H66V52.7569ZM41 77.6422H36V82.6422H41V77.6422ZM66 77.6422V82.6422H71V77.6422H66ZM66 98.5459H71V93.5459H66V98.5459ZM41 98.5459V93.5459H36V98.5459H41ZM66 123.431V128.431H71V123.431H66ZM41 123.431H36V128.431H41V123.431ZM88 98.5459V93.5459H83V98.5459H88ZM113 98.5459H118V93.5459H113V98.5459ZM88 123.431H83V128.431H88V123.431ZM113 123.431V128.431H118V123.431H113ZM159 98.5459H164V93.5459H159V98.5459ZM134 98.5459V93.5459H129V98.5459H134ZM159 123.431V128.431H164V123.431H159ZM134 123.431H129V128.431H134V123.431ZM88 52.7569V47.7569H83V52.7569H88ZM113 52.7569H118V47.7569H113V52.7569ZM88 77.6422H83V82.6422H88V77.6422ZM113 77.6422V82.6422H118V77.6422H113ZM159 52.7569H164V47.7569H159V52.7569ZM134 52.7569V47.7569H129V52.7569H134ZM159 77.6422V82.6422H164V77.6422H159ZM134 77.6422H129V82.6422H134V77.6422ZM13.4564 -5C5.47236 -5 -1 1.47236 -1 9.45642H9C9 6.99521 10.9952 5 13.4564 5V-5ZM190.544 -5H13.4564V5H190.544V-5ZM205 9.45642C205 1.47236 198.528 -5 190.544 -5V5C193.005 5 195 6.99521 195 9.45642H205ZM190.544 23.9128C198.528 23.9128 205 17.4405 205 9.45642H195C195 11.9176 193.005 13.9128 190.544 13.9128V23.9128ZM188 23.9128H190.544V13.9128H188V23.9128ZM193 212V18.9128H183V212H193ZM188 217H194V207H188V217ZM194 217C194.552 217 195 217.448 195 218H205C205 211.925 200.075 207 194 207V217ZM195 218C195 218.552 194.552 219 194 219V229C200.075 229 205 224.075 205 218H195ZM194 219H10V229H194V219ZM10 219C9.44772 219 9 218.552 9 218H-1C-1 224.075 3.92486 229 10 229V219ZM9 218C9 217.448 9.44772 217 10 217V207C3.92487 207 -1 211.925 -1 218H9ZM10 217H15V207H10V217ZM10 18.9128V212H20V18.9128H10ZM13.4564 23.9128H15V13.9128H13.4564V23.9128ZM-1 9.45642C-1 17.4405 5.47236 23.9128 13.4564 23.9128V13.9128C10.9952 13.9128 9 11.9176 9 9.45642H-1ZM68 217H98V207H68V217ZM93 186.151V212H103V186.151H93ZM100 179.151C96.134 179.151 93 182.285 93 186.151H103C103 187.808 101.657 189.151 100 189.151V179.151ZM101 179.151H100V189.151H101V179.151ZM108 186.151C108 182.285 104.866 179.151 101 179.151V189.151C99.3431 189.151 98 187.808 98 186.151H108ZM108 212V186.151H98V212H108ZM103 217H133V207H103V217ZM128 166.257V212H138V166.257H128ZM128 166.257H138C138 160.734 133.523 156.257 128 156.257V166.257ZM103 166.257H128V156.257H103V166.257ZM108 172.197V161.257H98V172.197H108ZM101 179.197C104.866 179.197 108 176.063 108 172.197H98C98 170.54 99.3431 169.197 101 169.197V179.197ZM100 179.197H101V169.197H100V179.197ZM93 172.197C93 176.063 96.134 179.197 100 179.197V169.197C101.657 169.197 103 170.54 103 172.197H93ZM93 161.257V172.197H103V161.257H93ZM73 166.257H98V156.257H73V166.257ZM73 166.257V156.257C67.4771 156.257 63 160.734 63 166.257H73ZM73 212V166.257H63V212H73ZM29.9908 16.8991C26.1299 16.8991 23 20.029 23 23.8899H33C33 25.5518 31.6527 26.8991 29.9908 26.8991V16.8991ZM174.009 16.8991H29.9908V26.8991H174.009V16.8991ZM181 23.8899C181 20.029 177.87 16.8991 174.009 16.8991V26.8991C172.347 26.8991 171 25.5518 171 23.8899H181ZM174.009 30.8807C177.87 30.8807 181 27.7508 181 23.8899H171C171 22.228 172.347 20.8807 174.009 20.8807V30.8807ZM29.9908 30.8807H174.009V20.8807H29.9908V30.8807ZM23 23.8899C23 27.7509 26.1299 30.8807 29.9908 30.8807V20.8807C31.6527 20.8807 33 22.228 33 23.8899H23ZM145 202.069C145 203.181 144.098 204.083 142.986 204.083V194.083C138.576 194.083 135 197.658 135 202.069H145ZM142.986 200.055C144.098 200.055 145 200.957 145 202.069H135C135 206.48 138.576 210.055 142.986 210.055V200.055ZM179.014 200.055H142.986V210.055H179.014V200.055ZM177 202.069C177 200.957 177.902 200.055 179.014 200.055V210.055C183.424 210.055 187 206.48 187 202.069H177ZM179.014 204.083C177.902 204.083 177 203.181 177 202.069H187C187 197.658 183.424 194.083 179.014 194.083V204.083ZM142.986 204.083H179.014V194.083H142.986V204.083ZM23.9862 194.083C19.5756 194.083 16 197.658 16 202.069H26C26 203.181 25.0984 204.083 23.9862 204.083V194.083ZM60.0138 194.083H23.9862V204.083H60.0138V194.083ZM68 202.069C68 197.658 64.4244 194.083 60.0138 194.083V204.083C58.9016 204.083 58 203.181 58 202.069H68ZM60.0138 210.055C64.4244 210.055 68 206.479 68 202.069H58C58 200.957 58.9016 200.055 60.0138 200.055V210.055ZM23.9862 210.055H60.0138V200.055H23.9862V210.055ZM16 202.069C16 206.479 19.5756 210.055 23.9862 210.055V200.055C25.0984 200.055 26 200.957 26 202.069H16ZM41 57.7569H66V47.7569H41V57.7569ZM46 77.6422V52.7569H36V77.6422H46ZM66 72.6422H41V82.6422H66V72.6422ZM61 52.7569V77.6422H71V52.7569H61ZM66 93.5459H41V103.546H66V93.5459ZM71 123.431V98.5459H61V123.431H71ZM41 128.431H66V118.431H41V128.431ZM36 98.5459V123.431H46V98.5459H36ZM88 103.546H113V93.5459H88V103.546ZM93 123.431V98.5459H83V123.431H93ZM113 118.431H88V128.431H113V118.431ZM108 98.5459V123.431H118V98.5459H108ZM159 93.5459H134V103.546H159V93.5459ZM164 123.431V98.5459H154V123.431H164ZM134 128.431H159V118.431H134V128.431ZM129 98.5459V123.431H139V98.5459H129ZM88 57.7569H113V47.7569H88V57.7569ZM93 77.6422V52.7569H83V77.6422H93ZM113 72.6422H88V82.6422H113V72.6422ZM108 52.7569V77.6422H118V52.7569H108ZM159 47.7569H134V57.7569H159V47.7569ZM164 77.6422V52.7569H154V77.6422H164ZM134 82.6422H159V72.6422H134V82.6422ZM129 52.7569V77.6422H139V52.7569H129Z" fill="black" mask="url(#path-1-inside-1)"/>
</g>
<defs>
<filter id="filter0_d" x="0" y="0" width="204" height="232" filterUnits="userSpaceOnUse" color-interpolation-filters="sRGB">
<feFlood flood-opacity="0" result="BackgroundImageFix"/>
<feColorMatrix in="SourceAlpha" type="matrix" values="0 0 0 0 0 0 0 0 0 0 0 0 0 0 0 0 0 0 127 0"/>
<feOffset dy="4"/>
<feGaussianBlur stdDeviation="2"/>
<feColorMatrix type="matrix" values="0 0 0 0 0 0 0 0 0 0 0 0 0 0 0 0 0 0 0.25 0"/>
<feBlend mode="normal" in2="BackgroundImageFix" result="effect1_dropShadow"/>
<feBlend mode="normal" in="SourceGraphic" in2="effect1_dropShadow" result="shape"/>
</filter>
</defs>
</svg>
