<svg width="204" height="233" viewBox="0 0 204 233" fill="none" xmlns="http://www.w3.org/2000/svg">
<g filter="url(#filter0_d)">
<mask id="path-1-inside-1" fill="white">
<path fill-rule="evenodd" clip-rule="evenodd" d="M107.056 1.45566C103.864 -0.485219 99.8563 -0.485218 96.6644 1.45566L41.5454 34.9721C32.9061 40.2254 36.6299 53.5164 46.741 53.5164H156.979C167.09 53.5164 170.814 40.2254 162.175 34.9721L107.056 1.45566ZM32 76.2964C32 65.2507 40.9543 56.2963 52 56.2963H151.1C162.146 56.2963 171.1 65.2507 171.1 76.2963V106.296H180C191.046 106.296 200 115.251 200 126.296V204.296C200 215.342 191.046 224.296 180 224.296H24C12.9543 224.296 4 215.342 4 204.296V126.296C4 115.251 12.9543 106.296 24 106.296H32V76.2964ZM63.3993 83.2963C60.4173 83.2963 58 85.7137 58 88.6956C58 91.6776 60.4174 94.0949 63.3993 94.0949H140.341C143.323 94.0949 145.74 91.6776 145.74 88.6956C145.74 85.7137 143.323 83.2963 140.341 83.2963H63.3993ZM32.8449 191.022C29.5947 191.022 26.9599 188.387 26.9599 185.137V135.061C26.9599 131.811 29.5947 129.176 32.8449 129.176C36.0951 129.176 38.7299 131.811 38.7299 135.061V185.137C38.7299 188.387 36.0951 191.022 32.8449 191.022ZM61.1999 184.602C61.1999 188.148 64.0742 191.022 67.6199 191.022C71.1655 191.022 74.0399 188.148 74.0399 184.602V135.596C74.0399 132.05 71.1655 129.176 67.6199 129.176C64.0742 129.176 61.1999 132.05 61.1999 135.596V184.602ZM103.465 191.022C100.215 191.022 97.5801 188.387 97.5801 185.137V135.061C97.5801 131.811 100.215 129.176 103.465 129.176C106.715 129.176 109.35 131.811 109.35 135.061V185.137C109.35 188.387 106.715 191.022 103.465 191.022ZM132.89 184.602C132.89 188.148 135.764 191.022 139.31 191.022C142.856 191.022 145.73 188.148 145.73 184.602V135.596C145.73 132.05 142.856 129.176 139.31 129.176C135.764 129.176 132.89 132.05 132.89 135.596V184.602ZM175.155 191.022C171.905 191.022 169.27 188.387 169.27 185.137V135.061C169.27 131.811 171.905 129.176 175.155 129.176C178.405 129.176 181.04 131.811 181.04 135.061V185.137C181.04 188.387 178.405 191.022 175.155 191.022Z"/>
</mask>
<path d="M96.6644 1.45566L94.0666 -2.81652V-2.81652L96.6644 1.45566ZM107.056 1.45566L109.653 -2.81652V-2.81652L107.056 1.45566ZM41.5454 34.9721L44.1432 39.2442L41.5454 34.9721ZM162.175 34.9721L164.772 30.6999V30.6999L162.175 34.9721ZM171.1 106.296H166.1V111.296H171.1V106.296ZM32 106.296V111.296H37V106.296H32ZM99.2622 5.72783C100.858 4.75739 102.862 4.75739 104.458 5.72783L109.653 -2.81652C104.866 -5.72783 98.8544 -5.72783 94.0666 -2.81652L99.2622 5.72783ZM44.1432 39.2442L99.2622 5.72783L94.0666 -2.81652L38.9476 30.6999L44.1432 39.2442ZM46.741 48.5164C41.6855 48.5164 39.8235 41.8709 44.1432 39.2442L38.9476 30.6999C25.9887 38.5799 31.5742 58.5164 46.741 58.5164V48.5164ZM156.979 48.5164H46.741V58.5164H156.979V48.5164ZM159.577 39.2442C163.896 41.8709 162.035 48.5164 156.979 48.5164V58.5164C172.146 58.5164 177.731 38.5799 164.772 30.6999L159.577 39.2442ZM104.458 5.72783L159.577 39.2442L164.772 30.6999L109.653 -2.81652L104.458 5.72783ZM52 51.2963C38.1929 51.2963 27 62.4893 27 76.2964H37C37 68.0121 43.7157 61.2963 52 61.2963V51.2963ZM151.1 51.2963H52V61.2963H151.1V51.2963ZM176.1 76.2963C176.1 62.4892 164.907 51.2963 151.1 51.2963V61.2963C159.384 61.2963 166.1 68.0121 166.1 76.2963H176.1ZM176.1 106.296V76.2963H166.1V106.296H176.1ZM180 101.296H171.1V111.296H180V101.296ZM205 126.296C205 112.489 193.807 101.296 180 101.296V111.296C188.284 111.296 195 118.012 195 126.296H205ZM205 204.296V126.296H195V204.296H205ZM180 229.296C193.807 229.296 205 218.103 205 204.296H195C195 212.581 188.284 219.296 180 219.296V229.296ZM24 229.296H180V219.296H24V229.296ZM-1 204.296C-1 218.103 10.1929 229.296 24 229.296V219.296C15.7157 219.296 9 212.581 9 204.296H-1ZM-1 126.296V204.296H9V126.296H-1ZM24 101.296C10.1929 101.296 -1 112.489 -1 126.296H9C9 118.012 15.7157 111.296 24 111.296V101.296ZM32 101.296H24V111.296H32V101.296ZM27 76.2964V106.296H37V76.2964H27ZM63 88.6956C63 88.4751 63.1788 88.2963 63.3993 88.2963V78.2963C57.6559 78.2963 53 82.9523 53 88.6956H63ZM63.3993 89.0949C63.1788 89.0949 63 88.9162 63 88.6956H53C53 94.439 57.6559 99.0949 63.3993 99.0949V89.0949ZM140.341 89.0949H63.3993V99.0949H140.341V89.0949ZM140.74 88.6956C140.74 88.9162 140.561 89.0949 140.341 89.0949V99.0949C146.084 99.0949 150.74 94.439 150.74 88.6956H140.74ZM140.341 88.2963C140.561 88.2963 140.74 88.4751 140.74 88.6956H150.74C150.74 82.9523 146.084 78.2963 140.341 78.2963V88.2963ZM63.3993 88.2963H140.341V78.2963H63.3993V88.2963ZM21.9599 185.137C21.9599 191.149 26.8333 196.022 32.8449 196.022V186.022C32.3561 186.022 31.9599 185.626 31.9599 185.137H21.9599ZM21.9599 135.061V185.137H31.9599V135.061H21.9599ZM32.8449 124.176C26.8333 124.176 21.9599 129.049 21.9599 135.061H31.9599C31.9599 134.572 32.3561 134.176 32.8449 134.176V124.176ZM43.7299 135.061C43.7299 129.049 38.8565 124.176 32.8449 124.176V134.176C33.3337 134.176 33.7299 134.572 33.7299 135.061H43.7299ZM43.7299 185.137V135.061H33.7299V185.137H43.7299ZM32.8449 196.022C38.8565 196.022 43.7299 191.149 43.7299 185.137H33.7299C33.7299 185.626 33.3337 186.022 32.8449 186.022V196.022ZM67.6199 186.022C66.8356 186.022 66.1999 185.386 66.1999 184.602H56.1999C56.1999 190.909 61.3128 196.022 67.6199 196.022V186.022ZM69.0399 184.602C69.0399 185.386 68.4041 186.022 67.6199 186.022V196.022C73.927 196.022 79.0399 190.909 79.0399 184.602H69.0399ZM69.0399 135.596V184.602H79.0399V135.596H69.0399ZM67.6199 134.176C68.4041 134.176 69.0399 134.812 69.0399 135.596H79.0399C79.0399 129.289 73.927 124.176 67.6199 124.176V134.176ZM66.1999 135.596C66.1999 134.812 66.8356 134.176 67.6199 134.176V124.176C61.3128 124.176 56.1999 129.289 56.1999 135.596H66.1999ZM66.1999 184.602V135.596H56.1999V184.602H66.1999ZM92.5801 185.137C92.5801 191.149 97.4535 196.022 103.465 196.022V186.022C102.976 186.022 102.58 185.626 102.58 185.137H92.5801ZM92.5801 135.061V185.137H102.58V135.061H92.5801ZM103.465 124.176C97.4535 124.176 92.5801 129.049 92.5801 135.061H102.58C102.58 134.572 102.976 134.176 103.465 134.176V124.176ZM114.35 135.061C114.35 129.049 109.477 124.176 103.465 124.176V134.176C103.954 134.176 104.35 134.572 104.35 135.061H114.35ZM114.35 185.137V135.061H104.35V185.137H114.35ZM103.465 196.022C109.477 196.022 114.35 191.149 114.35 185.137H104.35C104.35 185.626 103.954 186.022 103.465 186.022V196.022ZM139.31 186.022C138.526 186.022 137.89 185.386 137.89 184.602H127.89C127.89 190.909 133.003 196.022 139.31 196.022V186.022ZM140.73 184.602C140.73 185.386 140.094 186.022 139.31 186.022V196.022C145.617 196.022 150.73 190.909 150.73 184.602H140.73ZM140.73 135.596V184.602H150.73V135.596H140.73ZM139.31 134.176C140.094 134.176 140.73 134.812 140.73 135.596H150.73C150.73 129.289 145.617 124.176 139.31 124.176V134.176ZM137.89 135.596C137.89 134.812 138.526 134.176 139.31 134.176V124.176C133.003 124.176 127.89 129.289 127.89 135.596H137.89ZM137.89 184.602V135.596H127.89V184.602H137.89ZM164.27 185.137C164.27 191.149 169.143 196.022 175.155 196.022V186.022C174.666 186.022 174.27 185.626 174.27 185.137H164.27ZM164.27 135.061V185.137H174.27V135.061H164.27ZM175.155 124.176C169.143 124.176 164.27 129.049 164.27 135.061H174.27C174.27 134.572 174.666 134.176 175.155 134.176V124.176ZM186.04 135.061C186.04 129.049 181.167 124.176 175.155 124.176V134.176C175.644 134.176 176.04 134.572 176.04 135.061H186.04ZM186.04 185.137V135.061H176.04V185.137H186.04ZM175.155 196.022C181.167 196.022 186.04 191.149 186.04 185.137H176.04C176.04 185.626 175.644 186.022 175.155 186.022V196.022Z" fill="black" mask="url(#path-1-inside-1)"/>
</g>
<defs>
<filter id="filter0_d" x="0" y="0" width="204" height="232.296" filterUnits="userSpaceOnUse" color-interpolation-filters="sRGB">
<feFlood flood-opacity="0" result="BackgroundImageFix"/>
<feColorMatrix in="SourceAlpha" type="matrix" values="0 0 0 0 0 0 0 0 0 0 0 0 0 0 0 0 0 0 127 0"/>
<feOffset dy="4"/>
<feGaussianBlur stdDeviation="2"/>
<feColorMatrix type="matrix" values="0 0 0 0 0 0 0 0 0 0 0 0 0 0 0 0 0 0 0.25 0"/>
<feBlend mode="normal" in2="BackgroundImageFix" result="effect1_dropShadow"/>
<feBlend mode="normal" in="SourceGraphic" in2="effect1_dropShadow" result="shape"/>
</filter>
</defs>
</svg>
