<svg width="196" height="223" viewBox="0 0 196 223" fill="none" xmlns="http://www.w3.org/2000/svg">
<path fill-rule="evenodd" clip-rule="evenodd" d="M0 6C0 2.68629 2.68629 0 6 0H190C193.314 0 196 2.68629 196 6C196 9.31371 193.314 12 190 12H140.38C140.577 12.7799 140.681 13.5964 140.681 14.4373C140.681 19.93 136.228 24.3827 130.736 24.3827H130.58C121.857 17.2708 110.682 13 98.5001 13C86.318 13 75.1433 17.2708 66.4201 24.3827H66.1695C60.6768 24.3827 56.2241 19.93 56.2241 14.4373C56.2241 13.5964 56.3285 12.7799 56.5249 12H29.8878V39.7408C29.8878 40.8304 29.2481 41.7706 28.3239 42.2064C30.2695 43.4318 31.7041 47.6647 31.7041 52.6983C31.7041 58.6903 29.6711 63.5478 27.1633 63.5478C24.6554 63.5478 22.6224 58.6903 22.6224 52.6983C22.6224 47.6647 24.0571 43.4318 26.0026 42.2064C25.0784 41.7705 24.4388 40.8303 24.4388 39.7408V12H6C2.68629 12 0 9.31371 0 6ZM66.4201 24.3827H130.58C141.828 33.5531 149 47.4473 149 63C149 83.7958 136.177 101.626 117.933 109.164C113.503 110.504 109.449 111.597 106.17 112.427C103.669 112.804 101.108 113 98.5001 113C70.6097 113 48.0001 90.6142 48.0001 63C48.0001 47.4473 55.1721 33.5531 66.4201 24.3827ZM184.925 103.886C186.818 104.5 188 106.295 188 108.285V201.819C188 205.026 185.012 207.455 181.838 206.998C170.36 205.347 145.405 203.48 129.224 214.913C119.589 220.085 109.164 221.951 103.128 222.623C101.543 222.866 99.8124 223 98 223C96.4328 223 94.9268 222.9 93.5232 222.716C93.356 222.718 93.1865 222.71 93.0149 222.693C87.0016 222.094 76.4874 220.326 66.7755 215.113C50.5955 203.68 25.6403 205.547 14.1619 207.198C10.9881 207.655 8 205.226 8 202.019V108.485C8 106.495 9.18213 104.7 11.0751 104.086C17.9802 101.847 35.318 97.7704 50.7041 106.785C65.962 115.725 85.8814 121.525 94.1467 123.699C96.4013 124.293 98 126.318 98 128.649V128.62C98 126.302 99.5823 124.284 101.821 123.681C110.067 121.459 130.018 115.537 145.296 106.585C160.682 97.5703 178.02 101.647 184.925 103.886ZM98 138.862C96.4784 138.862 95.2449 140.096 95.2449 141.617V211.831C95.2449 213.353 96.4784 214.586 98 214.586C99.5216 214.586 100.755 213.353 100.755 211.831V141.617C100.755 140.096 99.5216 138.862 98 138.862ZM121.878 146.224H155.857V150.431H121.878V146.224ZM142.082 159.896H121.878V164.103H142.082V159.896ZM121.878 181.983H169.633V185.138H121.878V181.983ZM71.3673 144.121H65.8571V150.431H71.3673V144.121ZM54.8367 144.121H60.3469V150.431H54.8367V144.121ZM71.3673 170.414H34.6327V173.569H71.3673V170.414ZM71.3673 180.931V185.138H60.3469V180.931H71.3673Z" fill="black"/>
</svg>
