<svg width="265" height="232" viewBox="0 0 265 232" fill="none" xmlns="http://www.w3.org/2000/svg">
<g filter="url(#filter0_d)">
<path d="M127.763 2.05381C130.487 0.754718 133.651 0.754721 136.374 2.05381L224.254 43.9743C233.869 48.561 230.601 63 219.948 63H44.1896C33.5364 63 30.2689 48.561 39.8841 43.9743L127.763 2.05381Z" fill="black"/>
<path fill-rule="evenodd" clip-rule="evenodd" d="M47.5689 90C47.5689 78.9543 56.5232 70 67.5689 70H195.569C206.615 70 215.569 78.9543 215.569 90V209H222.069C226.211 209 229.569 212.358 229.569 216.5C229.569 220.642 226.211 224 222.069 224H41.0689C36.9267 224 33.5689 220.642 33.5689 216.5C33.5689 212.358 36.9267 209 41.0689 209H47.5689V90ZM130.569 163C119.523 163 110.569 171.954 110.569 183V208H152.569V183C152.569 171.954 143.615 163 132.569 163H130.569ZM67.5689 91H80.5689V104H67.5689V91ZM120.569 91H107.569V104H120.569V91ZM147.569 91H160.569V104H147.569V91ZM200.569 91H187.569V104H200.569V91ZM67.5689 127H80.5689V140H67.5689V127ZM120.569 127H107.569V140H120.569V127ZM147.569 127H160.569V140H147.569V127ZM200.569 127H187.569V140H200.569V127ZM67.5689 163H80.5689V176H67.5689V163ZM200.569 163H187.569V176H200.569V163Z" fill="black"/>
</g>
<defs>
<filter id="filter0_d" x="29.5689" y="1.0795" width="204.394" height="230.921" filterUnits="userSpaceOnUse" color-interpolation-filters="sRGB">
<feFlood flood-opacity="0" result="BackgroundImageFix"/>
<feColorMatrix in="SourceAlpha" type="matrix" values="0 0 0 0 0 0 0 0 0 0 0 0 0 0 0 0 0 0 127 0"/>
<feOffset dy="4"/>
<feGaussianBlur stdDeviation="2"/>
<feColorMatrix type="matrix" values="0 0 0 0 0 0 0 0 0 0 0 0 0 0 0 0 0 0 0.25 0"/>
<feBlend mode="normal" in2="BackgroundImageFix" result="effect1_dropShadow"/>
<feBlend mode="normal" in="SourceGraphic" in2="effect1_dropShadow" result="shape"/>
</filter>
</defs>
</svg>
