<svg width="204" height="233" viewBox="0 0 204 233" fill="none" xmlns="http://www.w3.org/2000/svg">
<g filter="url(#filter0_d)">
<mask id="path-1-inside-1" fill="white">
<path fill-rule="evenodd" clip-rule="evenodd" d="M78.5354 0.632141C80.151 0.0288232 81.8949 -0.146594 83.5978 0.122919L154.962 11.4174C165.094 13.0208 166.523 27.0201 156.925 30.648L97.2561 53.2028C95.7733 53.7632 94.1787 53.9633 92.6038 53.7866L13.9154 44.9546C3.45961 43.781 1.68335 29.331 11.5423 25.6494L78.5354 0.632141ZM21 200.29V51.7908L94.8039 57.1511C95.9964 57.2377 97.1948 57.1098 98.3421 56.7734L151.333 41.2348C152.405 43.6864 153 46.3944 153 49.2414V72.6546H114.009C102.963 72.6546 94.0088 81.6089 94.0088 92.6546V200.29H21ZM66.7184 75.3324H45.165V94.7229H66.7184V75.3324ZM45.165 149.016H66.7184V168.407H45.165V149.016ZM66.7184 112.174H45.165V131.565H66.7184V112.174ZM103 97.7692C103 86.7235 111.954 77.7692 123 77.7692H160C171.046 77.7692 180 86.7235 180 97.7692V206.218H191.107C196.019 206.218 200 210.199 200 215.111C200 220.022 196.019 224.003 191.107 224.003H12.8926C7.98136 224.003 4 220.022 4 215.111C4 210.199 7.98136 206.218 12.8926 206.218H103V97.7692ZM150 111.363H130V131.125H150V111.363ZM130 150.886H150V170.648H130V150.886Z"/>
</mask>
<path d="M83.5978 0.122919L82.8163 5.06145L83.5978 0.122919ZM78.5354 0.632141L80.2845 5.3162L80.2845 5.3162L78.5354 0.632141ZM154.962 11.4174L154.181 16.3559L154.962 11.4174ZM156.925 30.648L155.157 25.971L156.925 30.648ZM97.2561 53.2028L99.024 57.8798L97.2561 53.2028ZM92.6038 53.7866L92.0461 58.7554H92.0461L92.6038 53.7866ZM13.9154 44.9546L14.4731 39.9858H14.4731L13.9154 44.9546ZM11.5423 25.6494L9.79316 20.9653H9.79316L11.5423 25.6494ZM21 51.7908L21.3622 46.8039L16 46.4145V51.7908H21ZM21 200.29H16V205.29H21V200.29ZM94.8039 57.1511L95.1661 52.1643L95.1661 52.1643L94.8039 57.1511ZM98.3421 56.7734L96.9352 51.9754L96.9352 51.9754L98.3421 56.7734ZM151.333 41.2348L155.914 39.2313L154.15 35.1982L149.926 36.4368L151.333 41.2348ZM153 72.6546V77.6546H158V72.6546H153ZM94.0088 200.29V205.29H99.0088V200.29H94.0088ZM45.165 75.3324V70.3324H40.165V75.3324H45.165ZM66.7184 75.3324H71.7184V70.3324H66.7184V75.3324ZM45.165 94.7229H40.165V99.7229H45.165V94.7229ZM66.7184 94.7229V99.7229H71.7184V94.7229H66.7184ZM66.7184 149.016H71.7184V144.016H66.7184V149.016ZM45.165 149.016V144.016H40.165V149.016H45.165ZM66.7184 168.407V173.407H71.7184V168.407H66.7184ZM45.165 168.407H40.165V173.407H45.165V168.407ZM45.165 112.174V107.174H40.165V112.174H45.165ZM66.7184 112.174H71.7184V107.174H66.7184V112.174ZM45.165 131.565H40.165V136.565H45.165V131.565ZM66.7184 131.565V136.565H71.7184V131.565H66.7184ZM180 206.218H175V211.218H180V206.218ZM103 206.218V211.218H108V206.218H103ZM130 111.363V106.363H125V111.363H130ZM150 111.363H155V106.363H150V111.363ZM130 131.125H125V136.125H130V131.125ZM150 131.125V136.125H155V131.125H150ZM150 150.886H155V145.886H150V150.886ZM130 150.886V145.886H125V150.886H130ZM150 170.648V175.648H155V170.648H150ZM130 170.648H125V175.648H130V170.648ZM84.3794 -4.81561C81.8249 -5.21991 79.2091 -4.95672 76.7862 -4.05191L80.2845 5.3162C81.0928 5.01436 81.965 4.92672 82.8163 5.06145L84.3794 -4.81561ZM155.744 6.47884L84.3794 -4.81561L82.8163 5.06145L154.181 16.3559L155.744 6.47884ZM158.693 35.325C173.077 29.8881 170.955 8.88617 155.744 6.47884L154.181 16.3559C159.233 17.1555 159.969 24.1521 155.157 25.971L158.693 35.325ZM99.024 57.8798L158.693 35.325L155.157 25.971L95.4882 48.5257L99.024 57.8798ZM92.0461 58.7554C94.4086 59.0205 96.8002 58.7203 99.024 57.8798L95.4882 48.5257C94.7463 48.8061 93.9488 48.9062 93.1615 48.8178L92.0461 58.7554ZM13.3577 49.9234L92.0461 58.7554L93.1615 48.8178L14.4731 39.9858L13.3577 49.9234ZM9.79316 20.9653C-4.98113 26.4825 -2.34067 48.1614 13.3577 49.9234L14.4731 39.9858C9.2599 39.4006 8.34783 32.1795 13.2915 30.3334L9.79316 20.9653ZM76.7862 -4.05192L9.79316 20.9653L13.2915 30.3334L80.2845 5.3162L76.7862 -4.05192ZM16 51.7908V200.29H26V51.7908H16ZM95.1661 52.1643L21.3622 46.8039L20.6378 56.7776L94.4417 62.138L95.1661 52.1643ZM96.9352 51.9754C96.3615 52.1436 95.7623 52.2076 95.1661 52.1643L94.4417 62.138C96.2304 62.2679 98.028 62.076 99.749 61.5713L96.9352 51.9754ZM149.926 36.4368L96.9352 51.9754L99.749 61.5713L152.74 46.0328L149.926 36.4368ZM158 49.2414C158 45.6919 157.257 42.3027 155.914 39.2313L146.752 43.2383C147.553 45.07 148 47.0969 148 49.2414H158ZM158 72.6546V49.2414H148V72.6546H158ZM114.009 77.6546H153V67.6546H114.009V77.6546ZM99.0088 92.6546C99.0088 84.3704 105.725 77.6546 114.009 77.6546V67.6546C100.202 67.6546 89.0088 78.8475 89.0088 92.6546H99.0088ZM99.0088 200.29V92.6546H89.0088V200.29H99.0088ZM21 205.29H94.0088V195.29H21V205.29ZM45.165 80.3324H66.7184V70.3324H45.165V80.3324ZM50.165 94.7229V75.3324H40.165V94.7229H50.165ZM66.7184 89.7229H45.165V99.7229H66.7184V89.7229ZM61.7184 75.3324V94.7229H71.7184V75.3324H61.7184ZM66.7184 144.016H45.165V154.016H66.7184V144.016ZM71.7184 168.407V149.016H61.7184V168.407H71.7184ZM45.165 173.407H66.7184V163.407H45.165V173.407ZM40.165 149.016V168.407H50.165V149.016H40.165ZM45.165 117.174H66.7184V107.174H45.165V117.174ZM50.165 131.565V112.174H40.165V131.565H50.165ZM66.7184 126.565H45.165V136.565H66.7184V126.565ZM61.7184 112.174V131.565H71.7184V112.174H61.7184ZM123 72.7692C109.193 72.7692 98 83.9621 98 97.7692H108C108 89.4849 114.716 82.7692 123 82.7692V72.7692ZM160 72.7692H123V82.7692H160V72.7692ZM185 97.7692C185 83.9621 173.807 72.7692 160 72.7692V82.7692C168.284 82.7692 175 89.4849 175 97.7692H185ZM185 206.218V97.7692H175V206.218H185ZM191.107 201.218H180V211.218H191.107V201.218ZM205 215.111C205 207.438 198.78 201.218 191.107 201.218V211.218C193.257 211.218 195 212.961 195 215.111H205ZM191.107 229.003C198.78 229.003 205 222.783 205 215.111H195C195 217.261 193.257 219.003 191.107 219.003V229.003ZM12.8926 229.003H191.107V219.003H12.8926V229.003ZM-1 215.111C-1 222.783 5.21991 229.003 12.8926 229.003V219.003C10.7428 219.003 9 217.261 9 215.111H-1ZM12.8926 201.218C5.21994 201.218 -1 207.438 -1 215.111H9C9 212.961 10.7428 211.218 12.8926 211.218V201.218ZM103 201.218H12.8926V211.218H103V201.218ZM98 97.7692V206.218H108V97.7692H98ZM130 116.363H150V106.363H130V116.363ZM135 131.125V111.363H125V131.125H135ZM150 126.125H130V136.125H150V126.125ZM145 111.363V131.125H155V111.363H145ZM150 145.886H130V155.886H150V145.886ZM155 170.648V150.886H145V170.648H155ZM130 175.648H150V165.648H130V175.648ZM125 150.886V170.648H135V150.886H125Z" fill="black" mask="url(#path-1-inside-1)"/>
</g>
<defs>
<filter id="filter0_d" x="0" y="0" width="204" height="232.003" filterUnits="userSpaceOnUse" color-interpolation-filters="sRGB">
<feFlood flood-opacity="0" result="BackgroundImageFix"/>
<feColorMatrix in="SourceAlpha" type="matrix" values="0 0 0 0 0 0 0 0 0 0 0 0 0 0 0 0 0 0 127 0"/>
<feOffset dy="4"/>
<feGaussianBlur stdDeviation="2"/>
<feColorMatrix type="matrix" values="0 0 0 0 0 0 0 0 0 0 0 0 0 0 0 0 0 0 0.25 0"/>
<feBlend mode="normal" in2="BackgroundImageFix" result="effect1_dropShadow"/>
<feBlend mode="normal" in="SourceGraphic" in2="effect1_dropShadow" result="shape"/>
</filter>
</defs>
</svg>
