<svg width="204" height="233" viewBox="0 0 204 233" fill="none" xmlns="http://www.w3.org/2000/svg">
<g filter="url(#filter0_d)">
<path fill-rule="evenodd" clip-rule="evenodd" d="M107.056 1.45566C103.864 -0.485219 99.8563 -0.485218 96.6644 1.45566L41.5454 34.9721C32.9061 40.2254 36.6299 53.5164 46.741 53.5164H156.979C167.09 53.5164 170.814 40.2254 162.175 34.9721L107.056 1.45566ZM32 76.2964C32 65.2507 40.9543 56.2963 52 56.2963H151.1C162.146 56.2963 171.1 65.2507 171.1 76.2963V106.296H180C191.046 106.296 200 115.251 200 126.296V204.296C200 215.342 191.046 224.296 180 224.296H24C12.9543 224.296 4 215.342 4 204.296V126.296C4 115.251 12.9543 106.296 24 106.296H32V76.2964ZM63.3993 83.2963C60.4173 83.2963 58 85.7137 58 88.6956C58 91.6776 60.4174 94.0949 63.3993 94.0949H140.341C143.323 94.0949 145.74 91.6776 145.74 88.6956C145.74 85.7137 143.323 83.2963 140.341 83.2963H63.3993ZM32.8449 191.022C29.5947 191.022 26.9599 188.387 26.9599 185.137V135.061C26.9599 131.811 29.5947 129.176 32.8449 129.176C36.0951 129.176 38.7299 131.811 38.7299 135.061V185.137C38.7299 188.387 36.0951 191.022 32.8449 191.022ZM61.1999 184.602C61.1999 188.148 64.0742 191.022 67.6199 191.022C71.1655 191.022 74.0399 188.148 74.0399 184.602V135.596C74.0399 132.05 71.1655 129.176 67.6199 129.176C64.0742 129.176 61.1999 132.05 61.1999 135.596V184.602ZM103.465 191.022C100.215 191.022 97.5801 188.387 97.5801 185.137V135.061C97.5801 131.811 100.215 129.176 103.465 129.176C106.715 129.176 109.35 131.811 109.35 135.061V185.137C109.35 188.387 106.715 191.022 103.465 191.022ZM132.89 184.602C132.89 188.148 135.764 191.022 139.31 191.022C142.856 191.022 145.73 188.148 145.73 184.602V135.596C145.73 132.05 142.856 129.176 139.31 129.176C135.764 129.176 132.89 132.05 132.89 135.596V184.602ZM175.155 191.022C171.905 191.022 169.27 188.387 169.27 185.137V135.061C169.27 131.811 171.905 129.176 175.155 129.176C178.405 129.176 181.04 131.811 181.04 135.061V185.137C181.04 188.387 178.405 191.022 175.155 191.022Z" fill="#020202"/>
</g>
<defs>
<filter id="filter0_d" x="0" y="0" width="204" height="232.296" filterUnits="userSpaceOnUse" color-interpolation-filters="sRGB">
<feFlood flood-opacity="0" result="BackgroundImageFix"/>
<feColorMatrix in="SourceAlpha" type="matrix" values="0 0 0 0 0 0 0 0 0 0 0 0 0 0 0 0 0 0 127 0"/>
<feOffset dy="4"/>
<feGaussianBlur stdDeviation="2"/>
<feColorMatrix type="matrix" values="0 0 0 0 0 0 0 0 0 0 0 0 0 0 0 0 0 0 0.25 0"/>
<feBlend mode="normal" in2="BackgroundImageFix" result="effect1_dropShadow"/>
<feBlend mode="normal" in="SourceGraphic" in2="effect1_dropShadow" result="shape"/>
</filter>
</defs>
</svg>
