<svg width="265" height="232" viewBox="0 0 265 232" fill="none" xmlns="http://www.w3.org/2000/svg">
<g filter="url(#filter0_d)">
<path d="M128.84 4.31023C130.882 3.33591 133.255 3.33591 135.298 4.31023L223.177 46.2307C230.389 49.6708 227.938 60.5 219.948 60.5H44.1896C36.1997 60.5 33.7491 49.6708 40.9605 46.2307L128.84 4.31023Z" stroke="black" stroke-width="5"/>
<mask id="path-2-inside-1" fill="white">
<path fill-rule="evenodd" clip-rule="evenodd" d="M47.5689 90C47.5689 78.9543 56.5232 70 67.5689 70H195.569C206.615 70 215.569 78.9543 215.569 90V209H222.069C226.211 209 229.569 212.358 229.569 216.5C229.569 220.642 226.211 224 222.069 224H41.0689C36.9267 224 33.5689 220.642 33.5689 216.5C33.5689 212.358 36.9267 209 41.0689 209H47.5689V90ZM130.569 163C119.523 163 110.569 171.954 110.569 183V208H152.569V183C152.569 171.954 143.615 163 132.569 163H130.569ZM67.5689 91H80.5689V104H67.5689V91ZM120.569 91H107.569V104H120.569V91ZM147.569 91H160.569V104H147.569V91ZM200.569 91H187.569V104H200.569V91ZM67.5689 127H80.5689V140H67.5689V127ZM120.569 127H107.569V140H120.569V127ZM147.569 127H160.569V140H147.569V127ZM200.569 127H187.569V140H200.569V127ZM67.5689 163H80.5689V176H67.5689V163ZM200.569 163H187.569V176H200.569V163Z"/>
</mask>
<path d="M215.569 209H210.569V214H215.569V209ZM47.5689 209V214H52.5689V209H47.5689ZM110.569 208H105.569V213H110.569V208ZM152.569 208V213H157.569V208H152.569ZM80.5689 91H85.5689V86H80.5689V91ZM67.5689 91V86H62.5689V91H67.5689ZM80.5689 104V109H85.5689V104H80.5689ZM67.5689 104H62.5689V109H67.5689V104ZM107.569 91V86H102.569V91H107.569ZM120.569 91H125.569V86H120.569V91ZM107.569 104H102.569V109H107.569V104ZM120.569 104V109H125.569V104H120.569ZM160.569 91H165.569V86H160.569V91ZM147.569 91V86H142.569V91H147.569ZM160.569 104V109H165.569V104H160.569ZM147.569 104H142.569V109H147.569V104ZM187.569 91V86H182.569V91H187.569ZM200.569 91H205.569V86H200.569V91ZM187.569 104H182.569V109H187.569V104ZM200.569 104V109H205.569V104H200.569ZM80.5689 127H85.5689V122H80.5689V127ZM67.5689 127V122H62.5689V127H67.5689ZM80.5689 140V145H85.5689V140H80.5689ZM67.5689 140H62.5689V145H67.5689V140ZM107.569 127V122H102.569V127H107.569ZM120.569 127H125.569V122H120.569V127ZM107.569 140H102.569V145H107.569V140ZM120.569 140V145H125.569V140H120.569ZM160.569 127H165.569V122H160.569V127ZM147.569 127V122H142.569V127H147.569ZM160.569 140V145H165.569V140H160.569ZM147.569 140H142.569V145H147.569V140ZM187.569 127V122H182.569V127H187.569ZM200.569 127H205.569V122H200.569V127ZM187.569 140H182.569V145H187.569V140ZM200.569 140V145H205.569V140H200.569ZM80.5689 163H85.5689V158H80.5689V163ZM67.5689 163V158H62.5689V163H67.5689ZM80.5689 176V181H85.5689V176H80.5689ZM67.5689 176H62.5689V181H67.5689V176ZM187.569 163V158H182.569V163H187.569ZM200.569 163H205.569V158H200.569V163ZM187.569 176H182.569V181H187.569V176ZM200.569 176V181H205.569V176H200.569ZM67.5689 65C53.7618 65 42.5689 76.1929 42.5689 90H52.5689C52.5689 81.7157 59.2846 75 67.5689 75V65ZM195.569 65H67.5689V75H195.569V65ZM220.569 90C220.569 76.1929 209.376 65 195.569 65V75C203.853 75 210.569 81.7157 210.569 90H220.569ZM220.569 209V90H210.569V209H220.569ZM222.069 204H215.569V214H222.069V204ZM234.569 216.5C234.569 209.596 228.972 204 222.069 204V214C223.45 214 224.569 215.119 224.569 216.5H234.569ZM222.069 229C228.972 229 234.569 223.404 234.569 216.5H224.569C224.569 217.881 223.45 219 222.069 219V229ZM41.0689 229H222.069V219H41.0689V229ZM28.5689 216.5C28.5689 223.404 34.1653 229 41.0689 229V219C39.6882 219 38.5689 217.881 38.5689 216.5H28.5689ZM41.0689 204C34.1653 204 28.5689 209.596 28.5689 216.5H38.5689C38.5689 215.119 39.6882 214 41.0689 214V204ZM47.5689 204H41.0689V214H47.5689V204ZM42.5689 90V209H52.5689V90H42.5689ZM115.569 183C115.569 174.716 122.285 168 130.569 168V158C116.762 158 105.569 169.193 105.569 183H115.569ZM115.569 208V183H105.569V208H115.569ZM152.569 203H110.569V213H152.569V203ZM147.569 183V208H157.569V183H147.569ZM132.569 168C140.853 168 147.569 174.716 147.569 183H157.569C157.569 169.193 146.376 158 132.569 158V168ZM130.569 168H132.569V158H130.569V168ZM80.5689 86H67.5689V96H80.5689V86ZM85.5689 104V91H75.5689V104H85.5689ZM67.5689 109H80.5689V99H67.5689V109ZM62.5689 91V104H72.5689V91H62.5689ZM107.569 96H120.569V86H107.569V96ZM112.569 104V91H102.569V104H112.569ZM120.569 99H107.569V109H120.569V99ZM115.569 91V104H125.569V91H115.569ZM160.569 86H147.569V96H160.569V86ZM165.569 104V91H155.569V104H165.569ZM147.569 109H160.569V99H147.569V109ZM142.569 91V104H152.569V91H142.569ZM187.569 96H200.569V86H187.569V96ZM192.569 104V91H182.569V104H192.569ZM200.569 99H187.569V109H200.569V99ZM195.569 91V104H205.569V91H195.569ZM80.5689 122H67.5689V132H80.5689V122ZM85.5689 140V127H75.5689V140H85.5689ZM67.5689 145H80.5689V135H67.5689V145ZM62.5689 127V140H72.5689V127H62.5689ZM107.569 132H120.569V122H107.569V132ZM112.569 140V127H102.569V140H112.569ZM120.569 135H107.569V145H120.569V135ZM115.569 127V140H125.569V127H115.569ZM160.569 122H147.569V132H160.569V122ZM165.569 140V127H155.569V140H165.569ZM147.569 145H160.569V135H147.569V145ZM142.569 127V140H152.569V127H142.569ZM187.569 132H200.569V122H187.569V132ZM192.569 140V127H182.569V140H192.569ZM200.569 135H187.569V145H200.569V135ZM195.569 127V140H205.569V127H195.569ZM80.5689 158H67.5689V168H80.5689V158ZM85.5689 176V163H75.5689V176H85.5689ZM67.5689 181H80.5689V171H67.5689V181ZM62.5689 163V176H72.5689V163H62.5689ZM187.569 168H200.569V158H187.569V168ZM192.569 176V163H182.569V176H192.569ZM200.569 171H187.569V181H200.569V171ZM195.569 163V176H205.569V163H195.569Z" fill="black" mask="url(#path-2-inside-1)"/>
</g>
<defs>
<filter id="filter0_d" x="29.5689" y="1.0795" width="204.394" height="230.921" filterUnits="userSpaceOnUse" color-interpolation-filters="sRGB">
<feFlood flood-opacity="0" result="BackgroundImageFix"/>
<feColorMatrix in="SourceAlpha" type="matrix" values="0 0 0 0 0 0 0 0 0 0 0 0 0 0 0 0 0 0 127 0"/>
<feOffset dy="4"/>
<feGaussianBlur stdDeviation="2"/>
<feColorMatrix type="matrix" values="0 0 0 0 0 0 0 0 0 0 0 0 0 0 0 0 0 0 0.25 0"/>
<feBlend mode="normal" in2="BackgroundImageFix" result="effect1_dropShadow"/>
<feBlend mode="normal" in="SourceGraphic" in2="effect1_dropShadow" result="shape"/>
</filter>
</defs>
</svg>
