<svg class="Zi Zi--KnowledgeBase" fill="currentColor" viewBox="0 0 24 24" width="24" height="24">
  <path d="M21 9.749v9.91c0 .74-.604 1.341-1.35 1.341H4.35C3.604 21 3 20.4 3 19.659V9.319c0-.503.283-.963.733-1.193l4.892-2.5V3.341c0-.74.604-1.341 1.35-1.341.267 0 .527.078.749.225l9.675 6.408c.375.249.601.668.601 1.116zM8.297 8.307L5.372 9.802A.223.223 0 0 0 5.25 10v8.54c0 .124.1.224.225.224h8.586a.223.223 0 1 0 .124-.41l-4.959-3.259a1.339 1.339 0 0 1-.601-1.116V8.506a.224.224 0 0 0-.328-.199z"></path>
</svg>
