<svg t="1619432067910" class="icon" viewBox="0 0 1024 1024" version="1.1" xmlns="http://www.w3.org/2000/svg" p-id="10284" width="200" height="200"><path d="M804.571429 548.571429l0-73.142857q0-14.848-10.825143-25.746286t-25.746286-10.825143l-512 0q-14.848 0-25.746286 10.825143t-10.825143 25.746286l0 73.142857q0 14.848 10.825143 25.746286t25.746286 10.825143l512 0q14.848 0 25.746286-10.825143t10.825143-25.746286zM950.857143 237.714286l0 548.571429q0 68.022857-48.274286 116.297143t-116.297143 48.274286l-548.571429 0q-68.022857 0-116.297143-48.274286t-48.274286-116.297143l0-548.571429q0-68.022857 48.274286-116.297143t116.297143-48.274286l548.571429 0q68.022857 0 116.297143 48.274286t48.274286 116.297143z" p-id="10285"></path></svg>