<svg t="1619432106543" class="icon" viewBox="0 0 1024 1024" version="1.1" xmlns="http://www.w3.org/2000/svg" p-id="11059" width="200" height="200"><path d="M768 457.142857v36.571429q0 8-5.142857 13.142857t-13.142857 5.142857H274.285714q-8 0-13.142857-5.142857t-5.142857-13.142857v-36.571429q0-8 5.142857-13.142857t13.142857-5.142857h475.428572q8 0 13.142857 5.142857t5.142857 13.142857z m73.142857 256V237.714286q0-37.714286-26.857143-64.571429t-64.571428-26.857143H274.285714q-37.714286 0-64.571428 26.857143t-26.857143 64.571429v475.428571q0 37.714286 26.857143 64.571429t64.571428 26.857143h475.428572q37.714286 0 64.571428-26.857143t26.857143-64.571429z m73.142857-475.428571v475.428571q0 68-48.285714 116.285714T749.714286 877.714286H274.285714q-68 0-116.285714-48.285715T109.714286 713.142857V237.714286q0-68 48.285714-116.285715T274.285714 73.142857h475.428572q68 0 116.285714 48.285714T914.285714 237.714286z" p-id="11060"></path></svg>