<svg t="1619431543585" class="icon" viewBox="0 0 1024 1024" version="1.1" xmlns="http://www.w3.org/2000/svg" p-id="3124" width="200" height="200"><path d="M113.066667 517.333333h822.4v70.4H113.066667z" fill="#666666" p-id="3125"></path><path d="M804.266667 925.866667H243.2C162.133333 925.866667 96 859.733333 96 778.666667V467.2C96 386.133333 162.133333 320 243.2 320h561.066667c81.066667 0 147.2 66.133333 147.2 147.2V778.666667c0 81.066667-66.133333 147.2-147.2 147.2zM243.2 369.066667c-53.333333 0-98.133333 43.733333-98.133333 98.133333V778.666667c0 53.333333 43.733333 98.133333 98.133333 98.133333h561.066667c53.333333 0 98.133333-43.733333 98.133333-98.133333V467.2c0-53.333333-43.733333-98.133333-98.133333-98.133333H243.2z" fill="#666666" p-id="3126"></path><path d="M697.6 347.733333H349.866667v-58.666666c0-109.866667 58.666667-122.666667 84.266666-122.666667h179.2c25.6 0 44.8 7.466667 59.733334 22.4 25.6 25.6 25.6 66.133333 24.533333 91.733333v67.2z m-298.666667-49.066666h248.533334v-8.533334-8.533333c0-18.133333 1.066667-44.8-10.666667-56.533333-2.133333-2.133333-7.466667-7.466667-24.533333-7.466667H434.133333c-29.866667 0-35.2 45.866667-35.2 72.533333v8.533334zM523.733333 670.933333c-61.866667 0-112-50.133333-112-112V533.333333h225.066667v24.533334c-1.066667 61.866667-51.2 113.066667-113.066667 113.066666z m-57.6-87.466666c9.6 22.4 32 37.333333 57.6 37.333333 25.6 0 48-16 57.6-37.333333H466.133333z" fill="#666666" p-id="3127"></path></svg>