<svg t="1619432013910" class="icon" viewBox="0 0 1024 1024" version="1.1" xmlns="http://www.w3.org/2000/svg" p-id="9280" width="200" height="200"><path d="M804.571429 548.571429l0-73.142857q0-14.857143-10.857143-25.714286t-25.714286-10.857143l-182.857143 0 0-182.857143q0-14.857143-10.857143-25.714286t-25.714286-10.857143l-73.142857 0q-14.857143 0-25.714286 10.857143t-10.857143 25.714286l0 182.857143-182.857143 0q-14.857143 0-25.714286 10.857143t-10.857143 25.714286l0 73.142857q0 14.857143 10.857143 25.714286t25.714286 10.857143l182.857143 0 0 182.857143q0 14.857143 10.857143 25.714286t25.714286 10.857143l73.142857 0q14.857143 0 25.714286-10.857143t10.857143-25.714286l0-182.857143 182.857143 0q14.857143 0 25.714286-10.857143t10.857143-25.714286zm146.285714-310.857143l0 548.571429q0 68-48.285714 116.285714t-116.285714 48.285714l-548.571429 0q-68 0-116.285714-48.285714t-48.285714-116.285714l0-548.571429q0-68 48.285714-116.285714t116.285714-48.285714l548.571429 0q68 0 116.285714 48.285714t48.285714 116.285714z" p-id="9281"></path></svg>