<svg t="1619432049433" class="icon" viewBox="0 0 1024 1024" version="1.1" xmlns="http://www.w3.org/2000/svg" p-id="9540" width="200" height="200"><path d="M768 457.142857l0 36.571429q0 8-5.142857 13.142857t-13.142857 5.142857l-201.142857 0 0 201.142857q0 8-5.142857 13.142857t-13.142857 5.142857l-36.571429 0q-8 0-13.142857-5.142857t-5.142857-13.142857l0-201.142857-201.142857 0q-8 0-13.142857-5.142857t-5.142857-13.142857l0-36.571429q0-8 5.142857-13.142857t13.142857-5.142857l201.142857 0 0-201.142857q0-8 5.142857-13.142857t13.142857-5.142857l36.571429 0q8 0 13.142857 5.142857t5.142857 13.142857l0 201.142857 201.142857 0q8 0 13.142857 5.142857t5.142857 13.142857zm73.142857 256l0-475.428571q0-37.714286-26.857143-64.571429t-64.571429-26.857143l-475.428571 0q-37.714286 0-64.571429 26.857143t-26.857143 64.571429l0 475.428571q0 37.714286 26.857143 64.571429t64.571429 26.857143l475.428571 0q37.714286 0 64.571429-26.857143t26.857143-64.571429zm73.142857-475.428571l0 475.428571q0 68-48.285714 116.285714t-116.285714 48.285714l-475.428571 0q-68 0-116.285714-48.285714t-48.285714-116.285714l0-475.428571q0-68 48.285714-116.285714t116.285714-48.285714l475.428571 0q68 0 116.285714 48.285714t48.285714 116.285714z" p-id="9541"></path></svg>