<svg t="1619432689339" class="icon" viewBox="0 0 1024 1024" version="1.1" xmlns="http://www.w3.org/2000/svg" p-id="21391" width="200" height="200"><path d="M870 298h-96.8V175.7c0-8.8-7.2-16-16-16H266.6c-8.8 0-16 7.2-16 16V298h-98.8c-8.8 0-15.9 7.3-15.9 16.3v390.5c0 9 7.2 16.3 15.9 16.3H253v125c0 8.8 7.2 15.9 15.9 15.9h483.9c8.8 0 15.9-7.2 15.9-15.9v-125H870c8.8 0 15.9-7.3 15.9-16.3V314.3c0-8.9-7.1-16.3-15.9-16.3z m-555.2-74.1h394.3V298H314.8v-74.1z m389.9 497.2V798H317.2V611.9h387.6V721.1z m117.1-358.9V657h-53v-93.3c0-8.8-7.2-15.9-15.9-15.9H269c-8.8 0-15.9 7.2-15.9 15.9V657h-53V362.2h621.7z" fill="#231815" p-id="21392"></path><path d="M672.5 393.5h96.4v64.1h-96.4z" fill="#231815" p-id="21393"></path></svg>