<svg t="1619432325258" class="icon" viewBox="0 0 1024 1024" version="1.1" xmlns="http://www.w3.org/2000/svg" p-id="13455" width="200" height="200"><path d="M170.666667 341.333333C76.8 341.333333 0 264.533333 0 170.666667s76.8-170.666667 170.666667-170.666667 170.666667 76.8 170.666667 170.666667S264.533333 341.333333 170.666667 341.333333zM170.666667 85.333333C123.733333 85.333333 85.333333 123.733333 85.333333 170.666667s38.4 85.333333 85.333333 85.333333 85.333333-38.4 85.333333-85.333333S217.6 85.333333 170.666667 85.333333zM682.666667 682.666667c-93.866667 0-170.666667-76.8-170.666667-170.666667s76.8-170.666667 170.666667-170.666667 170.666667 76.8 170.666667 170.666667S776.533333 682.666667 682.666667 682.666667zM682.666667 426.666667c-46.933333 0-85.333333 38.4-85.333333 85.333333s38.4 85.333333 85.333333 85.333333 85.333333-38.4 85.333333-85.333333S729.6 426.666667 682.666667 426.666667zM981.333333 213.333333 298.666667 213.333333C273.066667 213.333333 256 196.266667 256 170.666667s17.066667-42.666667 42.666667-42.666667l682.666667 0c25.6 0 42.666667 17.066667 42.666667 42.666667S1006.933333 213.333333 981.333333 213.333333zM981.333333 554.666667l-170.666667 0c-25.6 0-42.666667-17.066667-42.666667-42.666667s17.066667-42.666667 42.666667-42.666667l170.666667 0c25.6 0 42.666667 17.066667 42.666667 42.666667S1006.933333 554.666667 981.333333 554.666667zM554.666667 554.666667 42.666667 554.666667c-25.6 0-42.666667-17.066667-42.666667-42.666667s17.066667-42.666667 42.666667-42.666667l512 0c25.6 0 42.666667 17.066667 42.666667 42.666667S580.266667 554.666667 554.666667 554.666667zM426.666667 1024c-93.866667 0-170.666667-76.8-170.666667-170.666667s76.8-170.666667 170.666667-170.666667 170.666667 76.8 170.666667 170.666667S520.533333 1024 426.666667 1024zM426.666667 768c-46.933333 0-85.333333 38.4-85.333333 85.333333s38.4 85.333333 85.333333 85.333333 85.333333-38.4 85.333333-85.333333S473.6 768 426.666667 768zM981.333333 896 554.666667 896c-25.6 0-42.666667-17.066667-42.666667-42.666667s17.066667-42.666667 42.666667-42.666667l426.666667 0c25.6 0 42.666667 17.066667 42.666667 42.666667S1006.933333 896 981.333333 896zM298.666667 896 42.666667 896c-25.6 0-42.666667-17.066667-42.666667-42.666667s17.066667-42.666667 42.666667-42.666667l256 0c25.6 0 42.666667 17.066667 42.666667 42.666667S324.266667 896 298.666667 896z" p-id="13456"></path></svg>