<svg t="1619431905698" class="icon" viewBox="0 0 1024 1024" version="1.1" xmlns="http://www.w3.org/2000/svg" p-id="7419" width="200" height="200"><path d="M914.21257 877.714283q0 35.986286-35.108571 64.877714t-93.696 46.299428-128.585142 26.258286-144.822857 8.850286-144.822857-8.850286-128.585142-26.258286-93.696-46.299428-35.108571-64.877714q0-28.013714 18.870857-50.541714t52.004571-38.034286 67.437714-25.453714 74.825143-16.822857q14.848-2.852571 27.428571 5.997714t14.848 23.698286q2.852571 14.848-5.997714 27.428571t-23.698286 14.848q-33.133714 5.705143-60.562285 13.458286t-43.739428 14.555429-27.721143 13.458286-15.725714 11.117714-4.827429 6.875429q1.682286 6.290286 15.433143 15.140571t41.691428 18.870857 65.170285 18.578286 91.721143 14.262857 115.126857 5.705143 115.126857-5.705143 91.721143-14.262857 65.170285-18.870857 41.691428-19.163429 15.433143-15.725714q-0.585143-2.267429-4.827429-6.290286t-15.725714-10.825143-27.721143-13.458286-43.739428-14.262857-60.562285-13.458286q-14.848-2.267429-23.698286-14.848t-5.997714-27.428571q2.267429-14.848 14.848-23.698286t27.428571-5.997714q40.594286 6.875429 74.825143 16.822857t67.437714 25.453714 52.004571 38.034286 18.870857 50.541714zM694.783999 365.714284l0 219.428571q0 14.848-10.825143 25.746286t-25.746286 10.825143l-36.571428 0 0 219.428571q0 14.848-10.825143 25.746286t-25.746286 10.825143l-146.285714 0q-14.848 0-25.746286-10.825143t-10.825143-25.746286l0-219.428571-36.571428 0q-14.848 0-25.746286-10.825143t-10.825143-25.746286l0-219.428571q0-30.281143 21.430857-51.712t51.712-21.430857l219.428571 0q30.281143 0 51.712 21.430857t21.430857 51.712zM639.926857 146.285714q0 53.174857-37.449143 90.550857t-90.550857 37.449143-90.550857-37.449143-37.449143-90.550857 37.449143-90.550857 90.550857-37.449143 90.550857 37.449143 37.449143 90.550857z" p-id="7420"></path></svg>