<svg xmlns="http://www.w3.org/2000/svg" viewBox="0 0 32 32" width="13" height="13" style="fill: rgba(255, 255, 255, 1);border-color: rgba(0,0,0,0);border-width: bpx;border-style: undefined" filter="none"><path d="M15.919 7.111l-10.585 19.455h21.17l-10.585-19.455zM17.48 6.262l10.585 19.455c0.469 0.862 0.151 1.942-0.712 2.411-0.245 0.136-0.538 0.216-0.85 0.216-0 0-0 0-0 0h-21.17c-0.982 0-1.778-0.796-1.778-1.778 0-0.311 0.080-0.604 0.221-0.859l-0.005 0.009 10.585-19.455c0.469-0.862 1.549-1.181 2.411-0.712 0.302 0.167 0.545 0.409 0.707 0.703l0.005 0.009z"></path><path d="M15.12 12.801c-0.003-0.131 0.091-0.238 0.228-0.238h1.32c0.129 0 0.232 0.1 0.228 0.238l-0.188 8.413c-0.003 0.131-0.114 0.238-0.235 0.238h-0.931c-0.127 0-0.232-0.1-0.235-0.238l-0.188-8.413zM16.008 24.119c-0.491 0-0.889-0.398-0.889-0.889s0.398-0.889 0.889-0.889c0.491 0 0.889 0.398 0.889 0.889s-0.398 0.889-0.889 0.889z"></path></svg>